<?xml version="1.0" standalone="no"?>
<!DOCTYPE svg PUBLIC "-//W3C//DTD SVG 20010904//EN"
 "http://www.w3.org/TR/2001/REC-SVG-20010904/DTD/svg10.dtd">
<svg version="1.0" xmlns="http://www.w3.org/2000/svg"
 width="203.000000pt" height="193.000000pt" viewBox="0 0 203.000000 193.000000"
 preserveAspectRatio="xMidYMid meet">
<metadata>
Created by potrace 1.10, written by Peter Selinger 2001-2011
</metadata>
<g transform="translate(0.000000,193.000000) scale(0.050000,-0.050000)"
fill="#000000" stroke="none">
<path d="M2387 3501 c-40 -24 -72 -66 -88 -114 -94 -292 -262 -455 -803 -779
-576 -345 -769 -519 -927 -835 -154 -306 -186 -246 476 -908 695 -695 706
-699 874 -334 127 275 263 397 798 716 608 364 862 622 982 999 43 133 26 156
-525 710 -620 623 -638 636 -787 545z m1109 -1191 c12 -53 -119 -286 -228
-407 -141 -155 -302 -272 -726 -525 -485 -290 -749 -547 -826 -803 l-23 -78
-507 507 c-278 278 -506 515 -506 526 2 222 335 550 907 895 589 355 785 547
899 878 12 35 997 -934 1010 -993z"/>
<path d="M2464 2913 c-55 -70 -151 -171 -212 -224 -114 -99 -145 -169 -73
-169 93 0 481 419 454 490 -22 57 -70 30 -169 -97z"/>
<path d="M1920 2378 c-27 -11 -65 -34 -84 -52 -29 -26 -41 -27 -65 -7 -33 27
-67 -17 -44 -55 6 -9 -7 -55 -30 -101 -123 -248 43 -424 315 -331 l93 31 85
-96 c123 -139 82 -180 -105 -105 -92 38 -149 -13 -100 -88 67 -102 233 -118
341 -34 43 35 53 36 74 10 14 -17 37 -30 51 -30 46 0 52 38 11 73 -39 34 -39
34 9 117 142 243 -47 458 -318 361 l-98 -34 -87 85 c-105 103 -96 126 44 112
116 -12 161 14 139 82 -22 71 -134 100 -231 62z m40 -398 c-45 -29 -103 -24
-143 13 -43 39 -44 46 -16 119 l21 56 84 -85 c69 -69 79 -87 54 -103z m381
-61 c46 -24 54 -142 13 -176 -21 -17 -47 -2 -112 65 -105 107 -36 184 99 111z"/>
<path d="M1831 1178 c-143 -134 -271 -296 -271 -344 0 -79 64 -47 169 85 61
76 156 176 211 223 104 87 131 158 61 158 -22 0 -98 -55 -170 -122z"/>
</g>
</svg>
