<?xml version="1.0" standalone="no"?>
<!DOCTYPE svg PUBLIC "-//W3C//DTD SVG 20010904//EN"
 "http://www.w3.org/TR/2001/REC-SVG-20010904/DTD/svg10.dtd">
<svg version="1.0" xmlns="http://www.w3.org/2000/svg"
 width="208.000000pt" height="173.000000pt" viewBox="0 0 208.000000 173.000000"
 preserveAspectRatio="xMidYMid meet">
<metadata>
Created by potrace 1.10, written by Peter Selinger 2001-2011
</metadata>
<g transform="translate(0.000000,173.000000) scale(0.050000,-0.050000)"
fill="#000000" stroke="none">
<path d="M1696 3250 c-1392 -234 -1811 -1623 -680 -2252 124 -68 105 -182 -85
-517 -174 -307 308 -191 709 171 l110 100 140 -19 c683 -88 1492 290 1758 822
471 941 -650 1914 -1952 1695z m881 -249 c1319 -381 1274 -1676 -70 -2015
-104 -27 -224 -35 -501 -36 l-365 0 -95 -92 c-128 -123 -285 -246 -297 -234
-5 5 5 45 24 88 93 221 47 356 -166 480 -854 500 -633 1498 400 1798 286 83
802 89 1070 11z"/>
<path d="M1890 2739 c-517 -55 -917 -317 -990 -647 -17 -79 -16 -104 6 -126
36 -36 94 -12 94 39 0 303 428 587 947 629 104 8 160 21 167 39 12 32 -29 88
-61 84 -13 -1 -86 -9 -163 -18z"/>
</g>
</svg>
