<?xml version="1.0" standalone="no"?>
<!DOCTYPE svg PUBLIC "-//W3C//DTD SVG 20010904//EN"
 "http://www.w3.org/TR/2001/REC-SVG-20010904/DTD/svg10.dtd">
<svg version="1.0" xmlns="http://www.w3.org/2000/svg"
 width="121.000000pt" height="175.000000pt" viewBox="0 0 121.000000 175.000000"
 preserveAspectRatio="xMidYMid meet">
<metadata>
Created by potrace 1.10, written by Peter Selinger 2001-2011
</metadata>
<g transform="translate(0.000000,175.000000) scale(0.050000,-0.050000)"
fill="#000000" stroke="none">
<path d="M1060 3308 c-465 -86 -834 -490 -873 -957 -21 -241 38 -413 304 -894
100 -180 161 -325 251 -600 174 -536 240 -617 500 -617 259 0 321 77 497 615
93 286 149 417 289 675 224 414 280 583 265 801 -41 615 -638 1087 -1233 977z
m549 -267 c297 -143 474 -409 485 -731 8 -213 -14 -279 -254 -728 l-150 -281
-450 0 -450 0 -162 305 c-225 421 -255 510 -244 722 31 595 683 975 1225 713z
m-1 -1971 c-19 -63 -24 -64 -298 -99 -143 -18 -288 -37 -323 -43 -54 -10 -128
94 -127 181 0 0 171 1 380 1 370 0 379 -1 368 -40z m-82 -265 c-18 -52 -33
-96 -34 -98 -1 -2 -87 -13 -192 -25 -104 -13 -213 -27 -242 -33 -48 -10 -132
148 -96 179 9 7 461 65 542 69 l54 3 -32 -95z m-88 -250 c-70 -136 -272 -170
-359 -60 l-43 55 157 22 c257 37 273 36 245 -17z"/>
<path d="M1029 2799 c-224 -86 -474 -502 -349 -579 42 -26 80 0 80 55 0 227
236 465 461 465 55 0 80 29 64 75 -12 37 -140 29 -256 -16z"/>
</g>
</svg>
