<?xml version="1.0" standalone="no"?>
<!DOCTYPE svg PUBLIC "-//W3C//DTD SVG 20010904//EN"
 "http://www.w3.org/TR/2001/REC-SVG-20010904/DTD/svg10.dtd">
<svg version="1.0" xmlns="http://www.w3.org/2000/svg"
 width="225.000000pt" height="215.000000pt" viewBox="0 0 225.000000 215.000000"
 preserveAspectRatio="xMidYMid meet">
<metadata>
Created by potrace 1.10, written by Peter Selinger 2001-2011
</metadata>
<g transform="translate(0.000000,215.000000) scale(0.050000,-0.050000)"
fill="#000000" stroke="none">
<path d="M1213 4143 c-24 -26 -33 -74 -33 -180 l0 -143 -307 0 c-338 0 -383
-14 -481 -146 -66 -89 -66 -3079 -1 -3166 112 -150 -51 -138 1859 -138 1910 0
1747 -12 1859 138 65 87 65 3077 -1 3166 -98 132 -143 146 -481 146 l-307 0 0
147 c0 159 -29 213 -117 213 -89 0 -127 -69 -120 -222 l7 -138 -367 0 -368 0
10 125 c10 143 -13 211 -77 227 -118 30 -166 -42 -153 -227 l10 -125 -368 0
-367 0 7 138 c9 193 -104 296 -204 185z m-33 -712 c0 -131 5 -152 44 -180 120
-84 202 -3 193 191 l-7 138 366 0 366 0 -5 -139 c-5 -154 29 -221 115 -221 84
0 125 83 113 230 l-10 130 367 0 368 0 -7 -138 c-9 -194 73 -275 193 -191 39
28 44 49 44 180 l0 149 276 0 c188 0 284 -8 300 -24 35 -35 35 -2897 0 -2932
-35 -35 -3257 -35 -3292 0 -35 35 -35 2897 0 2932 16 16 112 24 300 24 l276 0
0 -149z"/>
<path d="M1180 2565 l0 -185 241 0 241 0 -6 182 -6 181 -235 4 -235 3 0 -185z"/>
<path d="M2018 2745 c-1 -3 -2 -84 -3 -180 l-2 -175 237 0 237 0 0 177 0 177
-233 3 c-129 2 -235 1 -236 -2z"/>
<path d="M2848 2742 c-4 -5 -8 -88 -8 -185 l0 -177 240 0 240 0 0 185 0 185
-232 0 c-127 0 -235 -4 -240 -8z"/>
<path d="M1180 1975 l0 -185 235 3 235 4 6 181 6 182 -241 0 -241 0 0 -185z"/>
<path d="M2018 2151 c-1 -6 -2 -88 -3 -183 l-2 -172 237 0 237 0 0 177 0 177
-233 6 c-129 3 -235 0 -236 -5z"/>
<path d="M2844 1978 l6 -181 235 -4 235 -3 0 185 0 185 -241 0 -241 0 6 -182z"/>
<path d="M1180 1380 l0 -180 240 0 240 0 0 180 0 180 -240 0 -240 0 0 -180z"/>
<path d="M2010 1380 l0 -180 240 0 240 0 0 180 0 180 -240 0 -240 0 0 -180z"/>
<path d="M2840 1380 l0 -180 240 0 240 0 0 180 0 180 -240 0 -240 0 0 -180z"/>
</g>
</svg>
