<?xml version="1.0" standalone="no"?>
<!DOCTYPE svg PUBLIC "-//W3C//DTD SVG 20010904//EN"
 "http://www.w3.org/TR/2001/REC-SVG-20010904/DTD/svg10.dtd">
<svg version="1.0" xmlns="http://www.w3.org/2000/svg"
 width="170.000000pt" height="132.000000pt" viewBox="0 0 170.000000 132.000000"
 preserveAspectRatio="xMidYMid meet">
<metadata>
Created by potrace 1.10, written by Peter Selinger 2001-2011
</metadata>
<g transform="translate(0.000000,132.000000) scale(0.050000,-0.050000)"
fill="#000000" stroke="none">
<path d="M1065 2447 c-72 -36 -113 -95 -196 -290 l-57 -134 -231 -34 c-440
-66 -421 -23 -421 -926 0 -1014 -187 -903 1520 -903 1707 0 1520 -111 1520
903 0 903 19 860 -421 926 l-231 34 -57 134 c-142 333 -116 323 -814 323 -460
-1 -557 -6 -612 -33z m1255 -367 l93 -210 277 -42 c212 -33 283 -51 303 -79
34 -46 40 -1308 6 -1370 -23 -44 -2602 -63 -2629 -19 -30 48 -14 1388 17 1410
16 12 149 39 294 59 l264 38 48 106 c26 59 69 157 96 217 l49 111 544 -6 545
-5 93 -210z"/>
<path d="M1480 1853 c-772 -210 -723 -1190 67 -1335 329 -61 687 112 828 399
253 516 -303 1097 -895 936z m470 -208 c506 -264 310 -965 -270 -965 -632 0
-777 807 -180 1002 93 31 363 9 450 -37z"/>
<path d="M1550 1516 c-144 -52 -259 -198 -246 -313 10 -89 80 -71 101 26 25
120 129 211 242 211 62 0 101 44 69 76 -29 29 -85 28 -166 0z"/>
</g>
</svg>
