<?xml version="1.0" standalone="no"?>
<!DOCTYPE svg PUBLIC "-//W3C//DTD SVG 20010904//EN"
 "http://www.w3.org/TR/2001/REC-SVG-20010904/DTD/svg10.dtd">
<svg version="1.0" xmlns="http://www.w3.org/2000/svg"
 width="182.000000pt" height="185.000000pt" viewBox="0 0 182.000000 185.000000"
 preserveAspectRatio="xMidYMid meet">
<metadata>
Created by potrace 1.10, written by Peter Selinger 2001-2011
</metadata>
<g transform="translate(0.000000,185.000000) scale(0.050000,-0.050000)"
fill="#000000" stroke="none">
<path d="M2325 3249 c-229 -61 -284 -106 -993 -799 -1230 -1201 -1201 -1165
-1202 -1500 -1 -575 626 -940 1108 -645 131 79 1742 1676 1792 1776 216 425
-171 882 -631 747 -103 -30 -144 -66 -745 -665 -704 -699 -691 -684 -645 -754
73 -112 96 -94 751 562 336 337 634 625 664 640 245 130 529 -136 435 -407
-26 -73 -1653 -1678 -1760 -1736 -98 -53 -360 -53 -467 1 -258 128 -367 439
-245 701 64 137 1658 1710 1818 1795 627 331 1310 -328 1013 -977 -34 -76
-190 -245 -681 -739 -652 -655 -683 -695 -613 -765 72 -72 109 -43 778 631
682 688 727 743 787 976 179 687 -480 1342 -1164 1158z"/>
</g>
</svg>
