<?xml version="1.0" standalone="no"?>
<!DOCTYPE svg PUBLIC "-//W3C//DTD SVG 20010904//EN"
 "http://www.w3.org/TR/2001/REC-SVG-20010904/DTD/svg10.dtd">
<svg version="1.0" xmlns="http://www.w3.org/2000/svg"
 width="276.000000pt" height="249.000000pt" viewBox="0 0 276.000000 249.000000"
 preserveAspectRatio="xMidYMid meet">
<metadata>
Created by potrace 1.10, written by Peter Selinger 2001-2011
</metadata>
<g transform="translate(0.000000,249.000000) scale(0.100000,-0.100000)"
fill="#000000" stroke="none">
<path d="M1380 1723 c-93 -10 -195 -38 -280 -76 -118 -53 -258 -172 -312 -267
l-23 -39 -125 -3 c-114 -3 -130 -6 -185 -32 -74 -36 -146 -107 -175 -172 -18
-41 -21 -65 -19 -142 l3 -93 -50 -33 c-71 -50 -108 -87 -150 -152 -46 -72 -56
-106 -61 -214 -5 -94 3 -133 49 -228 53 -109 200 -222 333 -256 57 -15 1834
-14 1895 1 52 13 113 35 152 55 51 27 153 111 188 154 46 58 99 153 100 181 0
13 9 32 20 43 17 17 20 33 20 115 0 75 -3 95 -14 95 -15 0 -26 21 -26 48 0 8
-14 45 -32 81 -32 67 -148 194 -202 223 -105 56 -186 88 -221 88 -29 0 -55 34
-55 73 0 67 -96 242 -180 328 -31 32 -137 106 -190 133 -139 71 -316 105 -460
89z m239 -159 c31 -9 70 -23 88 -30 17 -8 34 -14 38 -14 17 0 123 -79 168
-125 85 -87 134 -191 144 -307 4 -49 9 -62 35 -83 16 -14 39 -25 50 -25 26 0
121 -26 173 -48 43 -17 137 -85 171 -123 12 -13 36 -51 54 -84 30 -56 33 -67
34 -160 1 -80 -3 -110 -19 -145 -54 -124 -162 -217 -309 -264 -44 -14 -152
-16 -911 -16 -827 0 -864 1 -918 19 -100 35 -183 105 -229 194 -30 58 -32 196
-3 253 26 52 130 154 186 181 25 12 56 34 69 48 l24 26 -27 75 c-25 73 -26 78
-10 123 18 54 34 74 88 110 37 24 48 26 140 25 55 -1 113 -6 128 -12 37 -16
78 5 101 50 10 18 24 46 33 61 26 50 132 154 191 189 63 37 112 58 187 81 71
21 252 22 324 1z"/>
</g>
</svg>
