<?xml version="1.0" standalone="no"?>
<!DOCTYPE svg PUBLIC "-//W3C//DTD SVG 20010904//EN"
 "http://www.w3.org/TR/2001/REC-SVG-20010904/DTD/svg10.dtd">
<svg version="1.0" xmlns="http://www.w3.org/2000/svg"
 width="193.000000pt" height="191.000000pt" viewBox="0 0 193.000000 191.000000"
 preserveAspectRatio="xMidYMid meet">
<metadata>
Created by potrace 1.10, written by Peter Selinger 2001-2011
</metadata>
<g transform="translate(0.000000,191.000000) scale(0.050000,-0.050000)"
fill="#000000" stroke="none">
<path d="M863 3549 c-46 -38 -77 -101 -132 -266 -68 -204 -75 -217 -142 -240
-105 -39 -129 -104 -129 -358 0 -280 58 -365 249 -365 39 0 71 -3 71 -7 0
-149 227 -1985 250 -2020 59 -90 89 -93 920 -93 831 0 861 3 920 93 23 35 250
1871 250 2020 0 4 32 7 71 7 190 0 249 86 249 364 0 253 -20 309 -127 357 -75
33 -80 43 -146 246 -53 163 -82 222 -129 262 l-61 51 -1027 0 -1027 0 -60 -51z
m2100 -323 c31 -86 56 -158 56 -161 1 -3 -481 -5 -1071 -5 -1013 0 -1071 2
-1058 35 8 19 31 85 52 145 21 61 42 119 46 130 4 13 340 18 963 16 l957 -5
55 -155z m267 -526 l0 -160 -1280 0 -1280 0 0 160 0 160 1280 0 1280 0 0 -160z
m-338 -540 l-19 -160 -923 0 -923 0 -19 160 -19 160 961 0 961 0 -19 -160z
m-38 -335 c-6 -41 -30 -259 -54 -485 -23 -225 -47 -430 -52 -455 l-9 -45 -789
0 -789 0 -9 45 c-5 25 -29 230 -52 455 -24 226 -48 444 -54 485 l-11 75 915 0
915 0 -11 -75z m-126 -1108 c-1 -4 -9 -74 -16 -157 l-14 -150 -747 0 -746 0
-19 156 c-10 85 -16 157 -14 160 8 7 1558 -2 1556 -9z"/>
</g>
</svg>
