<?xml version="1.0" standalone="no"?>
<!DOCTYPE svg PUBLIC "-//W3C//DTD SVG 20010904//EN"
 "http://www.w3.org/TR/2001/REC-SVG-20010904/DTD/svg10.dtd">
<svg version="1.0" xmlns="http://www.w3.org/2000/svg"
 width="209.000000pt" height="207.000000pt" viewBox="0 0 209.000000 207.000000"
 preserveAspectRatio="xMidYMid meet">
<metadata>
Created by potrace 1.10, written by Peter Selinger 2001-2011
</metadata>
<g transform="translate(0.000000,207.000000) scale(0.050000,-0.050000)"
fill="#000000" stroke="none">
<path d="M1880 3727 c-603 -60 -1060 -266 -1181 -534 -59 -129 -59 -2337 0
-2466 328 -724 2714 -724 3042 0 59 129 59 2337 0 2466 -168 371 -1024 616
-1861 534z m899 -256 c800 -144 1028 -530 460 -777 -705 -306 -2051 -188
-2313 204 -180 268 254 532 1004 610 154 16 682 -7 849 -37z m-1659 -983 c627
-287 1877 -238 2375 93 l65 43 0 -219 c0 -194 -5 -227 -45 -286 -335 -497
-2255 -497 -2590 0 -40 59 -45 92 -45 286 l0 219 65 -43 c36 -24 115 -66 175
-93z m172 -726 c668 -224 1711 -157 2153 138 l118 79 -6 -248 c-7 -245 -8
-249 -67 -312 -427 -452 -2099 -458 -2530 -10 l-70 73 -7 249 -6 248 118 -79
c64 -43 198 -105 297 -138z m-194 -591 c631 -319 1968 -263 2399 100 l63 53 0
-239 c0 -231 -2 -242 -57 -318 -345 -476 -2221 -476 -2566 1 -55 75 -57 86
-57 317 l0 239 63 -53 c34 -29 104 -74 155 -100z"/>
<path d="M3141 2247 c-52 -67 -52 -78 8 -138 69 -69 191 -23 191 72 0 107
-132 151 -199 66z"/>
<path d="M3130 1572 c-26 -39 -27 -57 -7 -100 44 -98 183 -85 209 19 28 112
-138 179 -202 81z"/>
<path d="M3152 934 c-42 -31 -49 -119 -12 -164 41 -49 134 -37 173 22 67 102
-61 215 -161 142z"/>
</g>
</svg>
