<?xml version="1.0" standalone="no"?>
<!DOCTYPE svg PUBLIC "-//W3C//DTD SVG 20010904//EN"
 "http://www.w3.org/TR/2001/REC-SVG-20010904/DTD/svg10.dtd">
<svg version="1.0" xmlns="http://www.w3.org/2000/svg"
 width="220.000000pt" height="158.000000pt" viewBox="0 0 220.000000 158.000000"
 preserveAspectRatio="xMidYMid meet">
<metadata>
Created by potrace 1.10, written by Peter Selinger 2001-2011
</metadata>
<g transform="translate(0.000000,158.000000) scale(0.050000,-0.050000)"
fill="#000000" stroke="none">
<path d="M1070 2977 c-62 -34 -669 -641 -701 -701 -31 -58 -37 -132 -15 -188
18 -47 1649 -1786 1729 -1843 80 -57 174 -57 254 0 80 57 1711 1796 1729 1843
22 56 16 130 -15 188 -34 65 -642 670 -705 702 -60 31 -2219 30 -2276 -1z
m590 -211 c0 -2 -42 -44 -94 -93 l-94 -89 -106 83 c-137 106 -139 103 94 103
110 0 200 -1 200 -4z m795 -9 c-7 -18 -230 -197 -245 -197 -15 0 -238 179
-245 197 -3 7 108 13 245 13 138 0 248 -6 245 -13z m705 3 c0 -6 -48 -48 -106
-93 l-106 -83 -94 89 c-52 49 -94 91 -94 93 0 3 90 4 200 4 110 0 200 -4 200
-10z m-1199 -154 c88 -73 153 -139 144 -146 -8 -6 -66 -55 -129 -107 l-114
-95 -152 125 -152 124 116 117 c138 139 97 142 287 -18z m785 18 l116 -117
-151 -124 -152 -124 -114 96 c-148 122 -149 114 20 259 176 150 144 149 281
10z m-1508 2 c62 -51 121 -101 131 -110 12 -10 -44 -81 -139 -176 l-159 -160
-250 0 -250 0 269 270 c148 149 273 270 278 270 4 0 58 -42 120 -94z m2330
-176 l276 -270 -247 0 -248 0 -159 160 -159 160 79 65 c43 36 102 85 130 109
27 25 50 45 51 45 0 1 125 -120 277 -269z m-1947 -144 c77 -63 139 -117 139
-120 0 -3 -119 -6 -264 -6 l-265 0 119 120 c142 144 105 143 271 6z m1449 -6
l119 -120 -268 0 c-147 0 -261 6 -253 14 38 39 263 224 273 225 5 1 64 -53
129 -119z m-618 -104 c6 -9 -105 -16 -245 -16 -286 0 -279 -9 -97 136 l99 80
117 -92 c64 -51 121 -99 126 -108z m-1519 -136 l162 0 116 -195 c64 -107 227
-378 364 -602 136 -224 245 -409 242 -412 -4 -3 -65 58 -135 137 -71 78 -325
351 -565 606 -451 479 -468 499 -392 479 25 -7 118 -13 208 -13z m867 7 c0
-25 285 -1398 292 -1410 6 -9 1 -17 -11 -17 -11 0 -21 8 -21 17 0 9 -184 325
-410 702 -225 377 -410 691 -410 698 0 7 126 13 280 13 154 0 280 -1 280 -3z
m700 1 c0 -1 -58 -294 -128 -650 -71 -357 -135 -684 -143 -728 l-15 -80 -16
60 c-9 33 -72 344 -140 690 -68 347 -127 648 -132 670 -8 39 2 40 283 40 160
0 291 -1 291 -2z m680 -11 c0 -7 -184 -321 -410 -698 -225 -377 -410 -693
-410 -702 0 -9 -10 -17 -21 -17 -12 0 -17 7 -12 16 8 12 156 725 274 1314 l20
100 279 0 c154 0 280 -6 280 -13z m560 12 c0 -6 -197 -220 -437 -475 -240
-255 -494 -528 -565 -606 -70 -79 -131 -140 -135 -137 -3 3 106 188 242 412
137 224 300 494 364 601 l115 195 183 6 c101 4 194 9 208 11 14 2 25 -1 25 -7z"/>
</g>
</svg>
