<?xml version="1.0" standalone="no"?>
<!DOCTYPE svg PUBLIC "-//W3C//DTD SVG 20010904//EN"
 "http://www.w3.org/TR/2001/REC-SVG-20010904/DTD/svg10.dtd">
<svg version="1.0" xmlns="http://www.w3.org/2000/svg"
 width="190.000000pt" height="177.000000pt" viewBox="0 0 190.000000 177.000000"
 preserveAspectRatio="xMidYMid meet">
<metadata>
Created by potrace 1.10, written by Peter Selinger 2001-2011
</metadata>
<g transform="translate(0.000000,177.000000) scale(0.100000,-0.100000)"
fill="#000000" stroke="none">
<path d="M225 1656 c-41 -18 -83 -69 -90 -109 -3 -18 -5 -269 -3 -559 3 -514
3 -527 24 -554 11 -15 33 -37 48 -48 26 -20 43 -21 307 -24 l279 -3 0 -29 c0
-17 -1 -30 -2 -30 -2 0 -70 -9 -152 -20 -81 -11 -154 -20 -162 -20 -7 0 -21
-11 -30 -25 -15 -23 -15 -27 0 -50 l16 -25 475 0 475 0 16 25 c15 23 15 27 0
50 -9 14 -23 25 -30 25 -8 0 -81 9 -162 20 -82 11 -150 20 -151 20 -2 0 -3 13
-3 30 l0 29 279 3 c264 3 281 4 307 24 15 11 37 33 48 48 21 27 21 38 21 581
0 543 0 554 -21 581 -11 15 -33 37 -48 48 -27 21 -38 21 -719 23 -560 2 -698
0 -722 -11z m1399 -102 c14 -14 16 -76 16 -536 0 -471 -2 -523 -17 -540 -15
-17 -50 -18 -686 -18 -610 0 -672 1 -689 17 -17 15 -18 45 -18 536 0 470 2
522 17 539 15 17 50 18 689 18 598 0 674 -2 688 -16z"/>
<path d="M350 1450 c-19 -19 -20 -33 -20 -383 0 -298 3 -367 14 -383 14 -18
32 -19 591 -19 559 0 577 1 591 19 11 16 14 85 14 383 0 350 -1 364 -20 383
-20 20 -33 20 -585 20 -552 0 -565 0 -585 -20z m1140 -385 l0 -355 -555 0
-555 0 0 355 0 355 555 0 555 0 0 -355z"/>
</g>
</svg>
