<?xml version="1.0" standalone="no"?>
<!DOCTYPE svg PUBLIC "-//W3C//DTD SVG 20010904//EN"
 "http://www.w3.org/TR/2001/REC-SVG-20010904/DTD/svg10.dtd">
<svg version="1.0" xmlns="http://www.w3.org/2000/svg"
 width="247.000000pt" height="165.000000pt" viewBox="0 0 247.000000 165.000000"
 preserveAspectRatio="xMidYMid meet">
<metadata>
Created by potrace 1.10, written by Peter Selinger 2001-2011
</metadata>
<g transform="translate(0.000000,165.000000) scale(0.050000,-0.050000)"
fill="#000000" stroke="none">
<path d="M2137 2980 c-663 -106 -1268 -481 -1619 -1006 -178 -267 -175 -302
61 -615 953 -1268 2886 -1223 3763 87 151 226 158 255 91 383 -399 757 -1452
1285 -2296 1151z m629 -270 c524 -91 1038 -414 1337 -838 118 -169 118 -155 0
-324 -804 -1143 -2542 -1143 -3346 0 -118 169 -118 155 0 324 442 628 1259
969 2009 838z"/>
<path d="M2274 2599 c-572 -96 -905 -739 -657 -1269 347 -742 1422 -669 1665
112 199 638 -350 1268 -1008 1157z m381 -156 c388 -121 620 -530 518 -913
-236 -881 -1505 -729 -1502 180 2 537 477 891 984 733z"/>
<path d="M2204 2168 c-173 -86 -292 -270 -280 -433 10 -135 94 -125 126 15 50
221 192 350 382 350 46 0 82 61 58 100 -24 38 -180 21 -286 -32z"/>
</g>
</svg>
