<?xml version="1.0" standalone="no"?>
<!DOCTYPE svg PUBLIC "-//W3C//DTD SVG 20010904//EN"
 "http://www.w3.org/TR/2001/REC-SVG-20010904/DTD/svg10.dtd">
<svg version="1.0" xmlns="http://www.w3.org/2000/svg"
 width="217.000000pt" height="268.000000pt" viewBox="0 0 217.000000 268.000000"
 preserveAspectRatio="xMidYMid meet">
<metadata>
Created by potrace 1.10, written by Peter Selinger 2001-2011
</metadata>
<g transform="translate(0.000000,268.000000) scale(0.100000,-0.100000)"
fill="#000000" stroke="none">
<path d="M454 2509 c22 -81 57 -281 67 -384 20 -211 1 -378 -89 -810 -84 -398
-81 -577 11 -765 33 -68 58 -102 127 -171 71 -71 101 -93 180 -131 146 -71
205 -83 405 -82 364 2 581 78 708 247 51 67 82 139 113 257 89 339 -11 744
-275 1114 l-56 78 -8 -33 c-26 -108 -45 -158 -83 -223 -63 -107 -70 -110 -77
-29 -16 167 -105 366 -238 533 l-43 55 -19 -95 c-20 -103 -67 -229 -112 -300
l-28 -45 -23 69 c-77 226 -259 487 -456 653 -106 89 -113 93 -104 62z m276
-484 c94 -156 162 -316 224 -533 l33 -113 91 138 c49 76 110 174 133 218 l43
79 13 -33 c31 -74 73 -413 73 -590 l0 -66 98 100 c85 86 175 197 233 285 l16
25 36 -70 c41 -83 91 -219 115 -319 27 -111 24 -345 -7 -456 -63 -234 -174
-321 -461 -365 -52 -8 -152 -15 -221 -15 -217 0 -350 49 -475 174 -126 126
-160 228 -151 441 7 143 17 207 76 478 54 248 71 381 71 557 0 83 2 150 4 150
3 0 28 -38 56 -85z"/>
<path d="M745 1433 c-65 -183 -90 -306 -101 -509 -8 -151 -3 -176 34 -172 l27
3 7 115 c14 219 49 434 68 413 4 -4 45 -95 91 -201 96 -222 72 -216 186 -49
37 53 70 97 74 97 3 0 10 -23 13 -52 7 -52 63 -238 72 -238 2 0 33 14 67 31
93 47 215 131 281 194 l58 56 -4 -128 c-3 -91 -11 -152 -27 -211 -19 -66 -21
-85 -11 -97 44 -53 86 41 111 249 9 74 9 123 0 200 -19 165 -6 163 -145 23
-90 -91 -142 -134 -202 -170 -45 -26 -84 -47 -87 -47 -3 0 -15 37 -27 83 -16
57 -25 124 -29 219 l-6 137 -108 -170 c-60 -93 -112 -167 -117 -164 -10 6
-116 254 -160 375 -17 46 -33 86 -34 88 -2 1 -16 -32 -31 -75z"/>
</g>
</svg>
