<?xml version="1.0" standalone="no"?>
<!DOCTYPE svg PUBLIC "-//W3C//DTD SVG 20010904//EN"
 "http://www.w3.org/TR/2001/REC-SVG-20010904/DTD/svg10.dtd">
<svg version="1.0" xmlns="http://www.w3.org/2000/svg"
 width="189.000000pt" height="200.000000pt" viewBox="0 0 189.000000 200.000000"
 preserveAspectRatio="xMidYMid meet">
<metadata>
Created by potrace 1.10, written by Peter Selinger 2001-2011
</metadata>
<g transform="translate(0.000000,200.000000) scale(0.050000,-0.050000)"
fill="#000000" stroke="none">
<path d="M1885 3595 c2 -96 -11 -155 -53 -252 -94 -219 -90 -403 9 -403 42 0
44 6 39 142 -2 60 16 137 50 220 92 223 87 418 -9 418 -34 0 -38 -15 -36 -125z"/>
<path d="M2423 3253 c-17 -19 -18 -44 -5 -78 23 -60 6 -142 -65 -319 -58 -145
-68 -287 -26 -345 51 -70 89 -25 88 103 -2 84 13 152 53 246 99 237 66 527
-45 393z"/>
<path d="M1153 3246 c-7 -7 -8 -54 -1 -105 9 -74 0 -120 -53 -251 -76 -187
-90 -348 -35 -403 56 -55 92 -7 81 108 -7 74 5 130 53 251 95 239 65 510 -45
400z"/>
<path d="M1730 2459 c-440 -58 -843 -421 -951 -854 l-21 -85 -188 0 c-182 0
-191 -2 -259 -62 -152 -133 -128 -228 129 -518 175 -197 200 -234 200 -298 0
-90 60 -191 138 -231 90 -47 2134 -47 2224 0 78 40 138 141 138 231 0 64 25
101 200 298 252 284 278 378 139 511 -58 56 -74 60 -265 69 -299 15 -295 52
19 200 341 160 402 230 274 314 -52 34 -55 33 -304 -95 -139 -71 -257 -131
-263 -133 -5 -3 -40 48 -77 112 -217 379 -683 601 -1133 541z m416 -129 c244
-63 448 -206 594 -414 115 -164 115 -163 54 -191 -42 -19 -51 -12 -100 75
-386 687 -1472 562 -1695 -195 -22 -75 -32 -85 -84 -85 -64 0 -64 -1 4 182
179 476 729 758 1227 628z m41 -230 c220 -83 522 -395 440 -455 -54 -39 -80
-30 -107 36 -209 503 -1057 470 -1282 -49 -52 -121 -181 -179 -147 -67 137
452 650 702 1096 535z m-82 -192 c181 -61 400 -306 325 -361 -52 -37 -52 -37
-120 69 -190 296 -650 296 -840 0 -47 -74 -72 -94 -115 -95 -69 -1 -69 10 2
121 161 254 466 363 748 266z m-55 -206 c80 -36 190 -132 190 -165 0 -32 -104
-17 -154 23 -114 90 -278 90 -392 0 -50 -40 -154 -55 -154 -23 0 73 224 202
350 202 44 0 116 -16 160 -37z m1300 -402 c7 -11 -82 -127 -199 -258 -201
-225 -211 -241 -211 -325 0 -145 59 -137 -1050 -137 -1109 0 -1050 -8 -1050
137 0 84 -10 100 -211 325 -117 131 -206 247 -199 258 17 28 2903 28 2920 0z"/>
</g>
</svg>
