<?xml version="1.0" standalone="no"?>
<!DOCTYPE svg PUBLIC "-//W3C//DTD SVG 20010904//EN"
 "http://www.w3.org/TR/2001/REC-SVG-20010904/DTD/svg10.dtd">
<svg version="1.0" xmlns="http://www.w3.org/2000/svg"
 width="147.000000pt" height="147.000000pt" viewBox="0 0 147.000000 147.000000"
 preserveAspectRatio="xMidYMid meet">
<metadata>
Created by potrace 1.10, written by Peter Selinger 2001-2011
</metadata>
<g transform="translate(0.000000,147.000000) scale(0.100000,-0.100000)"
fill="#000000" stroke="none">
<path d="M855 1320 c-114 -38 -213 -139 -250 -255 -13 -44 -16 -77 -12 -143 3
-48 8 -97 12 -109 6 -18 -21 -50 -172 -205 -98 -101 -208 -215 -246 -255 l-67
-71 0 -86 c0 -79 2 -89 25 -111 22 -23 32 -25 108 -25 l83 0 39 40 c37 37 43
40 96 40 46 0 63 5 85 23 24 21 27 30 25 80 l-1 57 56 0 c45 0 59 4 79 25 21
20 25 34 25 87 0 63 1 64 49 112 45 45 50 47 72 35 15 -9 58 -14 114 -14 77 0
98 4 148 27 258 121 316 464 110 659 -104 99 -248 133 -378 89z m250 -93 c59
-30 114 -85 146 -147 20 -38 24 -60 24 -140 0 -84 -3 -101 -27 -145 -75 -142
-229 -206 -373 -157 l-60 21 -74 -74 -75 -74 -4 -66 -4 -65 -50 0 c-71 0 -98
-29 -98 -105 l0 -55 -60 0 c-57 0 -63 -3 -104 -40 -39 -36 -49 -40 -95 -40
l-51 0 0 58 0 58 251 259 c206 213 249 263 244 280 -44 135 -42 194 6 292 73
151 258 215 404 140z"/>
<path d="M969 1157 c-40 -27 -79 -91 -71 -119 8 -30 157 -178 180 -178 31 0
85 42 109 85 20 36 21 41 6 69 -22 43 -149 166 -171 166 -11 0 -34 -10 -53
-23z m130 -93 l72 -75 -19 -31 c-11 -17 -32 -38 -47 -47 l-26 -16 -75 78 -76
78 18 27 c21 32 54 61 70 62 6 0 44 -34 83 -76z"/>
</g>
</svg>
