<?xml version="1.0" standalone="no"?>
<!DOCTYPE svg PUBLIC "-//W3C//DTD SVG 20010904//EN"
 "http://www.w3.org/TR/2001/REC-SVG-20010904/DTD/svg10.dtd">
<svg version="1.0" xmlns="http://www.w3.org/2000/svg"
 width="227.000000pt" height="219.000000pt" viewBox="0 0 227.000000 219.000000"
 preserveAspectRatio="xMidYMid meet">
<metadata>
Created by potrace 1.10, written by Peter Selinger 2001-2011
</metadata>
<g transform="translate(0.000000,219.000000) scale(0.100000,-0.100000)"
fill="#000000" stroke="none">
<path d="M1845 2026 c-162 -72 -81 -314 92 -276 48 11 99 66 109 115 11 61
-21 125 -76 153 -50 25 -82 27 -125 8z m119 -72 c37 -38 36 -86 -4 -126 -27
-26 -36 -30 -67 -25 -20 4 -45 15 -55 25 -10 10 -21 35 -25 55 -5 31 -1 40 25
67 40 40 88 41 126 4z"/>
<path d="M1205 1841 c-16 -10 -58 -47 -92 -83 -68 -71 -84 -113 -64 -170 6
-17 8 -35 4 -38 -5 -4 -190 -80 -413 -170 -223 -89 -416 -172 -429 -184 -30
-27 -61 -92 -61 -131 0 -69 31 -104 431 -499 397 -393 436 -426 504 -426 45 0
109 34 137 71 14 19 96 213 182 432 87 218 160 397 164 397 4 0 24 -5 46 -11
59 -16 110 8 189 90 47 48 67 78 72 103 15 79 9 87 -259 357 -138 139 -265
259 -283 267 -44 19 -92 17 -128 -5z m319 -340 c196 -196 237 -242 232 -259
-8 -24 -90 -102 -108 -102 -7 0 -38 25 -69 56 l-56 56 -38 -96 -38 -95 -61 48
c-128 100 -215 133 -446 167 -90 14 -166 26 -167 28 -2 2 105 47 239 101 134
53 245 99 247 101 3 3 -19 28 -47 57 -29 29 -52 59 -52 67 0 19 90 110 110
110 8 0 122 -107 254 -239z m-801 -246 c29 -8 106 -21 172 -30 256 -33 352
-70 489 -188 l39 -34 -143 -357 c-78 -196 -149 -364 -157 -372 -38 -38 -51
-28 -451 367 -213 210 -391 390 -396 401 -6 12 -6 29 0 45 8 23 35 37 199 104
105 42 192 78 193 78 2 1 27 -6 55 -14z"/>
<path d="M693 1135 c-17 -7 -39 -27 -47 -44 -66 -127 90 -242 184 -135 51 59
34 146 -36 179 -39 18 -59 18 -101 0z m89 -62 c36 -32 11 -103 -36 -103 -27 0
-40 9 -55 37 -15 30 -14 40 9 63 24 24 57 26 82 3z"/>
<path d="M1063 1069 c-117 -58 -99 -235 27 -267 145 -37 249 139 143 240 -54
51 -105 59 -170 27z m128 -68 c20 -20 29 -39 29 -61 0 -43 -47 -90 -90 -90
-43 0 -90 47 -90 90 0 22 9 41 29 61 40 39 82 39 122 0z"/>
<path d="M873 704 c-15 -24 -15 -29 -2 -53 28 -49 109 -32 109 24 0 54 -77 75
-107 29z"/>
<path d="M1823 1594 c-15 -24 -15 -29 -2 -53 28 -49 109 -32 109 24 0 54 -77
75 -107 29z"/>
</g>
</svg>
