<?xml version="1.0" standalone="no"?>
<!DOCTYPE svg PUBLIC "-//W3C//DTD SVG 20010904//EN"
 "http://www.w3.org/TR/2001/REC-SVG-20010904/DTD/svg10.dtd">
<svg version="1.0" xmlns="http://www.w3.org/2000/svg"
 width="228.000000pt" height="217.000000pt" viewBox="0 0 228.000000 217.000000"
 preserveAspectRatio="xMidYMid meet">
<metadata>
Created by potrace 1.10, written by Peter Selinger 2001-2011
</metadata>
<g transform="translate(0.000000,217.000000) scale(0.100000,-0.100000)"
fill="#000000" stroke="none">
<path d="M1142 2110 c-67 -35 -102 -100 -102 -189 0 -161 -97 -324 -236 -398
l-59 -31 -35 18 c-29 16 -58 19 -174 20 -157 0 -191 -11 -236 -77 l-25 -37 -3
-510 c-3 -533 -2 -558 40 -611 39 -50 89 -65 223 -65 137 0 184 15 227 70 l25
32 154 -36 c251 -58 281 -61 584 -61 271 0 281 1 322 22 72 39 127 136 122
214 -2 28 4 45 29 75 49 59 74 136 71 214 -3 56 1 71 24 112 16 25 32 61 37
80 13 44 13 121 -1 151 -9 20 -7 32 11 66 63 124 20 266 -96 321 -55 25 -200
39 -411 40 l-131 0 5 118 c6 136 -5 205 -48 291 -33 67 -99 140 -148 166 -54
27 -120 29 -169 5z m159 -149 c68 -71 89 -134 89 -270 0 -84 -5 -127 -23 -188
l-23 -80 295 -6 c165 -3 312 -11 333 -17 52 -15 78 -52 78 -111 0 -36 -6 -55
-24 -76 -23 -27 -30 -28 -128 -33 -102 -5 -103 -5 -103 -30 0 -24 2 -25 92
-30 69 -4 96 -9 111 -23 42 -38 34 -122 -18 -180 -28 -31 -30 -32 -137 -37
-100 -5 -108 -6 -111 -26 -3 -20 2 -21 86 -26 100 -6 129 -17 138 -55 9 -35
-20 -124 -51 -153 -27 -25 -87 -38 -183 -39 -49 -1 -53 -3 -50 -23 3 -21 10
-23 74 -28 91 -6 108 -19 101 -79 -4 -34 -13 -52 -36 -73 l-31 -28 -246 0
c-171 0 -278 5 -348 15 -129 20 -414 89 -429 104 -9 9 -13 126 -15 438 -2 354
0 429 12 447 7 12 49 39 92 60 180 89 290 263 310 491 8 80 24 105 67 105 24
0 42 -11 78 -49z m-632 -567 c21 -26 21 -36 21 -515 0 -586 16 -529 -152 -529
-90 0 -115 3 -130 17 -17 15 -18 44 -18 519 l0 503 22 15 c17 12 49 16 129 16
104 0 108 -1 128 -26z"/>
<path d="M475 555 c-35 -34 -33 -78 4 -116 58 -57 141 -23 141 59 0 76 -91
112 -145 57z m85 -40 c17 -20 5 -45 -20 -45 -23 0 -35 22 -26 45 7 19 30 19
46 0z"/>
</g>
</svg>
