<?xml version="1.0" standalone="no"?>
<!DOCTYPE svg PUBLIC "-//W3C//DTD SVG 20010904//EN"
 "http://www.w3.org/TR/2001/REC-SVG-20010904/DTD/svg10.dtd">
<svg version="1.0" xmlns="http://www.w3.org/2000/svg"
 width="126.000000pt" height="161.000000pt" viewBox="0 0 126.000000 161.000000"
 preserveAspectRatio="xMidYMid meet">
<metadata>
Created by potrace 1.10, written by Peter Selinger 2001-2011
</metadata>
<g transform="translate(0.000000,161.000000) scale(0.050000,-0.050000)"
fill="#000000" stroke="none">
<path d="M972 2998 c-375 -129 -536 -373 -552 -837 l-10 -289 -66 -14 c-177
-36 -204 -115 -204 -595 0 -639 122 -888 515 -1047 176 -70 954 -70 1130 0
393 159 515 408 515 1047 0 480 -27 559 -204 595 l-66 14 6 149 c28 714 -478
1179 -1064 977z m522 -205 c266 -135 365 -344 366 -769 l0 -166 -95 6 -95 6 6
190 c13 388 -158 620 -456 620 -298 0 -469 -233 -456 -620 l6 -190 -90 0 -90
0 7 260 c6 218 14 276 52 360 144 317 539 459 845 303z m-118 -241 c152 -79
204 -202 204 -481 l0 -211 -360 0 -360 0 0 211 c0 407 236 627 516 481z m717
-895 c61 -50 30 -821 -39 -960 -142 -290 -279 -347 -834 -347 -558 0 -707 65
-847 368 -64 137 -78 902 -17 945 53 37 1692 32 1737 -6z"/>
<path d="M1147 1311 c-116 -50 -131 -128 -66 -339 28 -90 56 -143 90 -164 78
-52 138 1 188 164 66 213 50 290 -70 340 -80 33 -64 33 -142 -1z"/>
</g>
</svg>
