<?xml version="1.0" standalone="no"?>
<!DOCTYPE svg PUBLIC "-//W3C//DTD SVG 20010904//EN"
 "http://www.w3.org/TR/2001/REC-SVG-20010904/DTD/svg10.dtd">
<svg version="1.0" xmlns="http://www.w3.org/2000/svg"
 width="240.000000pt" height="164.000000pt" viewBox="0 0 240.000000 164.000000"
 preserveAspectRatio="xMidYMid meet">
<metadata>
Created by potrace 1.10, written by Peter Selinger 2001-2011
</metadata>
<g transform="translate(0.000000,164.000000) scale(0.050000,-0.050000)"
fill="#000000" stroke="none">
<path d="M627 3018 c-118 -34 -251 -143 -315 -258 l-62 -110 0 -1020 0 -1020
62 -110 c67 -120 198 -224 324 -259 101 -28 3407 -28 3508 0 126 35 257 139
324 259 l62 110 0 1020 0 1020 -62 110 c-67 120 -198 224 -324 259 -94 26
-3427 25 -3517 -1z m3473 -270 c85 -34 146 -104 166 -189 12 -47 -46 -95 -880
-720 l-893 -669 -103 0 -103 0 -893 669 c-835 626 -892 673 -880 720 21 86 71
145 155 183 117 54 3299 59 3431 6z m-3119 -766 c225 -169 421 -318 435 -332
25 -23 -123 -142 -881 -706 -33 -25 -35 10 -35 686 0 679 2 711 36 686 19 -14
219 -164 445 -334z m3294 -710 l-5 -346 -455 342 c-251 188 -458 349 -460 358
-3 9 202 172 455 362 l460 347 5 -359 c3 -197 3 -514 0 -704z m-2378 21 c478
-361 509 -361 983 -2 158 121 300 226 315 236 53 32 1086 -765 1071 -826 -17
-72 -60 -132 -122 -175 -79 -53 -3321 -67 -3459 -15 -92 35 -159 111 -169 194
-6 53 1002 845 1054 827 11 -4 158 -111 327 -239z"/>
</g>
</svg>
