<?xml version="1.0" standalone="no"?>
<!DOCTYPE svg PUBLIC "-//W3C//DTD SVG 20010904//EN"
 "http://www.w3.org/TR/2001/REC-SVG-20010904/DTD/svg10.dtd">
<svg version="1.0" xmlns="http://www.w3.org/2000/svg"
 width="229.000000pt" height="220.000000pt" viewBox="0 0 229.000000 220.000000"
 preserveAspectRatio="xMidYMid meet">
<metadata>
Created by potrace 1.10, written by Peter Selinger 2001-2011
</metadata>
<g transform="translate(0.000000,220.000000) scale(0.050000,-0.050000)"
fill="#000000" stroke="none">
<path d="M3140 4026 c-125 -45 -287 -217 -420 -444 -142 -242 -310 -415 -491
-504 l-138 -68 -682 -10 -682 -10 -85 -56 c-410 -272 -250 -1090 214 -1094
226 -1 244 -58 244 -760 0 -787 -17 -760 479 -760 l302 0 73 67 c118 108 117
353 -3 452 -58 49 -45 931 15 970 156 102 539 -177 765 -559 612 -1032 1478
-210 1402 1330 -50 1016 -476 1636 -993 1446z m354 -264 c437 -317 551 -1743
193 -2424 -272 -519 -657 -374 -855 322 l-48 170 213 11 c379 18 549 197 552
581 3 380 -169 564 -539 575 l-226 6 47 174 c146 529 414 766 663 585z m-958
-874 c-31 -157 -31 -787 0 -926 32 -137 28 -139 -92 -53 -123 89 -277 143
-457 161 -270 28 -385 298 -244 575 47 94 113 127 277 140 160 13 329 75 443
164 106 81 102 84 73 -61z m-860 -123 c-140 -273 -141 -456 -2 -685 17 -28
-866 4 -911 33 -162 105 -165 478 -4 613 l64 54 430 0 c237 0 427 -7 423 -15z
m1514 -28 c160 -126 172 -491 20 -617 -63 -53 -445 -61 -459 -10 -15 55 -14
599 1 638 21 55 366 45 438 -11z m-1500 -1414 l0 -516 55 -80 c30 -43 55 -101
55 -128 l0 -49 -231 4 -231 4 1 536 c2 426 -4 557 -28 636 -17 55 -31 102 -31
105 0 3 92 5 205 5 l205 0 0 -517z"/>
</g>
</svg>
