<?xml version="1.0" standalone="no"?>
<!DOCTYPE svg PUBLIC "-//W3C//DTD SVG 20010904//EN"
 "http://www.w3.org/TR/2001/REC-SVG-20010904/DTD/svg10.dtd">
<svg version="1.0" xmlns="http://www.w3.org/2000/svg"
 width="204.000000pt" height="182.000000pt" viewBox="0 0 204.000000 182.000000"
 preserveAspectRatio="xMidYMid meet">
<metadata>
Created by potrace 1.10, written by Peter Selinger 2001-2011
</metadata>
<g transform="translate(0.000000,182.000000) scale(0.050000,-0.050000)"
fill="#000000" stroke="none">
<path d="M2490 3239 c-873 -156 -880 -158 -935 -219 l-55 -61 0 -906 0 -907
-100 50 c-405 200 -976 -90 -1015 -515 -47 -522 723 -735 1142 -315 168 168
162 130 169 1129 3 487 8 885 12 885 3 0 365 64 804 141 439 78 827 147 863
153 l65 11 0 -621 0 -621 -94 52 c-327 183 -876 -22 -995 -371 -207 -609 676
-935 1138 -420 155 171 151 137 151 1422 l0 1138 -68 68 c-89 89 -40 93 -1082
-93z m950 -194 l0 -155 -845 -148 c-465 -81 -856 -152 -870 -157 -19 -7 -25
31 -25 148 l0 158 835 147 c459 81 839 150 843 154 44 40 62 -3 62 -147z
m-170 -1736 c104 -53 179 -192 159 -296 -80 -430 -910 -488 -909 -63 1 296
451 511 750 359z m-1933 -308 c354 -180 89 -649 -367 -650 -117 -1 -155 8
-232 53 -434 255 144 830 599 597z"/>
</g>
</svg>
