<?xml version="1.0" standalone="no"?>
<!DOCTYPE svg PUBLIC "-//W3C//DTD SVG 20010904//EN"
 "http://www.w3.org/TR/2001/REC-SVG-20010904/DTD/svg10.dtd">
<svg version="1.0" xmlns="http://www.w3.org/2000/svg"
 width="624.000000pt" height="615.000000pt" viewBox="0 0 624.000000 615.000000"
 preserveAspectRatio="xMidYMid meet">
<metadata>
Created by potrace 1.10, written by Peter Selinger 2001-2011
</metadata>
<g transform="translate(0.000000,615.000000) scale(0.100000,-0.100000)"
fill="#000000" stroke="none">
<path d="M1445 5760 c-38 -9 -95 -30 -125 -46 -66 -35 -167 -135 -196 -195
-58 -119 -57 -111 -62 -351 -5 -264 10 -238 -144 -238 -166 0 -283 -44 -382
-144 -72 -72 -116 -153 -140 -256 -15 -70 -16 -203 -14 -1825 3 -1667 4 -1753
21 -1815 11 -36 23 -69 28 -75 5 -5 9 -16 9 -25 0 -29 98 -166 159 -223 63
-58 168 -127 194 -127 9 0 18 -4 21 -9 3 -5 41 -17 83 -27 75 -18 161 -19
2183 -19 2022 0 2108 1 2183 19 42 10 80 22 83 27 3 5 12 9 21 9 26 0 131 69
194 127 62 58 159 194 159 224 0 10 4 20 9 23 5 3 17 41 27 83 18 75 19 163
19 2263 0 2309 2 2202 -43 2315 -41 102 -152 213 -257 258 -116 49 -24 47
-2060 46 -1795 -1 -1904 -2 -1970 -19z m3892 -328 c49 -22 65 -37 92 -90 l21
-41 0 -2144 c0 -1965 -1 -2148 -17 -2193 -38 -114 -123 -199 -237 -237 -45
-16 -222 -17 -2116 -17 -1894 0 -2071 1 -2116 17 -114 38 -199 123 -237 237
-16 45 -17 198 -17 1773 0 1675 1 1725 19 1761 26 51 57 77 114 96 54 18 168
21 198 6 19 -11 19 -40 19 -1698 0 -928 4 -1704 9 -1724 25 -109 181 -153 261
-75 18 17 37 43 44 57 8 18 12 579 16 2101 l5 2076 28 36 c15 21 45 46 65 57
36 19 72 19 1923 20 1783 0 1889 -1 1926 -18z"/>
<path d="M1854 5091 c-48 -12 -81 -42 -104 -93 -19 -45 -20 -64 -20 -655 0
-689 -3 -662 81 -722 l42 -31 637 0 637 0 42 31 c79 56 76 30 79 694 2 426 0
606 -9 647 -14 67 -56 115 -115 129 -46 10 -1225 10 -1270 0z m1051 -746 l0
-420 -420 0 -420 0 -3 410 c-1 225 0 416 3 423 3 10 93 12 422 10 l418 -3 0
-420z"/>
<path d="M3611 4734 c-28 -35 -27 -75 2 -102 l23 -22 710 0 c390 0 714 4 721
8 19 12 34 61 27 88 -14 56 12 54 -755 54 l-708 0 -20 -26z"/>
<path d="M3612 4227 c-29 -31 -29 -77 1 -105 l23 -22 711 0 c664 0 711 1 725
18 9 9 19 27 22 38 7 24 -9 74 -27 86 -7 4 -332 8 -723 8 l-711 0 -21 -23z"/>
<path d="M3650 3743 c-60 -22 -77 -85 -35 -128 l26 -25 702 0 c664 0 703 1
726 19 30 23 35 91 8 118 -17 17 -63 18 -715 20 -383 1 -704 -1 -712 -4z"/>
<path d="M1779 3233 c-18 -4 -49 -54 -49 -77 0 -9 14 -30 30 -46 l31 -30 1624
0 1624 0 27 24 c37 31 39 90 5 117 -22 18 -75 19 -1650 18 -894 -1 -1633 -3
-1642 -6z"/>
<path d="M1778 2724 c-53 -28 -61 -68 -22 -113 l26 -31 1630 0 c1129 0 1635 3
1649 11 47 25 46 110 -2 134 -43 23 -3240 22 -3281 -1z"/>
<path d="M1756 2199 c-34 -40 -33 -64 3 -100 l29 -29 700 0 699 0 27 25 c34
32 35 77 1 110 l-24 25 -705 0 -704 0 -26 -31z"/>
<path d="M3617 2205 c-37 -35 -36 -75 4 -109 l31 -26 696 0 c670 0 698 1 722
19 19 15 25 29 25 61 0 32 -6 46 -25 61 -24 18 -52 19 -725 19 l-700 0 -28
-25z"/>
<path d="M1773 1708 c-18 -13 -35 -33 -38 -46 -8 -33 20 -78 56 -91 22 -8 237
-11 699 -11 721 0 730 1 744 52 11 42 6 59 -23 89 l-29 29 -689 0 -688 0 -32
-22z"/>
<path d="M3619 1701 c-44 -45 -36 -97 21 -126 25 -13 121 -15 701 -15 497 0
681 3 706 12 59 22 66 104 11 142 -20 14 -96 16 -716 16 l-694 0 -29 -29z"/>
<path d="M1759 1191 c-35 -36 -37 -61 -5 -98 l24 -28 689 -3 c462 -2 700 0
724 8 55 15 67 82 24 125 l-24 25 -701 0 -702 0 -29 -29z"/>
<path d="M3617 1192 c-32 -33 -34 -68 -6 -102 l21 -25 714 0 c664 0 714 1 731
17 25 26 22 82 -7 113 l-23 25 -702 0 -701 0 -27 -28z"/>
</g>
</svg>
