<?xml version="1.0" standalone="no"?>
<!DOCTYPE svg PUBLIC "-//W3C//DTD SVG 20010904//EN"
 "http://www.w3.org/TR/2001/REC-SVG-20010904/DTD/svg10.dtd">
<svg version="1.0" xmlns="http://www.w3.org/2000/svg"
 width="645.000000pt" height="600.000000pt" viewBox="0 0 645.000000 600.000000"
 preserveAspectRatio="xMidYMid meet">
<metadata>
Created by potrace 1.10, written by Peter Selinger 2001-2011
</metadata>
<g transform="translate(0.000000,600.000000) scale(0.100000,-0.100000)"
fill="#000000" stroke="none">
<path d="M905 5650 c-16 -5 -46 -13 -65 -18 -34 -10 -79 -29 -130 -57 -32 -17
-136 -122 -155 -156 -38 -66 -48 -93 -75 -196 -6 -24 -10 -811 -10 -2158 0
-1347 4 -2134 10 -2157 27 -103 35 -125 75 -198 17 -32 122 -136 156 -155 66
-38 93 -48 197 -75 53 -14 4593 -13 4647 1 98 25 122 34 195 74 32 17 136 122
155 156 38 66 48 93 75 197 6 23 10 658 10 1718 0 1637 -1 1683 -19 1742 -11
34 -28 74 -37 89 -23 37 -1125 1143 -1139 1143 -6 0 -16 5 -23 12 -6 6 -28 18
-49 27 -34 14 -236 16 -1913 17 -1031 1 -1888 -2 -1905 -6z m3523 -342 c9 -9
12 -104 12 -368 0 -394 5 -442 60 -553 17 -36 54 -88 81 -116 53 -53 132 -111
153 -111 6 0 17 -5 23 -11 30 -30 129 -38 488 -39 198 0 370 -3 383 -6 l22 -6
0 -1561 c0 -1158 -3 -1570 -12 -1599 -13 -45 -64 -98 -110 -114 -47 -18 -4533
-19 -4590 -2 -45 13 -98 64 -114 110 -18 47 -19 4203 -2 4260 13 45 64 98 110
114 48 18 3479 19 3496 2z m701 -509 c276 -276 501 -505 501 -510 0 -18 -61
-21 -407 -17 l-358 4 -53 27 c-78 41 -134 97 -170 171 l-32 66 0 380 c0 231 4
380 9 380 6 0 235 -226 510 -501z"/>
<path d="M1241 4759 c-83 -59 -81 -41 -81 -655 0 -495 2 -545 18 -581 23 -53
49 -77 102 -97 41 -15 105 -16 675 -14 667 3 640 1 699 48 10 8 27 34 37 58
18 41 19 78 19 587 0 404 -3 551 -12 572 -19 45 -45 74 -83 94 -33 18 -68 19
-683 19 l-649 0 -42 -31z m1117 -311 c17 -17 17 -669 0 -686 -16 -16 -809 -17
-839 -2 -18 10 -19 25 -19 343 0 246 3 336 12 345 17 17 829 17 846 0z"/>
<path d="M3081 4581 c-12 -16 -21 -37 -21 -46 0 -9 9 -30 21 -46 l20 -29 474
0 474 0 20 29 c12 16 21 37 21 46 0 9 -9 30 -21 46 l-20 29 -474 0 -474 0 -20
-29z"/>
<path d="M3089 4071 c-33 -33 -37 -66 -11 -97 35 -43 43 -44 497 -44 454 0
462 1 497 44 26 31 22 64 -11 97 l-29 29 -457 0 -457 0 -29 -29z"/>
<path d="M3089 3549 c-16 -17 -29 -37 -29 -45 0 -28 24 -63 54 -79 28 -15 123
-16 1079 -13 l1049 3 29 33 c37 41 37 66 0 103 l-29 29 -1062 0 -1062 0 -29
-31z"/>
<path d="M1213 3050 c-31 -13 -56 -55 -49 -83 3 -12 15 -32 26 -45 l21 -22
2019 0 2019 0 21 22 c11 13 23 33 26 45 8 29 -19 71 -52 83 -33 13 -4000 12
-4031 0z"/>
<path d="M1186 2509 c-32 -38 -33 -60 -2 -96 l24 -28 2022 0 2022 0 24 28 c31
36 30 58 -2 96 l-26 31 -2018 0 -2018 0 -26 -31z"/>
<path d="M1189 1991 c-36 -36 -37 -60 -3 -100 l26 -31 2018 0 2018 0 26 31
c34 40 33 64 -3 100 l-29 29 -2012 0 -2012 0 -29 -29z"/>
<path d="M1189 1471 c-16 -16 -29 -39 -29 -51 0 -12 13 -35 29 -51 l29 -29
2012 0 2012 0 29 29 c16 16 29 39 29 51 0 12 -13 35 -29 51 l-29 29 -2012 0
-2012 0 -29 -29z"/>
</g>
</svg>
