<?xml version="1.0" standalone="no"?>
<!DOCTYPE svg PUBLIC "-//W3C//DTD SVG 20010904//EN"
 "http://www.w3.org/TR/2001/REC-SVG-20010904/DTD/svg10.dtd">
<svg version="1.0" xmlns="http://www.w3.org/2000/svg"
 width="188.000000pt" height="172.000000pt" viewBox="0 0 188.000000 172.000000"
 preserveAspectRatio="xMidYMid meet">
<metadata>
Created by potrace 1.10, written by Peter Selinger 2001-2011
</metadata>
<g transform="translate(0.000000,172.000000) scale(0.100000,-0.100000)"
fill="#000000" stroke="none">
<path d="M848 1167 c-406 -271 -740 -500 -743 -509 -13 -37 15 -54 209 -132
l195 -78 93 -160 c51 -89 101 -166 111 -172 26 -17 46 1 99 89 25 42 50 81 56
87 6 6 98 -26 251 -87 132 -54 248 -94 256 -91 8 3 19 16 25 28 5 13 64 351
130 752 114 687 120 730 104 747 -10 11 -24 19 -33 18 -9 0 -348 -222 -753
-492z m636 266 c-10 -16 -179 -280 -377 -588 -197 -308 -364 -565 -371 -572
-8 -10 -26 14 -76 101 -35 63 -64 116 -65 119 0 6 897 967 903 967 2 0 -4 -12
-14 -27z m-155 -80 c-45 -48 -761 -817 -765 -821 -3 -5 -286 109 -298 119 -7
6 1078 739 1094 739 2 0 -12 -17 -31 -37z m90 -550 c-50 -307 -95 -562 -99
-566 -4 -4 -98 28 -209 72 -111 45 -208 81 -216 81 -8 0 -15 3 -15 6 0 12 623
974 628 970 2 -3 -38 -256 -89 -563z"/>
</g>
</svg>
