<?xml version="1.0" standalone="no"?>
<!DOCTYPE svg PUBLIC "-//W3C//DTD SVG 20010904//EN"
 "http://www.w3.org/TR/2001/REC-SVG-20010904/DTD/svg10.dtd">
<svg version="1.0" xmlns="http://www.w3.org/2000/svg"
 width="197.000000pt" height="193.000000pt" viewBox="0 0 197.000000 193.000000"
 preserveAspectRatio="xMidYMid meet">
<metadata>
Created by potrace 1.10, written by Peter Selinger 2001-2011
</metadata>
<g transform="translate(0.000000,193.000000) scale(0.100000,-0.100000)"
fill="#000000" stroke="none">
<path d="M345 1786 c-70 -31 -95 -86 -95 -209 0 -76 -1 -80 -35 -120 -85 -99
-82 -239 6 -332 l28 -30 3 -407 c3 -393 4 -408 24 -434 70 -94 189 -96 252 -4
22 33 22 35 22 435 l0 402 26 24 c97 90 99 254 5 361 -30 35 -31 38 -31 130 0
82 -3 100 -22 128 -43 62 -118 85 -183 56z m86 -96 c16 -9 19 -22 19 -79 l0
-69 -50 0 -50 0 0 61 c0 83 29 114 81 87z m54 -270 c126 -78 68 -275 -82 -275
-88 0 -148 61 -148 150 0 65 22 100 86 133 50 26 93 23 144 -8z m-37 -750 l-3
-375 -27 -9 c-22 -8 -32 -6 -48 9 -19 18 -20 29 -20 384 l0 366 50 0 50 0 -2
-375z"/>
<path d="M892 1779 c-29 -15 -49 -34 -62 -60 -19 -36 -20 -61 -20 -433 l0
-394 -31 -33 c-43 -46 -60 -83 -66 -145 -8 -73 12 -135 58 -188 l39 -44 0 -91
c0 -116 19 -159 83 -190 54 -26 80 -26 134 0 64 31 83 74 83 190 l0 91 39 44
c46 53 66 115 58 188 -6 62 -23 99 -66 145 l-31 33 0 394 c0 373 -1 397 -20
433 -13 27 -33 46 -63 60 -55 26 -81 26 -135 0z m102 -95 c14 -13 16 -62 16
-382 l0 -367 -50 0 -50 0 0 367 c0 320 2 369 16 382 8 9 24 16 34 16 10 0 26
-7 34 -16z m36 -867 c137 -72 85 -281 -70 -281 -113 0 -186 123 -131 224 20
38 88 80 131 80 15 0 46 -10 70 -23z m-20 -442 c0 -67 -15 -95 -50 -95 -35 0
-50 28 -50 95 l0 63 50 0 50 0 0 -63z"/>
<path d="M1450 1782 c-64 -35 -80 -72 -80 -180 0 -92 -1 -95 -31 -130 -94
-107 -92 -271 5 -361 l26 -24 0 -402 c0 -400 0 -402 23 -435 62 -92 181 -90
251 4 20 26 21 41 24 434 l3 407 28 30 c88 92 91 233 8 330 -34 39 -35 43 -39
142 -3 83 -8 108 -24 130 -51 68 -130 90 -194 55z m102 -99 c14 -12 18 -31 18
-78 l0 -63 -50 0 -50 0 0 69 c0 54 4 70 18 78 25 15 43 13 64 -6z m24 -252
c104 -47 125 -175 40 -249 -63 -55 -141 -54 -200 1 -65 62 -67 160 -4 219 51
47 103 57 164 29z m-6 -752 c0 -355 -1 -366 -20 -384 -16 -15 -26 -17 -48 -9
l-27 9 -3 375 -2 375 50 0 50 0 0 -366z"/>
</g>
</svg>
