<?xml version="1.0" standalone="no"?>
<!DOCTYPE svg PUBLIC "-//W3C//DTD SVG 20010904//EN"
 "http://www.w3.org/TR/2001/REC-SVG-20010904/DTD/svg10.dtd">
<svg version="1.0" xmlns="http://www.w3.org/2000/svg"
 width="159.000000pt" height="161.000000pt" viewBox="0 0 159.000000 161.000000"
 preserveAspectRatio="xMidYMid meet">
<metadata>
Created by potrace 1.10, written by Peter Selinger 2001-2011
</metadata>
<g transform="translate(0.000000,161.000000) scale(0.100000,-0.100000)"
fill="#000000" stroke="none">
<path d="M1083 1470 c-17 -4 -51 -19 -76 -33 -40 -24 -680 -663 -712 -712 -16
-23 -125 -412 -125 -444 0 -12 9 -40 20 -61 21 -41 80 -80 121 -80 23 0 386
94 430 111 14 5 181 166 372 357 367 368 381 386 394 490 7 64 -18 152 -64
220 -80 118 -233 183 -360 152z m181 -102 c56 -28 103 -74 132 -130 52 -103
41 -181 -39 -265 l-51 -54 -11 53 c-29 146 -145 262 -293 293 l-52 11 48 47
c27 27 67 55 88 63 49 18 122 10 178 -18z m-270 -186 c3 -5 -82 -95 -188 -201
l-193 -192 -62 12 -62 13 168 169 c102 102 184 177 208 188 41 19 120 26 129
11z m116 -54 c23 -18 50 -47 61 -63 l18 -31 -199 -199 -199 -199 -44 50 c-25
27 -57 56 -71 64 l-27 14 198 198 c109 109 203 198 210 198 6 0 30 -15 53 -32z
m109 -211 c2 -70 -24 -106 -201 -284 l-172 -172 -17 67 -17 67 196 197 c209
211 210 211 211 125z m-621 -216 c97 -50 156 -140 157 -241 0 -95 -23 -130
-101 -151 -121 -32 -111 -33 -119 9 -16 89 -101 175 -186 188 l-36 6 21 77
c12 42 26 84 32 94 28 48 154 58 232 18z m-213 -250 c23 -10 53 -32 68 -50 29
-34 53 -101 45 -123 -3 -7 -47 -23 -97 -36 -98 -24 -120 -21 -141 18 -11 20
-9 34 26 158 18 60 31 64 99 33z"/>
</g>
</svg>
