<?xml version="1.0" standalone="no"?>
<!DOCTYPE svg PUBLIC "-//W3C//DTD SVG 20010904//EN"
 "http://www.w3.org/TR/2001/REC-SVG-20010904/DTD/svg10.dtd">
<svg version="1.0" xmlns="http://www.w3.org/2000/svg"
 width="145.000000pt" height="209.000000pt" viewBox="0 0 145.000000 209.000000"
 preserveAspectRatio="xMidYMid meet">
<metadata>
Created by potrace 1.10, written by Peter Selinger 2001-2011
</metadata>
<g transform="translate(0.000000,209.000000) scale(0.100000,-0.100000)"
fill="#000000" stroke="none">
<path d="M216 1940 c-41 -13 -94 -68 -106 -110 -13 -47 -13 -1543 0 -1589 13
-46 65 -99 110 -111 47 -13 973 -13 1020 0 45 12 97 65 110 111 13 46 13 1542
0 1589 -12 45 -65 97 -111 110 -42 12 -982 12 -1023 0z m1010 -125 c22 -22 25
-32 22 -88 l-3 -62 -515 0 -515 0 -3 62 c-3 56 0 66 22 88 l25 25 471 0 471 0
25 -25z m19 -780 l0 -570 -515 0 -515 0 -3 560 c-1 308 0 566 3 573 3 10 112
12 517 10 l513 -3 0 -570z m3 -692 c3 -56 0 -66 -22 -88 l-25 -25 -471 0 -471
0 -24 25 c-21 20 -25 34 -25 83 0 32 3 62 7 65 3 4 236 6 517 5 l511 -3 3 -62z"/>
<path d="M624 1765 c-3 -8 -3 -22 0 -30 5 -13 23 -15 108 -13 102 3 103 3 103
28 0 25 -1 25 -103 28 -85 2 -103 0 -108 -13z"/>
<path d="M680 335 c-19 -23 5 -45 50 -45 21 0 43 7 50 15 19 23 -5 45 -50 45
-21 0 -43 -7 -50 -15z"/>
</g>
</svg>
