<?xml version="1.0" standalone="no"?>
<!DOCTYPE svg PUBLIC "-//W3C//DTD SVG 20010904//EN"
 "http://www.w3.org/TR/2001/REC-SVG-20010904/DTD/svg10.dtd">
<svg version="1.0" xmlns="http://www.w3.org/2000/svg"
 width="167.000000pt" height="174.000000pt" viewBox="0 0 167.000000 174.000000"
 preserveAspectRatio="xMidYMid meet">
<metadata>
Created by potrace 1.10, written by Peter Selinger 2001-2011
</metadata>
<g transform="translate(0.000000,174.000000) scale(0.100000,-0.100000)"
fill="#000000" stroke="none">
<path d="M315 1591 c-48 -22 -69 -44 -90 -94 -13 -31 -15 -113 -15 -579 0
-505 2 -546 19 -583 22 -48 44 -69 94 -90 31 -13 109 -15 539 -15 467 0 506 2
543 19 48 22 69 44 90 94 23 55 23 1099 0 1154 -21 50 -42 72 -90 94 -37 17
-76 19 -545 19 -469 0 -508 -2 -545 -19z m1079 -90 l26 -24 0 -557 0 -557 -26
-24 -26 -24 -508 0 -508 0 -26 24 -26 24 0 557 0 557 23 20 c12 12 31 23 42
26 11 3 241 4 512 4 l491 -2 26 -24z"/>
<path d="M400 1420 c-19 -19 -20 -33 -20 -411 0 -250 4 -397 10 -410 10 -18
26 -19 470 -19 444 0 460 1 470 19 6 13 10 160 10 410 0 378 -1 392 -20 411
-19 19 -33 20 -460 20 -427 0 -441 -1 -460 -20z m890 -320 l0 -300 -76 80
c-42 44 -85 80 -95 80 -9 0 -46 -31 -81 -70 l-64 -70 -177 200 c-114 129 -184
200 -196 200 -12 0 -50 -34 -95 -85 l-76 -85 0 175 0 175 430 0 430 0 0 -300z
m-467 -172 c118 -134 227 -258 242 -275 l27 -33 -331 0 -331 0 0 183 0 182 81
93 c44 50 84 92 89 92 5 0 105 -109 223 -242z m385 -102 l82 -90 0 -58 0 -58
-72 1 -73 1 -69 80 c-63 74 -68 82 -56 102 18 29 94 114 101 112 3 0 42 -41
87 -90z"/>
<path d="M985 1296 c-88 -39 -105 -144 -36 -210 79 -76 210 -17 211 94 0 39
-29 93 -57 108 -34 19 -87 22 -118 8z m113 -62 c31 -36 29 -79 -7 -115 -33
-32 -58 -36 -100 -14 -65 33 -53 131 19 158 26 10 64 -3 88 -29z"/>
</g>
</svg>
