<?xml version="1.0" standalone="no"?>
<!DOCTYPE svg PUBLIC "-//W3C//DTD SVG 20010904//EN"
 "http://www.w3.org/TR/2001/REC-SVG-20010904/DTD/svg10.dtd">
<svg version="1.0" xmlns="http://www.w3.org/2000/svg"
 width="183.000000pt" height="170.000000pt" viewBox="0 0 183.000000 170.000000"
 preserveAspectRatio="xMidYMid meet">
<metadata>
Created by potrace 1.10, written by Peter Selinger 2001-2011
</metadata>
<g transform="translate(0.000000,170.000000) scale(0.100000,-0.100000)"
fill="#000000" stroke="none">
<path d="M1011 1659 c-222 -37 -424 -230 -477 -455 -24 -103 -15 -256 21 -353
l27 -73 -225 -227 c-231 -232 -247 -253 -247 -329 0 -29 25 -90 48 -116 22
-24 90 -56 122 -56 77 0 98 15 331 247 l227 225 73 -27 c97 -36 250 -45 353
-21 104 25 200 79 282 161 113 112 168 231 180 386 28 391 -321 703 -715 638z
m228 -104 c270 -64 444 -346 376 -610 -25 -97 -64 -165 -134 -236 -104 -105
-214 -150 -363 -150 -136 0 -251 46 -347 140 -102 99 -150 214 -151 357 0 153
43 259 149 365 128 127 296 175 470 134z m-698 -1197 c-202 -203 -219 -218
-253 -218 -48 0 -88 40 -88 88 0 33 16 52 216 253 l217 217 63 -61 62 -62
-217 -217z"/>
<path d="M1050 1406 c-77 -17 -128 -46 -183 -105 -58 -62 -88 -128 -90 -201
-2 -49 0 -55 18 -55 17 0 21 9 26 51 17 141 125 248 272 269 26 4 50 12 54 18
5 9 -23 38 -36 36 -3 0 -31 -6 -61 -13z"/>
</g>
</svg>
