<?xml version="1.0" standalone="no"?>
<!DOCTYPE svg PUBLIC "-//W3C//DTD SVG 20010904//EN"
 "http://www.w3.org/TR/2001/REC-SVG-20010904/DTD/svg10.dtd">
<svg version="1.0" xmlns="http://www.w3.org/2000/svg"
 width="118.000000pt" height="112.000000pt" viewBox="0 0 118.000000 112.000000"
 preserveAspectRatio="xMidYMid meet">
<metadata>
Created by potrace 1.10, written by Peter Selinger 2001-2011
</metadata>
<g transform="translate(0.000000,112.000000) scale(0.100000,-0.100000)"
fill="#000000" stroke="none">
<path d="M493 1068 c-12 -13 -24 -44 -28 -71 -8 -50 -26 -77 -51 -77 -9 0 -36
14 -61 32 -66 45 -93 42 -153 -17 -61 -60 -63 -81 -15 -153 29 -42 34 -56 25
-71 -11 -21 -23 -26 -89 -36 -66 -11 -81 -32 -81 -115 0 -83 15 -104 81 -115
66 -10 78 -15 89 -36 9 -15 4 -29 -25 -71 -48 -72 -46 -93 15 -153 60 -59 87
-62 153 -17 25 18 52 32 61 32 25 0 43 -27 51 -77 11 -75 34 -93 120 -93 86 0
109 18 120 93 8 50 26 77 51 77 9 0 36 -14 61 -32 66 -45 93 -42 153 17 61 60
63 81 15 153 -29 42 -34 56 -25 71 11 21 23 26 89 36 66 11 81 32 81 115 0 83
-15 104 -81 115 -66 10 -78 15 -89 36 -9 15 -4 29 25 71 48 72 46 93 -15 153
-60 59 -87 62 -153 17 -25 -18 -52 -32 -61 -32 -25 0 -43 27 -51 77 -11 75
-34 93 -120 93 -61 0 -74 -3 -92 -22z m142 -58 c2 -8 7 -33 11 -55 8 -48 27
-72 73 -91 47 -20 55 -18 118 22 l56 35 32 -31 33 -32 -35 -50 c-40 -54 -43
-76 -20 -131 17 -40 37 -51 110 -62 l47 -7 0 -48 0 -48 -47 -7 c-73 -11 -93
-22 -110 -62 -23 -55 -20 -77 20 -131 l35 -50 -33 -32 -33 -32 -56 36 c-63 40
-70 42 -117 22 -46 -19 -65 -43 -73 -91 -12 -70 -12 -70 -61 -70 -48 0 -48 0
-60 65 -12 65 -17 71 -62 91 -60 25 -65 25 -130 -17 l-56 -35 -32 31 -33 32
35 50 c40 54 43 76 20 131 -17 40 -37 51 -110 62 l-47 7 0 48 0 48 47 7 c73
11 93 22 110 62 23 55 20 77 -20 131 l-35 50 33 32 32 31 56 -35 c63 -40 71
-42 118 -22 46 19 65 43 73 91 12 70 12 70 61 70 32 0 47 -5 50 -15z"/>
<path d="M505 779 c-45 -12 -115 -77 -136 -123 -24 -53 -24 -139 0 -192 22
-49 92 -111 140 -124 86 -24 167 -7 231 47 54 47 80 102 80 173 0 71 -26 126
-80 173 -63 54 -151 71 -235 46z m163 -34 c133 -56 165 -234 60 -332 -74 -70
-212 -70 -286 0 -82 76 -82 218 0 294 55 51 153 68 226 38z"/>
<path d="M513 670 c-113 -69 -62 -240 72 -240 74 0 135 59 135 130 0 101 -119
164 -207 110z m146 -45 c36 -36 35 -95 -2 -133 -39 -38 -105 -38 -144 1 -49
48 -32 130 32 158 32 14 87 2 114 -26z"/>
</g>
</svg>
