<?xml version="1.0" standalone="no"?>
<!DOCTYPE svg PUBLIC "-//W3C//DTD SVG 20010904//EN"
 "http://www.w3.org/TR/2001/REC-SVG-20010904/DTD/svg10.dtd">
<svg version="1.0" xmlns="http://www.w3.org/2000/svg"
 width="226.000000pt" height="233.000000pt" viewBox="0 0 226.000000 233.000000"
 preserveAspectRatio="xMidYMid meet">
<metadata>
Created by potrace 1.10, written by Peter Selinger 2001-2011
</metadata>
<g transform="translate(0.000000,233.000000) scale(0.100000,-0.100000)"
fill="#000000" stroke="none">
<path d="M452 2090 c-53 -32 -62 -69 -62 -239 l0 -150 -108 -143 c-60 -79
-114 -158 -120 -177 -17 -48 -15 -135 3 -179 28 -65 86 -112 140 -112 l25 0 0
-400 c0 -443 1 -453 62 -490 32 -19 49 -20 723 -20 674 0 691 1 723 20 61 37
62 47 62 490 l0 400 25 0 c54 0 112 47 140 112 18 44 20 131 3 179 -6 19 -60
98 -120 177 l-108 143 0 150 c0 170 -9 207 -62 239 -32 19 -49 20 -663 20
-614 0 -631 -1 -663 -20z m1268 -220 l0 -120 -605 0 -605 0 0 120 0 120 605 0
605 0 0 -120z m-1040 -247 c0 -5 -53 -100 -118 -213 l-118 -205 -60 -3 c-49
-2 -65 1 -87 18 -23 18 -27 29 -27 74 0 51 3 56 100 186 55 74 106 138 113
142 15 10 197 10 197 1z m199 -10 c0 -10 -26 -106 -57 -213 l-57 -195 -122 -3
c-87 -2 -123 1 -123 9 0 6 52 103 116 215 l117 204 63 0 c55 0 64 -3 63 -17z
m206 -198 l0 -210 -127 -3 c-85 -2 -128 1 -128 8 0 12 110 401 117 413 3 4 35
7 71 5 l67 -3 0 -210z m257 10 c32 -110 58 -206 58 -213 0 -10 -29 -12 -127
-10 l-128 3 -3 200 c-1 110 0 205 3 213 3 9 23 12 72 10 l67 -3 58 -200z m251
0 c64 -113 117 -209 117 -215 0 -7 -42 -10 -122 -8 l-123 3 -57 195 c-31 107
-57 203 -57 213 -1 14 8 17 62 17 l63 0 117 -205z m154 197 c7 -4 58 -68 113
-142 97 -130 100 -135 100 -186 0 -45 -4 -56 -27 -74 -22 -17 -38 -20 -87 -18
l-60 3 -118 205 c-65 113 -118 208 -118 213 0 9 182 9 197 -1z m33 -927 l0
-395 -180 0 -180 0 0 303 c0 223 -4 309 -13 327 l-13 25 -264 0 -264 0 -13
-25 c-9 -18 -13 -104 -13 -327 l0 -303 -195 0 -195 0 0 395 0 395 665 0 665 0
0 -395z m-422 -92 l2 -303 -230 0 -230 0 0 298 c0 164 3 302 7 306 4 3 106 5
227 4 l221 -3 3 -302z"/>
</g>
</svg>
