<?xml version="1.0" standalone="no"?>
<!DOCTYPE svg PUBLIC "-//W3C//DTD SVG 20010904//EN"
 "http://www.w3.org/TR/2001/REC-SVG-20010904/DTD/svg10.dtd">
<svg version="1.0" xmlns="http://www.w3.org/2000/svg"
 width="116.000000pt" height="114.000000pt" viewBox="0 0 116.000000 114.000000"
 preserveAspectRatio="xMidYMid meet">
<metadata>
Created by potrace 1.10, written by Peter Selinger 2001-2011
</metadata>
<g transform="translate(0.000000,114.000000) scale(0.100000,-0.100000)"
fill="#000000" stroke="none">
<path d="M219 971 l-29 -29 0 -213 0 -212 -60 -63 c-80 -83 -81 -104 -3 -186
32 -33 93 -92 136 -129 101 -90 116 -91 201 -9 l63 60 222 0 c123 0 230 4 240
10 24 12 45 64 37 93 -5 20 -411 424 -653 650 -74 68 -107 74 -154 28z m415
-360 c185 -178 336 -330 336 -336 0 -7 -7 -18 -15 -25 -16 -13 7 -34 -544 497
-128 124 -163 163 -158 177 4 10 15 16 26 14 11 -2 171 -149 355 -327z m65
-184 l193 -187 -187 0 -187 0 -134 127 -134 128 0 184 0 185 128 -125 c70 -68
214 -209 321 -312z m-338 -79 l124 -118 -50 -50 c-27 -27 -55 -50 -63 -50 -19
0 -242 211 -242 229 0 16 90 113 101 109 3 -2 62 -56 130 -120z"/>
<path d="M587 993 c-4 -3 -7 -14 -7 -24 0 -19 11 -24 92 -34 65 -8 159 -58
203 -107 47 -51 84 -131 92 -197 7 -61 26 -82 51 -58 14 15 15 25 5 79 -28
165 -144 290 -308 333 -62 16 -117 20 -128 8z"/>
<path d="M592 869 c3 -8 25 -17 54 -20 119 -15 215 -107 231 -224 7 -52 33
-64 33 -15 0 84 -76 197 -162 241 -52 26 -163 39 -156 18z"/>
</g>
</svg>
