<?xml version="1.0" standalone="no"?>
<!DOCTYPE svg PUBLIC "-//W3C//DTD SVG 20010904//EN"
 "http://www.w3.org/TR/2001/REC-SVG-20010904/DTD/svg10.dtd">
<svg version="1.0" xmlns="http://www.w3.org/2000/svg"
 width="200.000000pt" height="172.000000pt" viewBox="0 0 200.000000 172.000000"
 preserveAspectRatio="xMidYMid meet">
<metadata>
Created by potrace 1.10, written by Peter Selinger 2001-2011
</metadata>
<g transform="translate(0.000000,172.000000) scale(0.100000,-0.100000)"
fill="#000000" stroke="none">
<path d="M434 1594 c-17 -8 -37 -27 -43 -41 -7 -14 -61 -211 -122 -437 l-110
-411 3 -220 3 -220 28 -47 c18 -31 44 -57 75 -75 l47 -28 705 0 705 0 47 28
c31 18 57 44 75 75 l28 47 3 220 3 220 -111 415 c-61 228 -115 424 -121 436
-6 11 -23 28 -39 37 -25 15 -83 17 -587 17 -482 0 -562 -3 -589 -16z m1130
-111 c3 -10 50 -187 106 -394 l100 -375 0 -218 0 -218 -29 -29 -29 -29 -692 0
-692 0 -29 29 -29 29 0 218 0 218 100 375 c56 207 103 384 106 394 5 16 40 17
544 17 504 0 539 -1 544 -17z"/>
<path d="M562 1373 c-16 -32 -192 -650 -192 -676 0 -13 6 -29 13 -35 8 -7 69
-13 148 -14 l134 -3 46 -90 c65 -126 63 -125 309 -125 246 0 244 -1 309 125
l46 90 134 3 c79 1 140 7 148 14 7 6 13 22 13 35 0 26 -176 644 -192 676 -8
16 -40 17 -458 17 -418 0 -450 -1 -458 -17z m878 -37 c0 -3 34 -131 75 -285
41 -154 75 -285 75 -290 0 -7 -44 -11 -124 -11 -117 0 -126 -2 -153 -24 -15
-13 -46 -60 -68 -105 l-39 -81 -186 0 -186 0 -39 81 c-22 45 -53 92 -68 105
-27 22 -36 24 -153 24 -80 0 -124 4 -124 11 0 5 34 136 75 290 41 154 75 282
75 285 0 2 189 4 420 4 231 0 420 -2 420 -4z"/>
</g>
</svg>
