<?xml version="1.0" standalone="no"?>
<!DOCTYPE svg PUBLIC "-//W3C//DTD SVG 20010904//EN"
 "http://www.w3.org/TR/2001/REC-SVG-20010904/DTD/svg10.dtd">
<svg version="1.0" xmlns="http://www.w3.org/2000/svg"
 width="137.000000pt" height="130.000000pt" viewBox="0 0 137.000000 130.000000"
 preserveAspectRatio="xMidYMid meet">
<metadata>
Created by potrace 1.10, written by Peter Selinger 2001-2011
</metadata>
<g transform="translate(0.000000,130.000000) scale(0.050000,-0.050000)"
fill="#000000" stroke="none">
<path d="M1246 2410 c-23 -16 -107 -154 -186 -305 -79 -151 -146 -277 -149
-280 -2 -3 -159 -26 -347 -51 -512 -69 -566 -143 -289 -400 85 -79 202 -189
260 -244 l105 -100 -60 -317 c-63 -335 -62 -361 25 -422 76 -54 147 -35 450
117 l295 147 290 -146 c299 -151 378 -172 455 -118 87 61 88 87 25 422 l-60
317 105 100 c58 55 175 165 260 244 277 257 223 331 -289 400 -188 25 -345 48
-347 51 -3 3 -70 129 -149 280 -151 289 -190 335 -290 335 -34 0 -80 -13 -104
-30z m245 -395 c178 -355 148 -333 502 -379 464 -60 447 -29 157 -291 -296
-268 -286 -239 -213 -615 32 -165 56 -303 53 -306 -3 -4 -142 62 -308 145
-364 183 -300 183 -664 0 -166 -83 -305 -149 -308 -145 -3 3 21 141 53 306 73
376 83 347 -213 615 -290 262 -307 231 157 291 354 46 324 24 502 379 73 146
137 265 141 265 4 0 68 -119 141 -265z"/>
</g>
</svg>
