<?xml version="1.0" standalone="no"?>
<!DOCTYPE svg PUBLIC "-//W3C//DTD SVG 20010904//EN"
 "http://www.w3.org/TR/2001/REC-SVG-20010904/DTD/svg10.dtd">
<svg version="1.0" xmlns="http://www.w3.org/2000/svg"
 width="263.000000pt" height="236.000000pt" viewBox="0 0 263.000000 236.000000"
 preserveAspectRatio="xMidYMid meet">
<metadata>
Created by potrace 1.10, written by Peter Selinger 2001-2011
</metadata>
<g transform="translate(0.000000,236.000000) scale(0.100000,-0.100000)"
fill="#000000" stroke="none">
<path d="M681 2019 c-412 -96 -468 -112 -500 -137 -48 -39 -70 -80 -78 -141
-5 -42 -1 -59 21 -105 35 -71 72 -94 206 -127 l105 -25 5 -320 c5 -303 6 -321
27 -359 54 -101 183 -170 393 -211 75 -14 144 -18 325 -18 181 0 250 4 325 18
210 41 339 110 393 211 21 38 22 56 27 359 l5 320 105 25 c134 33 171 56 206
127 44 90 23 182 -57 246 -32 25 -87 41 -509 138 -260 61 -487 110 -504 109
-17 -1 -240 -50 -495 -110z m974 -130 c247 -57 448 -108 458 -117 21 -19 22
-75 1 -96 -8 -9 -25 -18 -37 -21 -12 -3 -218 -50 -457 -106 l-435 -100 -440
101 c-514 118 -471 107 -490 126 -20 20 -19 78 1 95 20 17 862 216 919 218 22
1 238 -45 480 -100z m-790 -504 c153 -36 297 -65 320 -65 24 0 168 29 320 65
153 36 282 65 286 65 5 0 9 -123 9 -274 0 -318 1 -314 -106 -373 -284 -155
-979 -113 -1101 67 -22 32 -23 39 -23 306 0 154 4 274 9 274 5 0 134 -29 286
-65z"/>
<path d="M2090 1430 c-19 -19 -20 -33 -20 -353 0 -311 1 -335 18 -350 25 -22
75 -21 95 1 15 17 17 56 17 350 0 319 -1 333 -20 352 -11 11 -31 20 -45 20
-14 0 -34 -9 -45 -20z"/>
<path d="M2113 629 c-43 -16 -99 -139 -109 -238 -4 -44 -1 -64 14 -90 21 -40
73 -71 117 -71 62 0 135 71 135 133 0 51 -32 156 -64 209 -33 55 -58 70 -93
57z"/>
</g>
</svg>
