<?xml version="1.0" standalone="no"?>
<!DOCTYPE svg PUBLIC "-//W3C//DTD SVG 20010904//EN"
 "http://www.w3.org/TR/2001/REC-SVG-20010904/DTD/svg10.dtd">
<svg version="1.0" xmlns="http://www.w3.org/2000/svg"
 width="208.000000pt" height="187.000000pt" viewBox="0 0 208.000000 187.000000"
 preserveAspectRatio="xMidYMid meet">
<metadata>
Created by potrace 1.10, written by Peter Selinger 2001-2011
</metadata>
<g transform="translate(0.000000,187.000000) scale(0.100000,-0.100000)"
fill="#000000" stroke="none">
<path d="M569 1626 c-43 -22 -293 -226 -306 -250 -19 -34 -16 -51 43 -231 66
-201 86 -229 160 -223 l44 3 0 -332 0 -333 29 -32 29 -33 512 0 512 0 29 33
29 32 0 333 0 332 44 -3 c74 -6 94 22 160 223 59 180 62 197 43 232 -14 25
-282 241 -315 254 -13 5 -240 9 -505 9 -389 0 -487 -3 -508 -14z m270 -109
c14 -36 71 -88 121 -111 32 -14 66 -20 120 -20 54 0 88 6 120 20 50 23 107 75
121 111 8 22 13 23 116 23 l108 0 132 -105 131 -105 -50 -153 c-28 -83 -52
-154 -54 -155 -1 -2 -36 19 -78 47 l-76 52 0 -416 0 -415 -470 0 -470 0 0 415
0 416 -76 -52 c-42 -28 -77 -49 -78 -47 -2 1 -26 72 -54 155 l-50 153 131 105
132 105 108 0 c103 0 108 -1 116 -23z m431 12 c0 -37 -119 -99 -190 -99 -71 0
-190 62 -190 99 0 8 59 11 190 11 131 0 190 -3 190 -11z"/>
</g>
</svg>
