<?xml version="1.0" standalone="no"?>
<!DOCTYPE svg PUBLIC "-//W3C//DTD SVG 20010904//EN"
 "http://www.w3.org/TR/2001/REC-SVG-20010904/DTD/svg10.dtd">
<svg version="1.0" xmlns="http://www.w3.org/2000/svg"
 width="117.000000pt" height="102.000000pt" viewBox="0 0 117.000000 102.000000"
 preserveAspectRatio="xMidYMid meet">
<metadata>
Created by potrace 1.10, written by Peter Selinger 2001-2011
</metadata>
<g transform="translate(0.000000,102.000000) scale(0.100000,-0.100000)"
fill="#000000" stroke="none">
<path d="M81 932 c-19 -9 -44 -30 -55 -45 -20 -27 -21 -41 -21 -352 0 -451
-40 -415 465 -415 327 0 358 1 390 19 27 14 58 55 132 172 111 175 126 210
109 260 -6 19 -55 103 -109 188 -74 117 -105 158 -132 172 -32 18 -63 19 -390
19 -318 0 -359 -2 -389 -18z m763 -71 c36 -40 196 -306 196 -326 0 -20 -160
-286 -196 -326 -16 -18 -34 -19 -376 -19 -345 0 -359 1 -378 20 -19 19 -20 33
-20 325 0 292 1 306 20 325 19 19 33 20 378 20 342 0 360 -1 376 -19z"/>
<path d="M744 621 c-67 -41 -63 -140 6 -176 100 -51 197 73 123 155 -36 40
-86 48 -129 21z m116 -60 c28 -69 -56 -124 -112 -74 -36 32 -17 100 32 115 27
9 68 -13 80 -41z"/>
</g>
</svg>
