<?xml version="1.0" standalone="no"?>
<!DOCTYPE svg PUBLIC "-//W3C//DTD SVG 20010904//EN"
 "http://www.w3.org/TR/2001/REC-SVG-20010904/DTD/svg10.dtd">
<svg version="1.0" xmlns="http://www.w3.org/2000/svg"
 width="104.000000pt" height="117.000000pt" viewBox="0 0 104.000000 117.000000"
 preserveAspectRatio="xMidYMid meet">
<metadata>
Created by potrace 1.10, written by Peter Selinger 2001-2011
</metadata>
<g transform="translate(0.000000,117.000000) scale(0.100000,-0.100000)"
fill="#000000" stroke="none">
<path d="M291 1126 c-30 -17 -50 -53 -51 -91 l0 -30 -71 0 c-67 0 -72 -2 -100
-33 -25 -28 -29 -40 -29 -90 0 -64 19 -102 51 -102 18 0 19 -10 19 -302 0
-283 1 -305 20 -335 37 -61 48 -63 375 -63 327 0 338 2 375 63 19 30 20 52 20
335 0 292 1 302 19 302 32 0 51 38 51 102 0 50 -4 62 -29 90 -28 31 -33 33
-100 33 l-71 0 0 28 c0 39 -24 81 -55 95 -38 18 -392 16 -424 -2z m405 -67 c8
-6 14 -20 14 -30 0 -18 -11 -19 -205 -19 -196 0 -205 1 -205 19 0 40 27 46
210 44 113 -1 177 -6 186 -14z m198 -131 c3 -7 7 -30 10 -50 l5 -38 -404 0
-404 0 5 38 c3 20 7 43 10 50 3 9 89 12 389 12 300 0 386 -3 389 -12z m-54
-443 c0 -282 -1 -296 -20 -315 -19 -19 -33 -20 -315 -20 -282 0 -296 1 -315
20 -19 19 -20 33 -20 315 l0 295 335 0 335 0 0 -295z"/>
<path d="M253 704 c-18 -8 -19 -464 -1 -482 13 -13 86 -16 106 -4 9 7 12 63
10 248 l-3 239 -50 2 c-27 1 -56 0 -62 -3z m87 -243 l0 -219 -35 0 -35 0 0
219 0 219 35 0 35 0 0 -219z"/>
<path d="M447 704 c-13 -13 -8 -469 5 -482 16 -16 93 -15 107 2 8 9 11 83 9
247 l-3 234 -55 3 c-31 2 -59 0 -63 -4z m93 -243 l0 -219 -35 0 -35 0 0 219 0
219 35 0 35 0 0 -219z"/>
<path d="M647 703 c-4 -3 -7 -113 -7 -244 0 -263 -4 -249 69 -249 20 0 42 5
49 12 9 9 12 77 12 244 0 202 -2 233 -16 238 -21 8 -99 8 -107 -1z m93 -242
l0 -219 -35 0 -35 0 0 219 0 219 35 0 35 0 0 -219z"/>
</g>
</svg>
