<?xml version="1.0" standalone="no"?>
<!DOCTYPE svg PUBLIC "-//W3C//DTD SVG 20010904//EN"
 "http://www.w3.org/TR/2001/REC-SVG-20010904/DTD/svg10.dtd">
<svg version="1.0" xmlns="http://www.w3.org/2000/svg"
 width="212.000000pt" height="187.000000pt" viewBox="0 0 212.000000 187.000000"
 preserveAspectRatio="xMidYMid meet">
<metadata>
Created by potrace 1.10, written by Peter Selinger 2001-2011
</metadata>
<g transform="translate(0.000000,187.000000) scale(0.100000,-0.100000)"
fill="#000000" stroke="none">
<path d="M195 1611 c-48 -22 -69 -44 -90 -94 -13 -30 -15 -95 -15 -399 0 -332
2 -367 19 -404 23 -50 61 -82 118 -97 l43 -11 0 -106 c1 -146 25 -198 113
-235 20 -8 58 -15 85 -15 46 0 50 -2 63 -32 36 -88 120 -142 219 -142 99 0
183 54 219 142 l13 32 158 0 158 0 13 -32 c36 -88 120 -142 219 -142 99 0 183
54 219 142 13 30 17 32 65 32 55 0 120 25 148 56 42 48 48 84 48 307 0 253 12
219 -173 492 -154 227 -150 225 -349 225 l-138 0 0 75 c0 114 -29 171 -105
206 -37 17 -76 19 -525 19 -449 0 -488 -2 -525 -19z m1017 -118 c17 -15 18
-40 18 -371 0 -317 -2 -357 -17 -374 -15 -17 -44 -18 -491 -18 -428 0 -477 2
-494 17 -17 15 -18 40 -18 371 0 317 2 357 17 374 15 17 44 18 491 18 428 0
477 -2 494 -17z m403 -289 c9 -4 75 -94 146 -200 l129 -194 0 -202 c0 -234 -1
-238 -80 -238 -44 0 -49 2 -61 32 -36 88 -120 142 -219 142 -99 0 -183 -54
-219 -142 l-13 -32 -158 0 -158 0 -13 32 c-36 88 -120 142 -219 142 -99 0
-183 -54 -219 -142 -12 -29 -17 -32 -59 -32 -73 0 -82 14 -82 137 l0 103 405
0 c342 0 411 2 442 15 50 21 72 42 94 90 16 35 19 68 19 268 l0 227 124 0 c68
0 132 -3 141 -6z m-805 -790 c79 -47 79 -161 0 -208 -103 -61 -225 60 -164
163 34 58 108 78 164 45z m780 0 c79 -47 79 -161 0 -208 -78 -45 -180 14 -180
104 0 91 102 149 180 104z"/>
<path d="M1430 1130 c-19 -19 -20 -33 -20 -220 0 -256 -12 -240 180 -240 172
0 180 5 180 103 0 62 0 63 -96 207 -53 80 -103 151 -112 158 -26 20 -109 15
-132 -8z m190 -175 c80 -120 90 -139 90 -180 l0 -45 -120 0 -120 0 0 180 0
180 30 0 c27 0 38 -12 120 -135z"/>
</g>
</svg>
