<?xml version="1.0" standalone="no"?>
<!DOCTYPE svg PUBLIC "-//W3C//DTD SVG 20010904//EN"
 "http://www.w3.org/TR/2001/REC-SVG-20010904/DTD/svg10.dtd">
<svg version="1.0" xmlns="http://www.w3.org/2000/svg"
 width="417.000000pt" height="273.000000pt" viewBox="0 0 417.000000 273.000000"
 preserveAspectRatio="xMidYMid meet">
<metadata>
Created by potrace 1.10, written by Peter Selinger 2001-2011
</metadata>
<g transform="translate(0.000000,273.000000) scale(0.100000,-0.100000)"
fill="#000000" stroke="none">
<path d="M1625 2500 c-88 -4 -263 -13 -389 -19 -125 -6 -232 -13 -236 -16 -5
-3 -76 -10 -160 -15 -318 -22 -351 -46 -401 -295 -4 -22 -12 -58 -17 -80 -42
-167 -67 -415 -67 -660 0 -294 37 -591 101 -807 8 -26 14 -56 14 -67 0 -11 21
-43 48 -71 43 -47 53 -53 115 -66 38 -8 134 -18 215 -24 81 -5 190 -14 242
-20 52 -5 123 -10 158 -10 34 0 62 -4 62 -8 0 -22 31 -44 85 -58 62 -16 137
-25 410 -45 240 -17 669 -1 845 33 30 6 70 13 88 15 21 4 41 16 54 34 20 26
27 29 82 29 34 0 104 5 156 10 52 6 158 15 234 20 202 14 260 26 308 64 57 44
79 91 109 241 4 22 12 60 17 85 79 366 88 761 26 1150 -8 52 -20 115 -26 140
-6 25 -14 66 -19 92 -4 26 -12 56 -18 67 -6 11 -11 32 -11 47 0 33 -29 80 -71
118 -40 36 -113 53 -282 66 -319 23 -423 30 -592 40 -235 15 -877 20 -1080 10z
m1120 -185 c149 -9 333 -22 410 -31 77 -8 167 -14 200 -14 33 0 65 -4 71 -8
22 -15 55 -130 73 -253 5 -31 13 -79 19 -105 50 -228 50 -752 0 -978 -6 -26
-14 -74 -19 -105 -14 -94 -39 -194 -58 -226 -17 -30 -17 -30 -137 -37 -65 -3
-148 -11 -184 -17 -36 -6 -103 -11 -150 -11 -47 0 -179 -7 -295 -15 -281 -20
-961 -20 -1235 0 -113 8 -241 15 -285 15 -44 0 -129 7 -190 15 -60 8 -144 15
-185 15 -41 0 -80 4 -86 8 -18 11 -37 54 -45 97 -3 22 -11 60 -17 85 -50 207
-72 407 -72 665 0 258 22 458 72 665 6 25 14 63 18 85 3 22 14 55 23 73 17 32
18 32 95 32 42 0 127 7 187 15 61 8 148 15 195 16 47 0 155 7 240 14 235 19
1027 19 1355 0z"/>
<path d="M1575 2150 c-177 -6 -265 -14 -440 -42 -38 -6 -96 -14 -128 -18 -44
-6 -66 -15 -88 -36 -16 -15 -29 -33 -29 -41 0 -7 -6 -27 -14 -45 -55 -130 -96
-365 -96 -543 0 -178 41 -413 96 -543 8 -18 14 -38 14 -45 0 -8 12 -25 28 -39
21 -19 48 -28 122 -41 253 -43 375 -54 710 -64 284 -8 625 16 904 65 116 20
130 32 165 138 69 217 83 304 83 528 0 224 -14 317 -84 530 -11 33 -24 68 -29
78 -16 29 -70 58 -109 58 -19 0 -51 5 -70 10 -19 6 -80 15 -135 20 -55 5 -134
14 -175 19 -104 13 -497 19 -725 11z m560 -85 c252 -16 371 -28 484 -51 74
-15 100 -32 101 -66 0 -10 6 -32 14 -50 18 -44 33 -104 54 -213 39 -211 12
-575 -54 -733 -8 -18 -14 -41 -14 -51 0 -31 -42 -60 -96 -66 -27 -3 -94 -12
-149 -20 -209 -30 -496 -47 -701 -42 -211 5 -509 29 -584 46 -25 6 -65 11 -90
12 -81 1 -110 18 -130 74 -72 210 -84 285 -84 520 0 236 12 314 84 520 l18 50
68 16 c96 22 255 40 489 54 273 16 325 16 590 0z"/>
<path d="M1615 1785 c-5 -2 -77 -8 -160 -15 -191 -15 -190 -15 -203 -47 -20
-51 -39 -203 -33 -274 1 -23 41 -31 67 -14 18 11 22 27 27 97 7 98 19 131 55
148 16 7 113 15 231 20 187 8 206 10 225 29 16 17 18 25 10 39 -9 14 -28 17
-110 19 -54 1 -103 0 -109 -2z"/>
<path d="M3113 2034 c-33 -14 -76 -64 -87 -101 -10 -32 21 -90 63 -119 28 -19
49 -24 93 -24 72 0 119 28 144 83 15 33 16 43 4 75 -29 85 -130 124 -217 86z
m100 -78 c9 -7 17 -26 17 -44 0 -26 -5 -31 -29 -37 -59 -13 -93 35 -54 77 19
21 41 23 66 4z"/>
<path d="M3039 1390 l-24 -20 24 -20 c21 -18 38 -20 193 -20 175 0 208 6 208
40 0 34 -33 40 -208 40 -155 0 -172 -2 -193 -20z"/>
<path d="M3037 1124 c-4 -4 -7 -17 -7 -29 0 -37 38 -45 208 -45 172 0 206 9
200 53 -3 22 -7 22 -199 25 -107 1 -198 -1 -202 -4z"/>
<path d="M2930 839 c-9 -16 -8 -25 6 -40 16 -17 32 -19 194 -19 162 0 178 2
194 19 14 15 15 24 6 40 -10 20 -18 21 -200 21 -182 0 -190 -1 -200 -21z"/>
</g>
</svg>
