<?xml version="1.0" standalone="no"?>
<!DOCTYPE svg PUBLIC "-//W3C//DTD SVG 20010904//EN"
 "http://www.w3.org/TR/2001/REC-SVG-20010904/DTD/svg10.dtd">
<svg version="1.0" xmlns="http://www.w3.org/2000/svg"
 width="128.000000pt" height="135.000000pt" viewBox="0 0 128.000000 135.000000"
 preserveAspectRatio="xMidYMid meet">
<metadata>
Created by potrace 1.10, written by Peter Selinger 2001-2011
</metadata>
<g transform="translate(0.000000,135.000000) scale(0.050000,-0.050000)"
fill="#000000" stroke="none">
<path d="M1044 2583 c-555 -198 -694 -1168 -251 -1758 36 -47 42 -68 23 -74
-14 -4 -93 -27 -175 -51 -438 -128 -649 -314 -512 -451 l49 -49 1092 0 1092 0
49 49 c137 137 -74 323 -512 451 -82 24 -161 47 -175 51 -19 6 -12 27 24 75
602 788 98 2044 -704 1757z m447 -170 c374 -175 484 -828 226 -1348 -262 -530
-632 -530 -894 0 -319 643 -78 1395 447 1395 84 0 150 -14 221 -47z m-364
-1803 c93 -39 192 -38 294 3 91 36 183 24 439 -57 149 -47 440 -176 440 -194
0 -7 -463 -12 -1030 -12 -566 0 -1030 5 -1030 12 0 19 292 147 440 194 284 89
345 97 447 54z"/>
</g>
</svg>
