<?xml version="1.0" standalone="no"?>
<!DOCTYPE svg PUBLIC "-//W3C//DTD SVG 20010904//EN"
 "http://www.w3.org/TR/2001/REC-SVG-20010904/DTD/svg10.dtd">
<svg version="1.0" xmlns="http://www.w3.org/2000/svg"
 width="133.000000pt" height="86.000000pt" viewBox="0 0 133.000000 86.000000"
 preserveAspectRatio="xMidYMid meet">
<metadata>
Created by potrace 1.10, written by Peter Selinger 2001-2011
</metadata>
<g transform="translate(0.000000,86.000000) scale(0.050000,-0.050000)"
fill="#000000" stroke="none">
<path d="M248 1540 c-124 -49 -128 -73 -128 -692 l0 -567 58 -66 59 -65 803
-6 803 -5 68 68 c49 49 69 87 69 131 0 80 17 78 101 -10 129 -134 265 -166
366 -87 l53 42 0 567 0 567 -53 42 c-106 83 -216 53 -382 -106 l-85 -81 0 76
c0 60 -14 90 -68 144 l-68 68 -777 -1 c-427 -1 -796 -9 -819 -19z m1570 -136
c16 -27 14 -1099 -3 -1116 -28 -28 -1519 -14 -1537 15 -30 47 -22 1070 8 1101
33 33 1511 33 1532 0z m537 -559 c-6 -614 10 -593 -260 -355 l-195 172 0 188
0 187 185 162 c115 101 201 161 230 161 l46 0 -6 -515z"/>
</g>
</svg>
