<?xml version="1.0" standalone="no"?>
<!DOCTYPE svg PUBLIC "-//W3C//DTD SVG 20010904//EN"
 "http://www.w3.org/TR/2001/REC-SVG-20010904/DTD/svg10.dtd">
<svg version="1.0" xmlns="http://www.w3.org/2000/svg"
 width="199.000000pt" height="194.000000pt" viewBox="0 0 199.000000 194.000000"
 preserveAspectRatio="xMidYMid meet">
<metadata>
Created by potrace 1.10, written by Peter Selinger 2001-2011
</metadata>
<g transform="translate(0.000000,194.000000) scale(0.050000,-0.050000)"
fill="#000000" stroke="none">
<path d="M1790 3507 c-1121 -180 -1757 -1379 -1259 -2373 788 -1570 3135
-1027 3137 726 2 1005 -909 1803 -1878 1647z m590 -240 c1080 -271 1452 -1637
661 -2428 -912 -912 -2467 -269 -2467 1021 0 944 890 1638 1806 1407z"/>
<path d="M1441 2959 c-320 -175 -694 -651 -554 -705 42 -16 63 7 125 136 78
162 300 385 463 468 87 43 125 74 125 100 0 62 -47 62 -159 1z"/>
<path d="M1500 2756 c-262 -153 -557 -576 -401 -576 27 0 58 36 103 120 80
150 227 299 369 373 84 43 109 67 105 97 -9 60 -55 56 -176 -14z"/>
<path d="M1569 2552 c-226 -152 -407 -452 -273 -452 25 0 51 28 75 83 48 106
197 260 306 315 55 29 83 56 83 82 0 61 -76 50 -191 -28z"/>
<path d="M1860 2462 c-693 -227 -563 -1210 160 -1211 656 -1 858 885 266 1171
-99 48 -335 70 -426 40z m320 -224 c400 -181 305 -741 -134 -790 -242 -27
-478 226 -436 470 46 272 327 431 570 320z"/>
<path d="M1878 2002 c-128 -129 -40 -342 142 -342 117 0 200 83 200 200 0 182
-213 270 -342 142z m218 -66 c13 -13 24 -47 24 -76 0 -29 -11 -63 -24 -76 -13
-13 -47 -24 -76 -24 -90 0 -139 113 -76 176 31 31 121 31 152 0z"/>
<path d="M2669 1537 c-48 -106 -197 -260 -306 -315 -93 -48 -117 -122 -40
-122 141 0 510 385 470 490 -23 60 -86 32 -124 -53z"/>
<path d="M2838 1420 c-80 -150 -227 -299 -369 -373 -109 -57 -142 -115 -80
-139 125 -48 590 414 591 587 0 92 -74 53 -142 -75z"/>
<path d="M3106 1463 c-11 -7 -46 -67 -78 -133 -78 -162 -300 -385 -463 -468
-123 -62 -164 -123 -98 -148 69 -26 391 200 521 366 178 226 253 470 118 383z"/>
</g>
</svg>
