<?xml version="1.0" standalone="no"?>
<!DOCTYPE svg PUBLIC "-//W3C//DTD SVG 20010904//EN"
 "http://www.w3.org/TR/2001/REC-SVG-20010904/DTD/svg10.dtd">
<svg version="1.0" xmlns="http://www.w3.org/2000/svg"
 width="202.000000pt" height="209.000000pt" viewBox="0 0 202.000000 209.000000"
 preserveAspectRatio="xMidYMid meet">
<metadata>
Created by potrace 1.10, written by Peter Selinger 2001-2011
</metadata>
<g transform="translate(0.000000,209.000000) scale(0.100000,-0.100000)"
fill="#000000" stroke="none">
<path d="M360 1936 c-90 -24 -163 -87 -204 -175 -21 -45 -21 -56 -21 -691 0
-638 0 -646 21 -691 31 -67 87 -124 152 -156 l57 -28 590 0 590 0 57 28 c109
54 166 145 175 281 6 81 6 81 55 133 155 166 154 418 -2 584 l-50 53 0 262 c0
168 -4 273 -11 295 -16 47 -66 97 -109 109 -54 15 -1243 12 -1300 -4z m1289
-122 c19 -25 21 -40 21 -205 0 -99 -3 -179 -7 -179 -5 0 -18 3 -30 6 -23 6
-23 9 -23 155 0 136 -2 151 -20 169 -20 20 -33 20 -635 20 -602 0 -615 0 -635
-20 -18 -18 -20 -34 -20 -142 l-1 -123 -24 39 c-49 81 -41 169 23 238 65 69
48 67 724 68 l607 0 20 -26z m-99 -124 l0 -30 -595 0 -595 0 0 30 0 30 595 0
595 0 0 -30z m0 -110 l0 -30 -595 0 -595 0 0 30 0 30 595 0 595 0 0 -30z m0
-110 l0 -30 -572 0 c-315 0 -583 3 -595 6 -16 4 -23 14 -23 30 l0 24 595 0
595 0 0 -30z m-1249 -107 l53 -28 639 -5 639 -5 19 -24 c16 -19 19 -37 17 -85
l-3 -61 -300 -5 c-342 -6 -345 -6 -424 -96 -102 -116 -88 -296 30 -397 73 -63
98 -67 416 -67 l283 0 0 -48 c0 -115 -58 -207 -147 -231 -54 -15 -1084 -15
-1138 0 -52 15 -119 82 -134 134 -10 38 -17 945 -7 945 2 0 28 -12 57 -27z
m1516 -321 c39 -100 14 -243 -54 -314 l-27 -28 -308 0 c-330 0 -350 3 -395 51
-62 67 -66 162 -11 225 17 19 40 40 52 47 15 8 114 14 328 17 l308 5 32 32
c38 38 49 33 75 -35z"/>
<path d="M1081 954 c-100 -84 10 -241 127 -180 69 36 75 145 11 190 -37 25
-102 21 -138 -10z"/>
</g>
</svg>
