<?xml version="1.0" standalone="no"?>
<!DOCTYPE svg PUBLIC "-//W3C//DTD SVG 20010904//EN"
 "http://www.w3.org/TR/2001/REC-SVG-20010904/DTD/svg10.dtd">
<svg version="1.0" xmlns="http://www.w3.org/2000/svg"
 width="183.000000pt" height="238.000000pt" viewBox="0 0 183.000000 238.000000"
 preserveAspectRatio="xMidYMid meet">
<metadata>
Created by potrace 1.10, written by Peter Selinger 2001-2011
</metadata>
<g transform="translate(0.000000,238.000000) scale(0.050000,-0.050000)"
fill="#000000" stroke="none">
<path d="M1126 4481 c-94 -58 -102 -83 -207 -641 l-96 -514 -97 -128 c-353
-468 -351 -1100 6 -1567 74 -97 78 -110 171 -614 101 -548 104 -560 187 -637
l53 -50 614 -5 c830 -8 758 -63 896 685 l96 520 104 145 c98 137 176 303 201
429 9 44 22 56 64 56 123 0 242 130 242 264 0 127 -123 256 -244 256 -40 0
-52 21 -91 150 -30 96 -84 206 -153 307 l-107 157 -95 518 c-103 560 -119 610
-216 669 -98 60 -1230 60 -1328 0z m1203 -266 c5 -25 33 -171 61 -325 29 -154
56 -295 62 -314 8 -28 -11 -23 -106 24 -331 166 -771 170 -1085 10 -55 -27
-107 -50 -116 -50 -8 0 15 158 53 350 l68 350 527 0 526 0 10 -45z m-289 -779
c453 -107 786 -536 786 -1016 2 -1033 -1349 -1440 -1923 -580 -532 797 195
1817 1137 1596z m-580 -2288 c280 -74 695 -24 915 111 36 22 65 36 65 31 0 -5
-27 -146 -60 -313 -33 -167 -60 -325 -60 -350 l0 -47 -535 0 -535 0 -57 305
c-31 168 -61 329 -67 359 l-10 55 107 -58 c59 -32 166 -73 237 -93z"/>
<path d="M1681 3287 c-73 -93 -19 -207 98 -207 117 0 174 129 92 211 -65 64
-137 63 -190 -4z"/>
<path d="M1135 3075 c-90 -68 -29 -235 85 -235 69 0 146 92 131 156 -23 96
-139 138 -216 79z"/>
<path d="M2022 2792 c-419 -346 -450 -393 -314 -483 90 -58 133 -24 440 352
430 525 396 561 -126 131z"/>
<path d="M913 2519 c-91 -72 -37 -239 77 -239 53 0 130 83 130 140 0 57 -77
140 -130 140 -14 0 -48 -19 -77 -41z"/>
<path d="M2493 2519 c-91 -72 -37 -239 77 -239 53 0 130 83 130 140 0 57 -77
140 -130 140 -14 0 -48 -19 -77 -41z"/>
<path d="M1127 1949 c-84 -84 -28 -209 93 -209 121 0 177 125 93 209 -28 28
-70 51 -93 51 -23 0 -65 -23 -93 -51z"/>
<path d="M2249 1951 c-87 -87 -41 -211 77 -211 107 1 169 77 135 167 -37 99
-137 119 -212 44z"/>
<path d="M1693 1730 c-80 -80 -37 -213 74 -226 56 -7 153 70 153 122 0 101
-158 173 -227 104z"/>
</g>
</svg>
