<?xml version="1.0" standalone="no"?>
<!DOCTYPE svg PUBLIC "-//W3C//DTD SVG 20010904//EN"
 "http://www.w3.org/TR/2001/REC-SVG-20010904/DTD/svg10.dtd">
<svg version="1.0" xmlns="http://www.w3.org/2000/svg"
 width="191.000000pt" height="191.000000pt" viewBox="0 0 191.000000 191.000000"
 preserveAspectRatio="xMidYMid meet">
<metadata>
Created by potrace 1.10, written by Peter Selinger 2001-2011
</metadata>
<g transform="translate(0.000000,191.000000) scale(0.100000,-0.100000)"
fill="#000000" stroke="none">
<path d="M808 1830 c-336 -61 -591 -308 -660 -636 -85 -412 166 -818 579 -936
111 -32 305 -32 416 0 278 79 490 291 569 569 32 111 32 305 0 416 -79 276
-292 490 -564 567 -82 24 -264 34 -340 20z m102 -281 l0 -180 -47 6 c-79 10
-183 37 -183 46 0 18 59 126 95 175 44 58 116 134 127 134 4 0 8 -81 8 -181z
m107 139 c22 -24 57 -65 78 -92 36 -49 95 -157 95 -175 0 -9 -104 -36 -182
-46 l-48 -6 0 180 c0 100 4 181 8 181 4 0 26 -19 49 -42z m-246 -17 c-43 -51
-116 -166 -131 -207 -5 -13 -15 -24 -21 -24 -14 0 -116 54 -149 79 l-24 19 24
21 c93 80 249 158 318 160 22 1 21 -2 -17 -48z m410 20 c62 -24 160 -81 210
-124 l33 -29 -25 -19 c-32 -25 -134 -79 -148 -79 -6 0 -16 11 -21 24 -16 42
-88 156 -133 209 l-42 50 35 -5 c19 -4 60 -16 91 -27z m-632 -275 c44 -23 52
-31 48 -49 -28 -116 -47 -220 -47 -259 l0 -48 -158 0 -158 0 8 67 c14 115 71
253 139 336 l30 37 42 -29 c23 -15 66 -40 96 -55z m1012 -71 c44 -90 69 -178
69 -242 l0 -43 -155 0 -155 0 0 48 c0 39 -19 142 -47 259 -4 18 4 26 53 52 33
16 75 41 94 55 l35 25 33 -37 c19 -20 51 -73 73 -117z m-811 0 c36 -8 86 -17
113 -20 l47 -6 0 -130 0 -129 -155 0 -155 0 0 38 c0 46 16 136 37 215 13 46
19 57 32 52 9 -4 45 -13 81 -20z m483 -32 c21 -79 37 -169 37 -215 l0 -38
-155 0 -155 0 0 129 0 130 48 6 c26 3 81 14 122 24 41 10 78 19 81 20 4 0 13
-25 22 -56z m-683 -345 c1 -60 24 -182 49 -255 26 -77 26 -80 -1 -88 -13 -4
-53 -24 -90 -46 -36 -21 -69 -39 -71 -39 -3 0 -26 28 -52 62 -82 110 -129 220
-143 341 l-8 67 158 0 158 0 0 -42z m358 -115 l-3 -158 -66 -6 c-36 -4 -83
-12 -105 -18 -21 -6 -44 -11 -51 -11 -25 0 -83 215 -83 311 l0 39 155 0 156 0
-3 -157z m362 118 c0 -74 -47 -280 -70 -304 -4 -5 -41 -2 -81 7 -41 9 -92 17
-114 18 l-40 3 -3 158 -3 157 156 0 155 0 0 -39z m358 -28 c-14 -121 -61 -231
-143 -341 -26 -34 -49 -62 -52 -62 -2 0 -35 18 -71 39 -37 22 -77 42 -89 46
-28 8 -28 11 -2 88 25 73 48 195 49 255 l0 42 158 0 158 0 -8 -67z m-718 -453
c0 -82 -4 -150 -8 -150 -12 0 -84 78 -129 140 -52 70 -77 120 -66 130 13 13
92 28 151 29 l52 1 0 -150z m204 137 c27 -7 51 -17 53 -22 9 -27 -169 -265
-198 -265 -5 0 -9 63 -9 150 l0 150 53 -1 c28 0 74 -6 101 -12z m-432 -101
c20 -34 58 -88 83 -119 38 -46 43 -57 27 -57 -52 0 -219 76 -282 129 l-33 27
79 42 c43 23 81 41 84 41 3 1 22 -28 42 -63z m630 22 l81 -42 -33 -27 c-63
-53 -230 -129 -282 -129 -16 0 -11 11 27 57 25 31 63 85 83 119 20 35 39 64
40 64 2 0 40 -19 84 -42z"/>
</g>
</svg>
