<!-- Generated by IcoMoon.io -->
<svg version="1.1" xmlns="http://www.w3.org/2000/svg" width="34" height="32" viewBox="0 0 34 32">
<title>banknote</title>
<path d="M19.789 2.976c-0.332 0.199-0.597 0.547-0.73 0.945-0.779 2.421-2.172 3.772-6.657 6.458-4.775 2.86-6.375 4.303-7.685 6.922-1.277 2.537-1.542 2.039 3.946 7.527 5.762 5.762 5.853 5.795 7.246 2.769 1.053-2.28 2.18-3.291 6.616-5.936 5.040-3.018 7.146-5.156 8.141-8.282 0.356-1.103 0.216-1.293-4.352-5.886-5.14-5.165-5.289-5.273-6.524-4.518zM28.982 12.85c0.099 0.439-0.987 2.371-1.89 3.374-1.169 1.285-2.504 2.255-6.019 4.352-4.021 2.404-6.209 4.535-6.848 6.657l-0.191 0.647-4.203-4.203c-2.305-2.305-4.195-4.269-4.195-4.361 0.017-1.84 2.777-4.56 7.519-7.42 4.883-2.943 6.508-4.535 7.453-7.279 0.099-0.29 8.265 7.743 8.373 8.232z"></path>
<path d="M20.427 7.851c-0.456 0.58-1.252 1.418-1.758 1.857-0.945 0.821-1.202 1.401-0.605 1.401 0.771 0 3.988-3.474 3.764-4.062-0.182-0.473-0.58-0.249-1.401 0.804z"></path>
<path d="M15.917 12.286c-0.224 0.091-0.539 0.282-0.696 0.431-0.24 0.216-0.34 0.224-0.539 0.058-0.274-0.224-0.555 0.141-0.365 0.456 0.050 0.075-0.058 0.456-0.249 0.837-1.020 2.056 0.356 3.515 2.611 2.744l0.771-0.257 0.705 0.796c1.020 1.152 0.68 1.492-0.87 0.87-0.763-0.315-1.235 0.108-0.829 0.73 0.555 0.846 1.932 0.978 2.827 0.282 0.356-0.29 0.439-0.298 0.613-0.083 0.116 0.141 0.307 0.249 0.423 0.249 0.381 0 0.431-0.315 0.091-0.605-0.323-0.282-0.323-0.282 0.075-0.97 1.177-2.014-0.39-3.797-2.636-2.993l-0.812 0.282-0.721-0.705c-0.87-0.854-0.796-1.045 0.365-0.928 0.962 0.099 1.335-0.116 1.152-0.68-0.182-0.589-1.111-0.829-1.915-0.514zM16.249 15.585c-0.373 0.24-0.854 0.199-1.185-0.108-0.356-0.323-0.365-0.381-0.133-0.987l0.174-0.464 0.696 0.705c0.572 0.572 0.655 0.721 0.448 0.854zM19.407 16.091c0.381 0.199 0.448 1.177 0.108 1.459-0.174 0.141-0.39 0.017-0.928-0.539-0.87-0.887-0.298-1.525 0.821-0.92z"></path>
<path d="M15.179 22.234c-1.185 1.111-2.247 2.454-2.247 2.852 0 0.655 0.531 0.39 1.401-0.705 0.506-0.63 1.293-1.459 1.749-1.849 0.862-0.721 1.086-1.31 0.506-1.31-0.182 0-0.812 0.456-1.409 1.011z"></path>
</svg>
