<!-- Generated by IcoMoon.io -->
<svg version="1.1" xmlns="http://www.w3.org/2000/svg" width="38" height="32" viewBox="0 0 38 32">
<title>bubble</title>
<path d="M15.686 1.942c-12.874 2.164-16.749 15.010-6.289 20.828 1.147 0.629 0.971 1.683-0.786 4.782-1.609 2.839 2.849 1.766 6.557-1.581l1.017-0.925 1.295 0.176c6.317 0.814 13.799-2.682 16.259-7.602 4.356-8.703-6.012-17.702-18.053-15.676zM23.834 4.245c12.199 3.524 11.783 15.501-0.647 18.636-0.962 0.25-2.072 0.324-4.634 0.333h-3.376l-0.879 0.851c-1.184 1.138-2.636 2.275-2.747 2.164-0.046-0.046 0.046-0.416 0.222-0.814 0.86-2.044 0.435-3.293-1.535-4.439-7.898-4.624-5.854-13.854 3.699-16.629 2.645-0.768 7.417-0.823 9.896-0.102z"></path>
<path d="M17.48 6.668c-4.782 0.509-8.481 2.932-9.156 5.984-0.157 0.731-0.148 0.962 0.056 1.165 0.333 0.333 0.869 0.111 0.869-0.361 0-2.802 3.958-5.429 8.758-5.817 0.962-0.074 1.48-0.194 1.544-0.361 0.111-0.296-0.268-0.814-0.564-0.777-0.12 0.009-0.795 0.083-1.508 0.166z"></path>
</svg>
