<!-- Generated by IcoMoon.io -->
<svg version="1.1" xmlns="http://www.w3.org/2000/svg" width="22" height="32" viewBox="0 0 22 32">
<title>bulb</title>
<path d="M9.691 1.755c-4.251 0.786-7.625 4.48-7.982 8.75-0.192 2.203 0.347 3.776 2.779 8.174 0.914 1.646 1.472 2.971 2.295 5.486 1.591 4.901 2.194 5.641 4.571 5.641 2.368 0 2.935-0.704 4.544-5.623 0.85-2.615 1.362-3.813 2.642-6.171 2.048-3.785 2.56-5.33 2.423-7.323-0.375-5.623-5.833-9.938-11.273-8.933zM14.711 4.197c2.715 1.307 4.334 3.739 4.434 6.683 0.073 1.947-0.128 2.551-2.322 6.656l-1.371 2.569h-8.229l-1.481-2.789c-2.057-3.849-2.331-4.663-2.231-6.601 0.283-5.44 6.245-8.914 11.2-6.519zM14.702 22.217c-0.174 0.576-0.219 0.585-2.725 0.905-1.307 0.165-2.633 0.338-2.953 0.393-0.494 0.091-1.17-0.859-1.161-1.655 0 0 1.563-0.009 3.474-0.009 3.383 0 3.465 0.009 3.365 0.366zM13.952 24.64c-0.165 0.475-0.302 0.878-0.311 0.896s-0.795 0.119-1.755 0.229c-0.951 0.119-1.947 0.247-2.213 0.302-0.439 0.091-1.207-1.353-0.878-1.637 0.082-0.064 4.215-0.594 4.955-0.631l0.494-0.027-0.293 0.869zM13.147 26.926c-0.64 1.243-2.487 1.554-3.282 0.549l-0.393-0.503 1.435-0.201c2.35-0.338 2.496-0.329 2.24 0.155z"></path>
<path d="M9.408 6.409c-2.048 0.786-4.334 4.59-3.191 5.294 0.384 0.238 0.731 0 0.731-0.503 0-2.075 2.158-4.251 4.215-4.251 0.503 0 0.731-0.265 0.585-0.686-0.11-0.338-1.28-0.265-2.341 0.146z"></path>
</svg>
