<!-- Generated by IcoMoon.io -->
<svg version="1.1" xmlns="http://www.w3.org/2000/svg" width="34" height="32" viewBox="0 0 34 32">
<title>calendar</title>
<path d="M9.027 1.168c-0.179 0.194-0.246 0.551-0.246 1.34v1.064h-2.285c-2.515 0-2.85 0.104-3.58 1.086-0.491 0.662-0.491 22.913-0.007 23.561 0.833 1.116-0.38 1.027 13.834 1.027s13.001 0.089 13.834-1.027c0.484-0.647 0.484-22.899-0.007-23.561-0.729-0.982-1.064-1.087-3.58-1.087h-2.285v-1.094c0-1.183-0.216-1.585-0.871-1.585-0.662 0-0.945 0.513-0.893 1.652l0.052 1.027h-5.47l0.074-0.93c0.074-1.064-0.097-1.57-0.573-1.689-0.878-0.223-1.235 0.313-1.139 1.689l0.074 0.93h-5.47l0.052-1.027c0.067-1.436-0.774-2.203-1.518-1.377zM8.781 6.467c0 0.975 0.037 1.131 0.327 1.34 0.893 0.625 1.503 0.022 1.436-1.421l-0.052-1.027h5.447l-0.037 1.034c-0.037 1.146 0.216 1.645 0.856 1.645 0.625 0 0.93-0.618 0.841-1.712l-0.074-0.967h5.47l-0.052 1.027c-0.067 1.444 0.543 2.046 1.436 1.421 0.29-0.208 0.327-0.365 0.327-1.34v-1.109h2.054c1.399 0 2.113 0.060 2.233 0.179 0.26 0.26 0.26 21.559 0 21.82s-24.238 0.26-24.499 0c-0.26-0.26-0.26-21.559 0-21.82 0.119-0.119 0.833-0.179 2.233-0.179h2.054v1.109z"></path>
<path d="M8.781 12.912v1.377h3.587l-0.045-1.354-0.045-1.347-1.749-0.030-1.749-0.022v1.377z"></path>
<path d="M15.018 11.572c-0.007 0.022-0.015 0.625-0.022 1.34l-0.015 1.302h3.527v-2.634l-1.734-0.022c-0.96-0.015-1.749-0.007-1.756 0.015z"></path>
<path d="M21.194 11.594c-0.030 0.037-0.060 0.655-0.060 1.377v1.317h3.572v-2.754h-1.727c-0.945 0-1.749 0.030-1.786 0.060z"></path>
<path d="M8.781 17.302v1.377l1.749-0.022 1.749-0.030 0.045-1.347 0.045-1.354h-3.587v1.377z"></path>
<path d="M15.018 15.993c-0.007 0.045-0.015 0.655-0.022 1.362l-0.015 1.28h3.527v-2.634l-1.734-0.045c-0.96-0.022-1.749 0-1.756 0.037z"></path>
<path d="M21.165 17.28l0.045 1.347 1.749 0.030 1.749 0.022v-2.753h-3.587l0.045 1.354z"></path>
<path d="M8.781 21.73v1.34h3.572v-2.679h-3.572v1.34z"></path>
<path d="M14.958 21.73v1.34h3.572v-2.679h-3.572v1.34z"></path>
<path d="M21.135 21.73v1.34h3.572v-2.679h-3.572v1.34z"></path>
</svg>
