<!-- Generated by IcoMoon.io -->
<svg version="1.1" xmlns="http://www.w3.org/2000/svg" width="41" height="32" viewBox="0 0 41 32">
<title>camera</title>
<path d="M12.909 2.339c-0.873 0.436-1.37 1.151-2.376 3.515l-0.691 1.624-2.8 0.412c-5.333 0.8-5.103 0.279-5.103 11.224 0 12.291-2.267 10.945 18.424 10.945s18.424 1.345 18.424-10.945c0-10.945 0.23-10.424-5.103-11.224l-2.8-0.412-0.691-1.624c-1.721-4.036-1.406-3.915-9.867-3.915-5.576 0.012-6.752 0.073-7.418 0.4zM28.121 6.788l1.127 2.545 3.358 0.509c2.57 0.4 3.43 0.618 3.673 0.958 0.412 0.558 0.485 15.855 0.073 16.606-0.279 0.533-31.539 0.764-31.867 0.23-0.364-0.582-0.17-16.824 0.206-17.091 0.194-0.145 1.806-0.473 3.564-0.715l3.2-0.461 0.582-1.285c0.315-0.715 0.836-1.903 1.164-2.63l0.594-1.345 13.2 0.133 1.127 2.545z"></path>
<path d="M17.939 9.539c-9.358 2.545-8.764 14.424 0.812 16.182 3.988 0.739 8.327-1.358 10.036-4.836 3.067-6.255-3.673-13.297-10.849-11.345zM23.636 12.061c6.133 3.2 3.758 11.697-3.273 11.697-7.661 0-9.418-9.782-2.182-12.145 1.127-0.376 4.4-0.109 5.455 0.448z"></path>
<path d="M18.788 13.624c-1.745 0.63-3.139 2.4-2.982 3.794 0.121 1.079 0.97 0.861 1.224-0.315 0.303-1.455 1.564-2.558 2.933-2.558 0.752 0 1.224-0.533 0.836-0.921-0.352-0.351-1.030-0.339-2.012 0z"></path>
</svg>
