<!-- Generated by IcoMoon.io -->
<svg version="1.1" xmlns="http://www.w3.org/2000/svg" width="31" height="32" viewBox="0 0 31 32">
<title>clip</title>
<path d="M20.108 3.901c-1.981 0.528-2.456 0.917-8.588 6.91-10.638 10.387-10.387 10.076-10.396 12.973-0.009 4.973 5.414 8.13 9.583 5.578 1.133-0.683 15.066-14.495 15.498-15.36 1.868-3.676-1.479-7.628-5.457-6.461-0.891 0.259-1.245 0.571-6.443 5.751-6.089 6.045-5.976 5.916-5.578 6.521 0.631 0.969 0.83 0.813 6.495-4.861 2.906-2.915 5.483-5.405 5.743-5.535 2.119-1.124 4.575 1.176 3.762 3.52-0.225 0.631-14.296 14.512-15.222 15.014-0.848 0.458-3.114 0.458-4.039-0.009-2.231-1.107-3.174-3.797-2.119-6.063 0.554-1.185 14.339-14.789 15.723-15.524 5.423-2.863 11.33 2.837 8.761 8.45-0.294 0.657-1.643 2.119-5.89 6.391-5.639 5.665-5.907 6.011-5.302 6.616 0.623 0.623 0.943 0.372 6.729-5.457 5.898-5.95 6.288-6.426 6.806-8.441 1.548-5.942-4.151-11.607-10.067-10.015z"></path>
</svg>
