<!-- Generated by IcoMoon.io -->
<svg version="1.1" xmlns="http://www.w3.org/2000/svg" width="35" height="32" viewBox="0 0 35 32">
<title>cloud</title>
<path d="M17.735 9.857c-1.195 0.129-2.506 0.488-3.598 0.977-1.516 0.681-3.316 2.21-4.010 3.431l-0.296 0.501-1.606 0.039c-1.465 0.039-1.671 0.077-2.377 0.411-0.951 0.463-1.876 1.375-2.249 2.21-0.231 0.527-0.27 0.835-0.244 1.825l0.039 1.195-0.643 0.424c-0.912 0.643-1.388 1.118-1.928 1.953-0.591 0.925-0.72 1.362-0.784 2.75-0.064 1.208 0.039 1.709 0.63 2.93 0.681 1.401 2.57 2.853 4.28 3.29 0.733 0.193 23.569 0.18 24.353-0.013 0.668-0.167 1.452-0.45 1.953-0.707 0.655-0.347 1.966-1.427 2.416-1.979 0.591-0.745 1.272-1.966 1.285-2.326 0-0.167 0.116-0.411 0.257-0.553 0.218-0.218 0.257-0.424 0.257-1.478 0-0.964-0.039-1.221-0.18-1.221-0.193 0-0.334-0.27-0.334-0.617 0-0.103-0.18-0.578-0.411-1.041-0.411-0.861-1.902-2.493-2.596-2.866-1.349-0.72-2.39-1.131-2.84-1.131-0.373 0-0.707-0.437-0.707-0.938 0-0.861-1.234-3.11-2.313-4.215-0.398-0.411-1.761-1.362-2.442-1.709-1.786-0.912-4.061-1.349-5.912-1.144zM20.806 11.9c0.398 0.116 0.9 0.296 1.131 0.386 0.218 0.103 0.437 0.18 0.488 0.18 0.218 0 1.581 1.015 2.159 1.606 1.092 1.118 1.722 2.455 1.851 3.945 0.051 0.63 0.116 0.797 0.45 1.067 0.206 0.18 0.501 0.321 0.643 0.321 0.334 0 1.555 0.334 2.223 0.617 0.553 0.218 1.761 1.092 2.198 1.581 0.154 0.167 0.463 0.655 0.694 1.080 0.386 0.72 0.424 0.861 0.437 2.056 0.013 1.028-0.039 1.414-0.244 1.863-0.694 1.594-2.082 2.789-3.971 3.393-0.565 0.18-1.953 0.206-11.708 0.206-10.628 0-11.104-0.013-11.798-0.244-1.285-0.45-2.352-1.349-2.943-2.493-0.386-0.745-0.411-2.519-0.039-3.251 0.334-0.668 1.671-1.979 2.39-2.326 0.321-0.154 0.72-0.437 0.887-0.617l0.308-0.334-0.347-0.964c-0.321-0.938-0.334-1.002-0.128-1.581 0.231-0.694 0.437-0.951 1.131-1.414 0.476-0.308 0.617-0.334 1.799-0.321 0.707 0.013 1.452 0.077 1.645 0.154 0.476 0.206 1.002-0.064 1.298-0.643 0.129-0.231 0.308-0.591 0.424-0.784 0.334-0.643 1.696-1.979 2.455-2.429 0.81-0.476 1.439-0.745 2.403-1.041 0.912-0.27 3.239-0.283 4.164-0.013z"></path>
</svg>
