<!-- Generated by IcoMoon.io -->
<svg version="1.1" xmlns="http://www.w3.org/2000/svg" width="32" height="32" viewBox="0 0 32 32">
<title>cup</title>
<path d="M7.229 2.27c-0.385 0.318-0.645 0.846-1.106 2.228-0.57 1.709-0.628 1.818-1.19 2.010-0.88 0.327-1.081 0.871-1.081 2.999 0 2.346 0.486 3.058 2.086 3.058 0.327 0 0.595 0.025 0.595 0.059 0 1.248 1.902 16.628 2.094 16.921 0.494 0.754 0.746 0.779 7.707 0.779s7.213-0.025 7.707-0.779c0.193-0.293 2.094-15.673 2.094-16.921 0-0.034 0.268-0.059 0.595-0.059 1.592 0 2.086-0.72 2.086-3.049 0-2.119-0.168-2.588-1.064-2.991-0.628-0.276-0.67-0.36-1.223-2.061-0.444-1.365-0.687-1.86-1.081-2.195l-0.511-0.427h-17.206l-0.503 0.427zM24.821 4.976c0.26 0.72 0.469 1.324 0.469 1.349 0.008 0.025-4.029 0.042-8.972 0.042-8.486 0-8.972-0.017-8.863-0.293 0.067-0.159 0.26-0.712 0.436-1.215 0.176-0.511 0.352-0.997 0.385-1.089 0.034-0.109 2.848-0.151 8.067-0.134l8.017 0.042 0.461 1.298zM27.058 9.382v1.34h-21.445v-2.681h21.445v1.34zM24.226 13.906l-0.159 1.34h-15.464l-0.318-2.681h16.101l-0.159 1.34zM23.908 16.712c-0.050 0.343-0.251 2.17-0.452 4.063-0.193 1.885-0.394 3.602-0.436 3.812l-0.075 0.377h-13.219l-0.075-0.377c-0.042-0.209-0.243-1.927-0.436-3.812-0.201-1.893-0.402-3.719-0.452-4.063l-0.092-0.628h15.33l-0.092 0.628zM22.852 25.994c-0.008 0.034-0.075 0.62-0.134 1.315l-0.117 1.257h-12.507l-0.159-1.307c-0.084-0.712-0.134-1.315-0.117-1.34 0.067-0.059 13.051 0.017 13.035 0.075z"></path>
</svg>
