<!-- Generated by IcoMoon.io -->
<svg version="1.1" xmlns="http://www.w3.org/2000/svg" width="32" height="32" viewBox="0 0 32 32">
<title>data</title>
<path d="M14.531 3.192c-4.661 0.464-8.193 2.056-9.129 4.128-0.456 0.997-0.456 18.064 0 19.061 2.535 5.596 20.978 5.596 23.513 0 0.456-0.997 0.456-18.064 0-19.061-1.299-2.868-7.915-4.761-14.385-4.128zM21.48 5.171c6.184 1.113 7.946 4.097 3.556 6.006-5.449 2.365-15.853 1.453-17.878-1.577-1.391-2.072 1.963-4.112 7.76-4.715 1.19-0.124 5.271 0.054 6.562 0.286zM8.657 12.769c4.846 2.218 14.508 1.84 18.358-0.719l0.502-0.332v1.693c0 1.5-0.039 1.755-0.348 2.211-2.589 3.842-17.43 3.842-20.019 0-0.309-0.456-0.348-0.711-0.348-2.211v-1.693l0.502 0.332c0.278 0.185 0.889 0.51 1.353 0.719zM9.986 18.381c5.163 1.731 13.225 1.214 16.642-1.067l0.912-0.611-0.046 1.917c-0.054 1.894-0.062 1.925-0.518 2.412-3.3 3.494-16.224 3.54-19.556 0.077l-0.541-0.564-0.054-1.925-0.046-1.917 0.912 0.611c0.495 0.332 1.53 0.812 2.296 1.067zM8.487 22.949c4.877 2.466 15.212 2.033 18.543-0.773l0.487-0.41v1.847c0 1.785-0.015 1.871-0.441 2.458-2.667 3.679-17.167 3.679-19.834-0.008-0.425-0.58-0.441-0.665-0.441-2.45v-1.847l0.487 0.41c0.263 0.224 0.804 0.572 1.198 0.773z"></path>
<path d="M24.278 14.632c-0.402 0.518-0.402 0.603 0.062 1.067 0.533 0.533 1.476 0.178 1.476-0.557 0-0.827-1.020-1.167-1.538-0.51z"></path>
<path d="M24.193 19.849c-0.201 0.301-0.209 0.441-0.054 0.773 0.34 0.758 1.415 0.657 1.615-0.147 0.216-0.866-1.067-1.384-1.561-0.626z"></path>
<path d="M24.363 24.781c-0.325 0.24-0.379 0.92-0.093 1.268 0.317 0.379 1.036 0.286 1.337-0.17 0.518-0.788-0.471-1.662-1.244-1.098z"></path>
</svg>
