<!-- Generated by IcoMoon.io -->
<svg version="1.1" xmlns="http://www.w3.org/2000/svg" width="45" height="32" viewBox="0 0 45 32">
<title>diamond</title>
<path d="M10.835 1.853c-0.628 0.344-6.775 6.491-7.099 7.099-0.314 0.587-0.375 1.337-0.152 1.904 0.182 0.476 16.699 18.086 17.509 18.663s1.762 0.577 2.572 0c0.81-0.577 17.327-18.187 17.509-18.663 0.223-0.567 0.162-1.316-0.152-1.904-0.344-0.658-6.501-6.785-7.139-7.109-0.608-0.314-22.471-0.304-23.048 0.010zM16.81 3.99c0 0.020-0.425 0.446-0.952 0.942l-0.952 0.901-1.073-0.841c-1.387-1.073-1.408-1.043 0.952-1.043 1.114 0 2.025 0.010 2.025 0.041zM24.861 4.081c-0.071 0.182-2.329 1.995-2.481 1.995s-2.41-1.813-2.481-1.995c-0.030-0.071 1.094-0.132 2.481-0.132 1.397 0 2.511 0.061 2.481 0.132zM32 4.051c0 0.061-0.486 0.486-1.073 0.942l-1.073 0.841-0.952-0.901c-0.527-0.496-0.952-0.922-0.952-0.942 0-0.030 0.911-0.041 2.025-0.041s2.025 0.041 2.025 0.101zM19.858 5.61c0.891 0.739 1.549 1.408 1.458 1.478-0.081 0.061-0.668 0.557-1.306 1.084l-1.154 0.962-1.539-1.266-1.539-1.256 1.175-1.185c1.397-1.408 0.982-1.438 2.906 0.182zM27.808 5.428l1.175 1.185-1.529 1.256-1.539 1.256-1.154-0.972c-1.499-1.235-1.509-1.154 0.203-2.623 1.782-1.519 1.458-1.509 2.846-0.101zM12.537 5.408c0.628 0.516 1.225 1.023 1.327 1.114 0.122 0.101-0.446 0.82-1.408 1.782l-1.61 1.62h-5.063l2.724-2.734c1.499-1.509 2.765-2.734 2.815-2.734 0.040 0 0.587 0.425 1.215 0.952zM36.132 7.19l2.795 2.734h-5.013l-3.22-3.24 0.8-0.658c0.435-0.365 1.033-0.861 1.316-1.104 0.273-0.253 0.506-0.456 0.516-0.456 0-0.010 1.266 1.215 2.805 2.724zM16.415 8.648c0.78 0.638 1.408 1.185 1.408 1.215s-1.205 0.061-2.673 0.061h-2.684l1.205-1.215c1.438-1.458 1.063-1.448 2.744-0.061zM31.089 8.709l1.205 1.215h-2.714c-1.489 0-2.643-0.061-2.562-0.142 0.385-0.395 2.663-2.268 2.765-2.278 0.051-0.010 0.648 0.537 1.306 1.205zM24.83 9.762c0.061 0.091-1.063 0.162-2.481 0.162-2.896 0-2.825 0.091-0.982-1.377l1.003-0.81 1.185 0.932c0.648 0.516 1.225 1.003 1.276 1.094zM9.448 11.139h1.64l1.175 1.975c0.648 1.084 2.299 3.828 3.686 6.096 1.377 2.268 2.481 4.142 2.451 4.172-0.041 0.030-0.658-0.587-1.367-1.387-0.719-0.79-3.291-3.554-5.722-6.137-4.567-4.851-4.739-5.053-3.97-4.851 0.253 0.071 1.195 0.132 2.106 0.132zM18.228 11.068c0 0.253 2.886 14.157 2.957 14.278 0.061 0.091 0.010 0.172-0.111 0.172-0.111 0-0.213-0.081-0.213-0.172s-1.863-3.291-4.152-7.109c-2.278-3.818-4.152-6.997-4.152-7.068s1.276-0.132 2.835-0.132c1.56 0 2.835 0.010 2.835 0.030zM25.316 11.058c0 0.010-0.587 2.977-1.296 6.582-0.719 3.615-1.367 6.927-1.448 7.372l-0.152 0.81-0.162-0.608c-0.091-0.334-0.729-3.484-1.418-6.987-0.689-3.514-1.286-6.562-1.337-6.785-0.081-0.395 0.020-0.405 2.866-0.405 1.62 0 2.947 0.010 2.947 0.020zM32.203 11.17c0 0.071-1.863 3.251-4.152 7.068-2.278 3.818-4.152 7.018-4.152 7.109s-0.101 0.172-0.213 0.172c-0.122 0-0.172-0.071-0.122-0.162 0.081-0.122 1.58-7.342 2.775-13.306l0.203-1.013h2.825c1.559 0 2.835 0.061 2.835 0.132zM37.873 11.048c0 0.061-1.995 2.228-4.425 4.81s-5.003 5.347-5.722 6.137c-0.709 0.8-1.327 1.418-1.367 1.387-0.030-0.030 1.073-1.904 2.451-4.172 1.387-2.268 3.038-5.003 3.686-6.086l1.165-1.975 1.853-0.061c1.023-0.040 1.965-0.091 2.106-0.111s0.253 0.010 0.253 0.071z"></path>
</svg>
