<!-- Generated by IcoMoon.io -->
<svg version="1.1" xmlns="http://www.w3.org/2000/svg" width="34" height="32" viewBox="0 0 34 32">
<title>dispaly</title>
<path d="M4.068 2.061c-0.741 0.325-1.501 1.247-1.627 1.971-0.054 0.325-0.090 4.863-0.054 10.106 0.054 9.293 0.054 9.528 0.434 10.016 0.199 0.271 0.597 0.669 0.868 0.868 0.47 0.362 0.777 0.38 5.55 0.434l5.044 0.054v0.524c0 0.307-0.018 0.542-0.036 0.542-0.036 0-1.266 0.163-2.748 0.362-1.464 0.199-2.784 0.362-2.929 0.362-0.127 0-0.38 0.199-0.542 0.452-0.271 0.416-0.271 0.488 0 0.904l0.289 0.452h17.175l0.289-0.452c0.271-0.416 0.271-0.488 0-0.904-0.163-0.253-0.416-0.452-0.542-0.452-0.145 0-1.464-0.163-2.929-0.362-1.482-0.199-2.712-0.362-2.73-0.362-0.036 0-0.054-0.235-0.054-0.542v-0.524l5.044-0.054c4.773-0.054 5.080-0.072 5.55-0.434 0.271-0.199 0.669-0.597 0.868-0.868 0.38-0.488 0.38-0.687 0.38-10.504s0-10.016-0.38-10.504c-0.199-0.271-0.597-0.669-0.868-0.868-0.488-0.38-0.687-0.38-12.999-0.416-10.124-0.036-12.619 0-13.053 0.199zM29.36 3.905c0.253 0.253 0.289 1.374 0.289 9.69 0 8.515-0.036 9.455-0.307 9.763s-0.904 0.325-12.402 0.325c-11.028 0-12.149-0.018-12.457-0.307-0.307-0.271-0.325-0.814-0.325-9.69 0-8.497 0.036-9.437 0.307-9.745s0.904-0.325 12.457-0.325c10.811 0 12.185 0.036 12.438 0.289z"></path>
<path d="M6.328 5.785c-0.343 0.343-0.362 0.597-0.362 6.924 0 5.388 0.054 6.635 0.253 6.924 0.253 0.325 0.579 0.343 10.685 0.343s10.432-0.018 10.685-0.343c0.199-0.289 0.253-1.537 0.253-6.924 0-6.328-0.018-6.581-0.362-6.924-0.362-0.362-0.597-0.362-10.576-0.362s-10.215 0-10.576 0.362zM26.938 12.746v6.418h-20.068v-12.836h20.068v6.418z"></path>
</svg>
