<!-- Generated by IcoMoon.io -->
<svg version="1.1" xmlns="http://www.w3.org/2000/svg" width="48" height="32" viewBox="0 0 48 32">
<title>eye</title>
<path d="M20.722 3.103c-6.429 1.028-12.296 4.664-15.699 9.755-1.726 2.589-1.697 2.928 0.591 5.964 9.241 12.296 27.985 11.859 36.49-0.844 1.464-2.191 1.532-2.473 0.882-3.714-3.869-7.341-14.080-12.461-22.264-11.161zM26.822 5.721c5.081 0.882 10.065 4.015 12.965 8.126 1.144 1.639 1.144 1.503 0 3.142-7.796 11.084-24.65 11.084-32.446 0-1.144-1.639-1.144-1.503 0-3.142 4.286-6.090 12.209-9.396 19.481-8.126z"></path>
<path d="M22.051 6.798c-5.547 0.931-8.776 7.166-6.371 12.305 3.365 7.195 13.789 6.487 16.145-1.086 1.93-6.187-3.394-12.296-9.775-11.219zM25.745 8.31c3.762 1.173 6.012 5.139 5.023 8.853-2.288 8.543-14.594 7.069-14.565-1.745 0.019-5.207 4.625-8.64 9.542-7.108z"></path>
<path d="M21.372 10.977c-1.678 0.834-2.832 2.618-2.715 4.199 0.097 1.309 0.912 1.212 1.222-0.145 0.485-2.143 1.862-3.394 3.704-3.394 0.446 0 0.795-0.591 0.562-0.97-0.233-0.368-1.745-0.204-2.773 0.31z"></path>
</svg>
