<!-- Generated by IcoMoon.io -->
<svg version="1.1" xmlns="http://www.w3.org/2000/svg" width="26" height="32" viewBox="0 0 26 32">
<title>fire</title>
<path d="M5.421 2.042c0.263 0.967 0.681 3.355 0.8 4.585 0.239 2.519 0.012 4.513-1.063 9.672-1.003 4.752-0.967 6.89 0.131 9.134 0.394 0.812 0.693 1.218 1.516 2.042 0.848 0.848 1.206 1.11 2.149 1.564 1.743 0.848 2.448 0.991 4.836 0.979 4.346-0.024 6.937-0.931 8.454-2.949 0.609-0.8 0.979-1.66 1.349-3.069 1.063-4.048-0.131-8.884-3.284-13.302l-0.669-0.931-0.096 0.394c-0.31 1.29-0.537 1.887-0.991 2.663-0.752 1.278-0.836 1.313-0.919 0.346-0.191-1.994-1.254-4.37-2.842-6.364l-0.513-0.657-0.227 1.134c-0.239 1.23-0.8 2.734-1.337 3.582l-0.334 0.537-0.275-0.824c-0.919-2.699-3.093-5.815-5.445-7.797-1.266-1.063-1.349-1.11-1.242-0.74zM8.716 7.821c1.122 1.863 1.934 3.773 2.675 6.364l0.394 1.349 1.087-1.648c0.585-0.907 1.313-2.078 1.588-2.603l0.513-0.943 0.155 0.394c0.37 0.884 0.872 4.931 0.872 7.045v0.788l1.17-1.194c1.015-1.027 2.090-2.352 2.782-3.403l0.191-0.299 0.43 0.836c0.49 0.991 1.087 2.615 1.373 3.809 0.322 1.325 0.287 4.119-0.084 5.445-0.752 2.794-2.078 3.833-5.504 4.358-0.621 0.096-1.815 0.179-2.639 0.179-2.591 0-4.179-0.585-5.672-2.078-1.504-1.504-1.91-2.722-1.803-5.266 0.084-1.707 0.203-2.472 0.907-5.707 0.645-2.961 0.848-4.549 0.848-6.651 0-0.991 0.024-1.791 0.048-1.791 0.036 0 0.334 0.454 0.669 1.015z"></path>
<path d="M8.896 14.89c-0.776 2.185-1.075 3.654-1.206 6.078-0.096 1.803-0.036 2.102 0.406 2.054l0.322-0.036 0.084-1.373c0.167-2.615 0.585-5.182 0.812-4.931 0.048 0.048 0.537 1.134 1.087 2.4 1.146 2.651 0.86 2.579 2.221 0.585 0.442-0.633 0.836-1.158 0.884-1.158 0.036 0 0.119 0.275 0.155 0.621 0.084 0.621 0.752 2.842 0.86 2.842 0.024 0 0.394-0.167 0.8-0.37 1.11-0.561 2.567-1.564 3.355-2.316l0.693-0.669-0.048 1.528c-0.036 1.087-0.131 1.815-0.322 2.519-0.227 0.788-0.251 1.015-0.131 1.158 0.525 0.633 1.027-0.49 1.325-2.973 0.107-0.884 0.107-1.469 0-2.388-0.227-1.97-0.072-1.946-1.731-0.275-1.075 1.087-1.696 1.6-2.412 2.030-0.537 0.31-1.003 0.561-1.039 0.561s-0.179-0.442-0.322-0.991c-0.191-0.681-0.299-1.481-0.346-2.615l-0.072-1.636-1.29 2.030c-0.716 1.11-1.337 1.994-1.397 1.958-0.119-0.072-1.385-3.033-1.91-4.478-0.203-0.549-0.394-1.027-0.406-1.051-0.024-0.012-0.191 0.382-0.37 0.896z"></path>
</svg>
