<!-- Generated by IcoMoon.io -->
<svg version="1.1" xmlns="http://www.w3.org/2000/svg" width="30" height="32" viewBox="0 0 30 32">
<title>food</title>
<path d="M15.080 3.24c0.016 0.768-0.088 1.24-0.424 2.016-0.752 1.752-0.72 3.224 0.072 3.224 0.336 0 0.352-0.048 0.312-1.136-0.016-0.48 0.128-1.096 0.4-1.76 0.736-1.784 0.696-3.344-0.072-3.344-0.272 0-0.304 0.12-0.288 1z"></path>
<path d="M19.384 5.976c-0.136 0.152-0.144 0.352-0.040 0.624 0.184 0.48 0.048 1.136-0.52 2.552-0.464 1.16-0.544 2.296-0.208 2.76 0.408 0.56 0.712 0.2 0.704-0.824-0.016-0.672 0.104-1.216 0.424-1.968 0.792-1.896 0.528-4.216-0.36-3.144z"></path>
<path d="M9.224 6.032c-0.056 0.056-0.064 0.432-0.008 0.84 0.072 0.592 0 0.96-0.424 2.008-0.608 1.496-0.72 2.784-0.28 3.224 0.448 0.44 0.736 0.056 0.648-0.864-0.056-0.592 0.040-1.040 0.424-2.008 0.76-1.912 0.52-4.080-0.36-3.2z"></path>
<path d="M13.84 12.328c-3.52 0.464-6.744 3.368-7.608 6.832l-0.168 0.68h-1.504c-1.456 0-1.528 0.016-2.072 0.496-1.216 1.064-1.024 1.824 1.032 4.144 1.4 1.576 1.6 1.872 1.6 2.384 0 0.72 0.48 1.528 1.104 1.848 0.72 0.376 17.072 0.376 17.792 0 0.624-0.32 1.104-1.128 1.104-1.848 0-0.512 0.2-0.808 1.6-2.384 2.016-2.272 2.224-3.024 1.112-4.088-0.464-0.448-0.592-0.48-2.12-0.552-2.392-0.12-2.36-0.416 0.152-1.6 2.728-1.28 3.216-1.84 2.192-2.512-0.416-0.272-0.44-0.264-2.432 0.76-1.112 0.568-2.056 1.048-2.104 1.064-0.040 0.024-0.32-0.384-0.616-0.896-1.736-3.032-5.464-4.808-9.064-4.328zM17.168 13.36c1.952 0.504 3.584 1.648 4.752 3.312 0.92 1.312 0.92 1.304 0.432 1.528-0.336 0.152-0.408 0.096-0.8-0.6-3.088-5.496-11.776-4.496-13.56 1.56-0.176 0.6-0.256 0.68-0.672 0.68-0.512 0-0.512 0.008 0.032-1.456 1.432-3.808 5.832-6.064 9.816-5.024zM17.496 15.2c1.76 0.664 4.176 3.16 3.52 3.64-0.432 0.312-0.64 0.24-0.856-0.288-1.672-4.024-8.456-3.76-10.256 0.392-0.416 0.968-1.448 1.432-1.176 0.536 1.096-3.616 5.2-5.616 8.768-4.28zM16.84 16.736c1.448 0.488 3.2 2.448 2.6 2.888-0.416 0.296-0.416 0.296-0.96-0.552-1.52-2.368-5.2-2.368-6.72 0-0.376 0.592-0.576 0.752-0.92 0.76-0.552 0.008-0.552-0.080 0.016-0.968 1.288-2.032 3.728-2.904 5.984-2.128zM16.4 18.384c0.64 0.288 1.52 1.056 1.52 1.32 0 0.256-0.832 0.136-1.232-0.184-0.912-0.72-2.224-0.72-3.136 0-0.4 0.32-1.232 0.44-1.232 0.184 0-0.584 1.792-1.616 2.8-1.616 0.352 0 0.928 0.128 1.28 0.296zM26.8 21.6c0.056 0.088-0.656 1.016-1.592 2.064-1.608 1.8-1.688 1.928-1.688 2.6 0 1.16 0.472 1.096-8.4 1.096s-8.4 0.064-8.4-1.096c0-0.672-0.080-0.8-1.688-2.6-0.936-1.048-1.648-1.976-1.592-2.064 0.136-0.224 23.224-0.224 23.36 0z"></path>
</svg>
