<!-- Generated by IcoMoon.io -->
<svg version="1.1" xmlns="http://www.w3.org/2000/svg" width="36" height="32" viewBox="0 0 36 32">
<title>heart</title>
<path d="M8.178 0.338c-6.382 1.44-9.831 8.391-7.164 14.453 1.28 2.898 14.738 16.142 16.409 16.142 1.547 0 14.702-12.8 16.249-15.804 4.622-9.031-5.084-18.382-14.276-13.724-2.169 1.102-2.382 1.156-2.969 0.622-1.547-1.404-5.724-2.258-8.249-1.689zM13.938 3.040c0.64 0.32 1.689 1.084 2.329 1.689l1.156 1.102 1.156-1.102c6.72-6.382 17.44 1.262 13.138 9.369-0.676 1.28-13.778 14.702-14.347 14.702-0.587 0-13.564-13.44-14.311-14.809-3.538-6.578 4.16-14.347 10.88-10.951z"></path>
<path d="M8.32 5.831c-1.867 0.836-3.378 3.307-2.844 4.693 0.302 0.8 1.28-0.018 1.28-1.084 0-0.96 1.333-2.276 2.702-2.631 1.084-0.302 1.422-1.227 0.498-1.369-0.284-0.053-1.031 0.124-1.636 0.391z"></path>
</svg>
