<!-- Generated by IcoMoon.io -->
<svg version="1.1" xmlns="http://www.w3.org/2000/svg" width="32" height="32" viewBox="0 0 32 32">
<title>key</title>
<path d="M18.612 3.265c-2.482 0.827-4.637 3.026-5.442 5.551-0.283 0.958-0.348 1.676-0.261 3.113 0.065 1.045 0.174 2.112 0.261 2.373 0.131 0.392-0.457 1.088-3.744 4.463-2.133 2.199-4.528 4.68-5.355 5.551l-1.458 1.546v1.872c0 1.72 0.044 1.937 0.544 2.416 0.479 0.501 0.697 0.544 2.351 0.544h1.807l0.849-0.871c0.805-0.805 0.936-0.871 2.090-0.871 1.001 0 1.371-0.109 1.85-0.501 0.522-0.457 0.588-0.653 0.544-1.741l-0.022-1.241h1.219c0.98 0 1.284-0.087 1.72-0.544 0.457-0.435 0.544-0.74 0.544-1.894 0-1.371 0.022-1.393 1.067-2.438 0.98-0.98 1.088-1.023 1.567-0.762 0.327 0.196 1.263 0.305 2.482 0.305 1.676 0 2.133-0.087 3.222-0.588 5.616-2.634 6.879-10.101 2.395-14.346-2.264-2.155-5.399-2.895-8.229-1.937zM24.054 5.29c1.284 0.653 2.482 1.85 3.178 3.2 0.435 0.827 0.522 1.306 0.522 3.048 0 1.829-0.065 2.199-0.588 3.156-1.633 3.091-4.985 4.484-8.12 3.418l-1.306-0.457-1.611 1.611-1.633 1.611-0.087 1.437-0.087 1.415h-1.088c-1.546 0-2.133 0.631-2.133 2.286v1.197h-1.306c-1.241 0-1.371 0.065-2.264 0.871-0.849 0.784-1.067 0.871-2.068 0.871h-1.11v-2.525l5.464-5.638c4.484-4.637 5.42-5.725 5.312-6.095-0.958-2.939-0.914-4.223 0.131-6.356 1.589-3.287 5.616-4.68 8.795-3.048z"></path>
<path d="M21.094 6.814c-0.871 0.588-1.72 1.981-1.546 2.59 0.174 0.653 3.418 3.875 3.918 3.875 0.675 0 1.85-0.914 2.373-1.85 0.435-0.784 0.457-0.893 0.131-1.502-0.479-0.936-3.244-3.614-3.722-3.614-0.239 0-0.74 0.218-1.154 0.501zM23.924 8.838l1.567 1.633-0.414 0.675c-0.239 0.37-0.697 0.827-1.023 1.023l-0.566 0.348-1.633-1.698-1.654-1.698 0.392-0.588c0.457-0.697 1.175-1.328 1.524-1.35 0.131 0 0.958 0.74 1.807 1.654z"></path>
</svg>
