<!-- Generated by IcoMoon.io -->
<svg version="1.1" xmlns="http://www.w3.org/2000/svg" width="33" height="32" viewBox="0 0 33 32">
<title>lab</title>
<path d="M26.959 2.396c-2.367 1.052-1.184 4.588 1.344 4.033 0.701-0.161 1.447-0.964 1.593-1.68 0.161-0.891-0.307-1.826-1.11-2.236-0.731-0.365-1.198-0.395-1.826-0.117zM28.698 3.448c0.541 0.555 0.526 1.257-0.058 1.841-0.395 0.38-0.526 0.438-0.979 0.365-0.292-0.058-0.658-0.219-0.804-0.365s-0.307-0.511-0.365-0.804c-0.073-0.453-0.015-0.584 0.365-0.979 0.584-0.584 1.286-0.599 1.841-0.058z"></path>
<path d="M17.607 5.1c-0.234 0.146-0.848 0.687-1.344 1.213-0.994 1.037-1.227 1.651-0.935 2.484 0.088 0.248 0.117 0.511 0.058 0.555-0.073 0.058-2.776 1.169-6.035 2.484-3.258 1.3-6.079 2.513-6.269 2.689-0.438 0.395-0.891 1.344-0.891 1.914 0 1.008 0.453 1.52 6.298 7.291 5.801 5.742 6.371 6.225 7.364 6.225 0.658 0 1.593-0.497 2.002-1.037 0.205-0.278 1.403-3.112 2.659-6.312 1.271-3.185 2.338-5.801 2.396-5.801s0.351 0.073 0.672 0.161c0.862 0.234 1.607-0.117 2.762-1.315 0.687-0.701 0.979-1.14 1.052-1.505 0.219-1.154 0.131-1.271-3.784-5.216-2.016-2.031-3.872-3.784-4.135-3.901-0.643-0.278-1.344-0.248-1.87 0.073zM22.268 10.068c2.864 2.864 3.463 3.536 3.39 3.784-0.117 0.351-1.315 1.49-1.578 1.49-0.102 0-0.555-0.365-1.008-0.818l-0.818-0.818-0.555 1.403-0.555 1.388-0.891-0.701c-1.87-1.461-3.142-1.943-6.517-2.44-1.315-0.205-2.426-0.38-2.44-0.409-0.029-0.029 1.534-0.687 3.492-1.476 1.958-0.774 3.58-1.447 3.609-1.476 0.044-0.044-0.278-0.409-0.687-0.833-0.424-0.424-0.76-0.862-0.76-0.979 0-0.278 1.315-1.607 1.607-1.607 0.117 0 1.783 1.563 3.711 3.492zM10.564 13.662c0.424 0.117 1.549 0.307 2.513 0.438 3.741 0.482 5.143 1.023 7.145 2.747l0.57 0.497-2.090 5.216c-1.14 2.864-2.177 5.319-2.294 5.436-0.555 0.555-0.745 0.409-6.59-5.363-3.112-3.069-5.713-5.699-5.786-5.859-0.088-0.175-0.088-0.424 0-0.658 0.117-0.336 0.511-0.541 2.908-1.52 1.534-0.614 2.805-1.14 2.82-1.14 0.029-0.015 0.395 0.088 0.804 0.205z"></path>
<path d="M10.126 15.416c-0.248 0.102-0.57 0.395-0.687 0.643-0.964 1.856 1.315 3.536 2.689 1.973 0.745-0.862 0.497-2.133-0.526-2.616-0.57-0.263-0.862-0.263-1.476 0zM11.426 16.321c0.526 0.468 0.161 1.505-0.526 1.505-0.395 0-0.584-0.131-0.804-0.541-0.219-0.438-0.205-0.584 0.132-0.921 0.351-0.351 0.833-0.38 1.198-0.044z"></path>
<path d="M15.532 16.38c-1.71 0.848-1.447 3.434 0.395 3.901 2.119 0.541 3.638-2.031 2.089-3.507-0.789-0.745-1.534-0.862-2.484-0.395zM17.403 17.374c0.292 0.292 0.424 0.57 0.424 0.891 0 0.628-0.687 1.315-1.315 1.315s-1.315-0.687-1.315-1.315c0-0.321 0.132-0.599 0.424-0.891 0.584-0.57 1.198-0.57 1.783 0z"></path>
<path d="M12.756 21.713c-0.219 0.351-0.219 0.424-0.029 0.774 0.409 0.716 1.593 0.468 1.593-0.351 0-0.789-1.125-1.096-1.563-0.424z"></path>
<path d="M26.637 8.709c-0.219 0.351-0.219 0.424-0.029 0.774 0.409 0.716 1.593 0.468 1.593-0.351 0-0.789-1.125-1.096-1.563-0.424z"></path>
</svg>
