<!-- Generated by IcoMoon.io -->
<svg version="1.1" xmlns="http://www.w3.org/2000/svg" width="34" height="32" viewBox="0 0 34 32">
<title>like</title>
<path d="M16.841 0.885c-0.988 0.516-1.504 1.475-1.504 2.787 0 2.374-1.43 4.778-3.48 5.869l-0.87 0.457-0.516-0.265c-0.428-0.236-0.855-0.28-2.566-0.295-2.315 0-2.817 0.162-3.48 1.135l-0.369 0.546-0.044 7.521c-0.044 7.86-0.030 8.229 0.59 9.010 0.575 0.737 1.312 0.959 3.288 0.959 2.020 0 2.713-0.221 3.347-1.032l0.369-0.472 2.271 0.531c3.701 0.855 4.144 0.9 8.612 0.9 3.996 0 4.144-0.015 4.748-0.324 1.062-0.575 1.873-2.006 1.799-3.156-0.029-0.413 0.059-0.664 0.428-1.106 0.723-0.87 1.091-2.006 1.047-3.156-0.044-0.826 0.015-1.047 0.354-1.652 0.236-0.369 0.472-0.9 0.546-1.18 0.192-0.649 0.192-1.784-0.015-2.227-0.133-0.295-0.103-0.472 0.162-0.973 0.929-1.829 0.295-3.923-1.416-4.734-0.811-0.369-2.949-0.575-6.061-0.59h-1.932l0.074-1.74c0.088-2.006-0.074-3.023-0.708-4.291-0.487-0.988-1.46-2.065-2.183-2.448-0.796-0.398-1.77-0.428-2.492-0.074zM19.185 3.082c1.003 1.047 1.312 1.976 1.312 3.982 0 1.239-0.074 1.873-0.339 2.772l-0.339 1.18 4.35 0.088c2.433 0.044 4.601 0.162 4.911 0.251 0.767 0.221 1.15 0.767 1.15 1.637 0 0.531-0.088 0.811-0.354 1.121-0.339 0.398-0.442 0.413-1.888 0.487-1.504 0.074-1.519 0.074-1.519 0.442 0 0.354 0.029 0.369 1.357 0.442 1.018 0.059 1.416 0.133 1.637 0.339 0.619 0.56 0.501 1.799-0.265 2.654-0.413 0.457-0.442 0.472-2.020 0.546-1.475 0.074-1.593 0.088-1.637 0.383s0.029 0.31 1.268 0.383c1.475 0.088 1.902 0.251 2.035 0.811 0.133 0.516-0.295 1.829-0.752 2.256-0.398 0.369-1.283 0.56-2.699 0.575-0.723 0.015-0.782 0.044-0.737 0.339 0.044 0.31 0.147 0.339 1.091 0.413 1.342 0.088 1.593 0.28 1.489 1.165-0.059 0.501-0.192 0.767-0.531 1.076l-0.457 0.413h-3.628c-2.522 0-4.1-0.074-5.132-0.221-1.902-0.295-6.105-1.312-6.326-1.534-0.133-0.133-0.192-1.858-0.221-6.459-0.030-5.22 0-6.326 0.177-6.592 0.103-0.177 0.723-0.575 1.357-0.885 2.654-1.312 4.276-3.878 4.571-7.241 0.118-1.18 0.354-1.548 0.988-1.548 0.354 0 0.619 0.162 1.15 0.723zM9.865 11.443c0.31 0.383 0.31 0.531 0.31 7.594 0 8.641 0.236 7.801-2.241 7.801-1.327 0-1.696-0.044-1.917-0.251-0.251-0.221-0.265-0.649-0.265-7.653v-7.418l0.324-0.221c0.251-0.177 0.723-0.236 1.902-0.236 1.534 0 1.593 0.015 1.888 0.383z"></path>
<path d="M7.005 23.816c-0.516 0.501-0.487 1.15 0.059 1.711 0.855 0.841 2.079 0.339 2.079-0.87 0-1.121-1.342-1.652-2.138-0.841zM8.258 24.406c0.251 0.295 0.074 0.664-0.295 0.664-0.339 0-0.516-0.324-0.383-0.664 0.103-0.28 0.442-0.28 0.678 0z"></path>
</svg>
