<!-- Generated by IcoMoon.io -->
<svg version="1.1" xmlns="http://www.w3.org/2000/svg" width="26" height="32" viewBox="0 0 26 32">
<title>location</title>
<path d="M10.902 1.82c-6.227 1.278-9.843 7.647-8 14.102 1.357 4.784 8.251 14.51 10.274 14.51 1.898 0 8.643-9.294 10.094-13.914 2.729-8.667-3.827-16.455-12.369-14.698zM15.969 3.851c6.541 2.196 8.008 8.925 3.584 16.431-1.286 2.188-5.976 8.267-6.376 8.267-0.157 0-2.722-3.075-4.204-5.051-4.996-6.635-6.047-11.906-3.231-16.141 2.188-3.294 6.478-4.761 10.227-3.506z"></path>
<path d="M11.498 7.027c-4.926 1.757-4.965 8.392-0.071 10.235 3.726 1.396 7.82-2.086 7.075-6.016-0.612-3.239-4.016-5.286-7.004-4.22zM15.137 8.118c4.22 2.173 2.761 8.51-1.961 8.51-5.129 0-6.157-7.2-1.255-8.808 0.69-0.22 2.533-0.055 3.216 0.298z"></path>
</svg>
