<!-- Generated by IcoMoon.io -->
<svg version="1.1" xmlns="http://www.w3.org/2000/svg" width="25" height="32" viewBox="0 0 25 32">
<title>lock</title>
<path d="M9.66 2.206c-3.727 1.282-5.327 3.707-5.486 8.318l-0.099 2.872-0.656 0.139c-1.759 0.358-2.027 1.143-2.027 5.913 0 6.35 1.212 8.825 5.118 10.405 1.749 0.696 9.481 0.696 11.23 0 3.906-1.58 5.118-4.055 5.118-10.405 0-4.77-0.268-5.555-2.027-5.913l-0.656-0.139 0.060-1.481c0.278-7.096-4.75-11.717-10.574-9.709zM14.847 4.243c2.643 1.342 3.627 3.419 3.637 7.642v1.65l-1.888-0.119 0.060-1.888c0.129-3.856-1.57-6.162-4.532-6.162s-4.661 2.316-4.532 6.162l0.060 1.888h-1.789l0.070-2.584c0.060-2.166 0.139-2.743 0.517-3.578 1.431-3.15 5.357-4.561 8.398-3.011zM13.675 6.638c1.511 0.785 2.027 2.007 2.027 4.78v2.097h-7.155v-2.097c0-4.045 2.345-6.231 5.128-4.78zM20.8 15.533c0.606 0.497 0.298 8.159-0.388 9.54-1.411 2.882-2.773 3.448-8.288 3.448-5.545 0-7.026-0.646-8.417-3.657-0.636-1.361-0.775-8.964-0.169-9.391 0.527-0.368 16.815-0.318 17.262 0.060z"></path>
<path d="M11.399 18.971c-1.153 0.497-1.302 1.272-0.656 3.369 0.278 0.894 0.557 1.421 0.894 1.63 0.775 0.517 1.371-0.010 1.868-1.63 0.656-2.117 0.497-2.882-0.696-3.379-0.795-0.328-0.636-0.328-1.411 0.010z"></path>
</svg>
