<!-- Generated by IcoMoon.io -->
<svg version="1.1" xmlns="http://www.w3.org/2000/svg" width="33" height="32" viewBox="0 0 33 32">
<title>megaphone</title>
<path d="M22.836 2.72c-0.909 0.327-2.087 1.578-3.055 3.229-1.033 1.76-2.255 3.018-3.571 3.665l-1.004 0.495-9.92 0.145-0.618 0.407c-2.982 1.978-1.818 7.927 1.556 7.956 1.644 0.007 1.775 0.422 1.775 5.527 0 5.724-0.124 5.527 3.484 5.527h2.196l0.531-0.487c0.858-0.785 0.851-2.567-0.022-3.287-0.422-0.356-0.327-6.771 0.109-7.055 1.135-0.742 3.92 1.287 5.564 4.065 4.451 7.505 10.749 1.527 10.196-9.673-0.364-7.389-3.462-11.898-7.222-10.516zM25.411 4.64c3.178 2.305 4.007 12.676 1.404 17.629-1.978 3.775-4.778 2.72-6.218-2.342l-0.349-1.236 1.549-0.080c2.756-0.131 3.993-1.433 4.015-4.225 0.022-2.764-1.229-4.102-3.92-4.182l-1.644-0.044 0.342-1.265c1.062-3.847 3.011-5.571 4.822-4.255zM18.444 10.996c-0.225 1.142-0.225 5.724 0 6.735 0.233 0.996 0.204 1.011-0.669 0.385-0.895-0.647-2.015-1.040-3.324-1.171-1.964-0.204-2.8-2.167-1.775-4.182 0.342-0.684 0.822-0.924 2.015-1.018 1.164-0.095 2.393-0.545 3.222-1.193 0.771-0.589 0.742-0.611 0.531 0.444zM12.189 11.891c-1.018 1.985-1.025 3.316-0.015 4.982 0.124 0.204-6.298-0.029-6.625-0.24-1.178-0.764-1.2-3.476-0.029-4.458l0.465-0.393h3.127c1.724 0 3.105 0.051 3.076 0.109zM23.2 12.095c1.164 0.916 1.251 3.571 0.145 4.487-0.458 0.385-3.236 0.444-3.338 0.073-0.109-0.4-0.102-4.356 0.007-4.64 0.153-0.4 2.662-0.327 3.185 0.080zM12.291 22.378v3.753l0.4 0.582c0.218 0.313 0.4 0.735 0.4 0.931v0.356l-3.36-0.058 0.007-3.898c0.015-3.098-0.029-4.051-0.204-4.625-0.124-0.4-0.225-0.742-0.225-0.764s0.669-0.036 1.491-0.036h1.491v3.76z"></path>
</svg>
