<!-- Generated by IcoMoon.io -->
<svg version="1.1" xmlns="http://www.w3.org/2000/svg" width="36" height="32" viewBox="0 0 36 32">
<title>music</title>
<path d="M21.89 3.525c-7.675 1.371-7.736 1.389-8.22 1.925l-0.484 0.536v15.938l-0.879-0.44c-3.56-1.758-8.58 0.791-8.923 4.527-0.413 4.589 6.356 6.462 10.040 2.769 1.477-1.477 1.424-1.143 1.486-9.925 0.026-4.281 0.070-7.78 0.105-7.78 0.026 0 3.209-0.563 7.068-1.24 3.859-0.686 7.27-1.292 7.587-1.345l0.571-0.097v10.919l-0.826-0.457c-2.875-1.609-7.701 0.193-8.747 3.262-1.82 5.354 5.943 8.22 10.004 3.692 1.363-1.503 1.327-1.204 1.327-12.501v-10.004l-0.598-0.598c-0.782-0.782-0.352-0.818-9.512 0.818zM30.242 5.231v1.363l-7.429 1.301c-4.088 0.712-7.525 1.336-7.648 1.38-0.167 0.062-0.22-0.273-0.22-1.301v-1.389l7.341-1.292c4.035-0.712 7.376-1.319 7.411-1.354 0.387-0.352 0.545 0.026 0.545 1.292zM28.747 20.492c0.914 0.466 1.574 1.688 1.398 2.602-0.703 3.78-8 4.29-7.991 0.554 0.009-2.602 3.965-4.492 6.593-3.156zM11.754 23.2c3.112 1.582 0.782 5.706-3.226 5.714-1.029 0.009-1.363-0.070-2.040-0.466-3.815-2.242 1.266-7.297 5.266-5.248z"></path>
</svg>
