<!-- Generated by IcoMoon.io -->
<svg version="1.1" xmlns="http://www.w3.org/2000/svg" width="32" height="32" viewBox="0 0 32 32">
<title>news</title>
<path d="M7.519 2.029c-0.198 0.047-0.494 0.156-0.65 0.239-0.343 0.182-0.869 0.702-1.020 1.015-0.302 0.619-0.297 0.578-0.323 1.826-0.026 1.374 0.052 1.238-0.749 1.238-0.864 0-1.473 0.229-1.988 0.749-0.375 0.375-0.604 0.796-0.728 1.332-0.078 0.364-0.083 1.056-0.073 9.496 0.016 8.674 0.021 9.121 0.109 9.444 0.057 0.187 0.12 0.359 0.146 0.39 0.026 0.026 0.047 0.083 0.047 0.13 0 0.151 0.51 0.864 0.827 1.16 0.328 0.302 0.874 0.661 1.009 0.661 0.047 0 0.094 0.021 0.109 0.047s0.213 0.088 0.432 0.14c0.39 0.094 0.838 0.099 11.359 0.099s10.968-0.005 11.359-0.099c0.219-0.052 0.416-0.114 0.432-0.14s0.062-0.047 0.109-0.047c0.135 0 0.682-0.359 1.009-0.661 0.323-0.302 0.827-1.009 0.827-1.166 0-0.052 0.021-0.104 0.047-0.12s0.088-0.213 0.14-0.432c0.094-0.39 0.099-0.848 0.099-11.775 0-12.014 0.010-11.458-0.224-12.046-0.213-0.531-0.791-1.108-1.337-1.342-0.604-0.255-0.125-0.245-10.719-0.239-9.34 0.005-9.907 0.010-10.25 0.099zM27.77 3.736c0.255 0.114 0.338 0.193 0.479 0.468l0.109 0.213v11.156c0 10.224-0.005 11.177-0.088 11.411-0.198 0.593-0.64 1.035-1.233 1.233-0.234 0.083-1.155 0.088-11.010 0.088s-10.776-0.005-11.010-0.088c-0.593-0.198-1.035-0.64-1.233-1.233-0.083-0.234-0.088-1.030-0.088-9.225 0-8.715 0.005-8.976 0.099-9.163 0.135-0.265 0.297-0.401 0.593-0.499 0.281-0.094 0.874-0.109 1.030-0.031 0.099 0.057 0.099 0.208 0.099 8.835 0 4.829 0.021 8.866 0.047 8.97 0.13 0.567 0.942 0.796 1.358 0.39 0.094-0.088 0.193-0.224 0.229-0.297 0.042-0.094 0.062-3.013 0.083-10.932l0.026-10.802 0.146-0.187c0.078-0.109 0.234-0.239 0.338-0.297 0.187-0.099 0.375-0.099 10.006-0.104 9.277 0 9.829 0.005 10.021 0.094z"></path>
<path d="M9.647 5.51c-0.25 0.062-0.421 0.219-0.541 0.484-0.099 0.234-0.104 0.333-0.104 3.408 0 3.585-0.016 3.445 0.421 3.757l0.219 0.161h6.629l0.219-0.161c0.411-0.291 0.395-0.156 0.411-3.611 0.010-2.217 0-3.153-0.047-3.367-0.073-0.349-0.291-0.598-0.598-0.671-0.239-0.052-6.374-0.052-6.608 0zM15.115 9.392v2.185h-4.371l-0.016-2.133c-0.005-1.171 0-2.165 0.016-2.201 0.016-0.052 0.484-0.062 2.196-0.052l2.175 0.016v2.185z"></path>
<path d="M18.789 7.368c-0.146 0.182-0.14 0.39 0.010 0.531l0.12 0.114h3.694c2.029 0 3.715-0.021 3.752-0.042 0.099-0.062 0.177-0.317 0.14-0.458-0.073-0.291 0.062-0.281-3.928-0.281h-3.684l-0.104 0.135z"></path>
<path d="M18.794 10.006c-0.151 0.161-0.151 0.401 0.005 0.546l0.12 0.114h3.7c3.455 0 3.7-0.005 3.772-0.094 0.047-0.047 0.099-0.14 0.114-0.198 0.036-0.125-0.047-0.385-0.14-0.447-0.036-0.021-1.727-0.042-3.762-0.042h-3.7l-0.109 0.12z"></path>
<path d="M18.992 12.524c-0.312 0.114-0.401 0.442-0.182 0.666l0.135 0.13h3.653c3.455 0 3.658-0.005 3.778-0.099 0.156-0.12 0.182-0.473 0.042-0.614-0.088-0.088-0.328-0.094-3.72-0.104-1.993-0.005-3.663 0.005-3.705 0.021z"></path>
<path d="M9.257 15.178c-0.094 0.021-0.255 0.281-0.255 0.401 0 0.047 0.073 0.156 0.156 0.239l0.161 0.156h16.9l0.14-0.125c0.193-0.161 0.203-0.468 0.026-0.609-0.114-0.094-0.39-0.099-8.585-0.094-4.652 0.005-8.497 0.016-8.544 0.031z"></path>
<path d="M9.251 17.826c-0.276 0.146-0.317 0.354-0.114 0.588l0.135 0.161h8.481c5.874 0 8.507-0.016 8.58-0.057 0.245-0.13 0.239-0.572-0.010-0.697-0.224-0.12-16.859-0.114-17.072 0.005z"></path>
<path d="M9.137 20.558c-0.177 0.208-0.172 0.333 0.016 0.52l0.151 0.151h7.279l0.14-0.13c0.177-0.166 0.182-0.401 0.005-0.572l-0.125-0.13h-7.331l-0.135 0.161z"></path>
<path d="M18.82 20.527c-0.193 0.182-0.187 0.39 0.021 0.567l0.161 0.135h3.621c3.486 0 3.632-0.005 3.757-0.099 0.099-0.078 0.13-0.151 0.13-0.317s-0.031-0.239-0.13-0.317c-0.125-0.094-0.271-0.099-3.772-0.099h-3.642l-0.146 0.13z"></path>
<path d="M9.225 23.113c-0.094 0.068-0.182 0.172-0.198 0.239-0.042 0.172 0.104 0.406 0.291 0.474 0.114 0.042 1.233 0.057 3.637 0.057 3.752 0 3.798-0.005 3.871-0.271 0.057-0.219 0.031-0.307-0.12-0.463l-0.151-0.151h-7.165l-0.166 0.114z"></path>
<path d="M18.831 23.149c-0.229 0.234-0.187 0.505 0.109 0.656 0.13 0.068 0.63 0.078 3.647 0.078 2.586 0 3.543-0.016 3.674-0.062 0.307-0.114 0.343-0.541 0.057-0.739-0.104-0.073-0.5-0.083-3.726-0.083h-3.611l-0.151 0.151z"></path>
<path d="M9.153 25.803c-0.182 0.187-0.193 0.317-0.026 0.51l0.125 0.146 3.585 0.016c2.404 0.010 3.642 0 3.767-0.042 0.286-0.078 0.349-0.427 0.125-0.65l-0.125-0.13h-7.3l-0.151 0.151z"></path>
<path d="M18.82 25.798c-0.166 0.172-0.177 0.354-0.031 0.531l0.109 0.13h3.715c3.455 0 3.715-0.005 3.804-0.088 0.13-0.135 0.114-0.427-0.036-0.588l-0.12-0.13h-7.3l-0.14 0.146z"></path>
</svg>
