<!-- Generated by IcoMoon.io -->
<svg version="1.1" xmlns="http://www.w3.org/2000/svg" width="34" height="32" viewBox="0 0 34 32">
<title>note</title>
<path d="M4.827 1.867c-0.085 0.027-0.245 0.069-0.347 0.096-0.181 0.053-0.421 0.155-0.693 0.304-0.171 0.091-0.725 0.651-0.827 0.832-0.203 0.352-0.256 0.496-0.4 1.045-0.032 0.128-0.053 4.325-0.053 11.509s0.021 11.381 0.053 11.504c0.144 0.549 0.187 0.667 0.4 1.056 0.091 0.171 0.651 0.725 0.832 0.827 0.352 0.203 0.496 0.256 1.051 0.4 0.283 0.075 24.496 0.069 24.784-0.005 0.523-0.133 0.651-0.181 1.040-0.395 0.171-0.091 0.725-0.651 0.827-0.832 0.203-0.352 0.256-0.496 0.4-1.051 0.032-0.123 0.053-3.509 0.053-9.163 0-8.731-0.005-8.976-0.101-9.291-0.059-0.181-0.149-0.395-0.197-0.475-0.123-0.197-6-6.096-6.075-6.096-0.032 0-0.085-0.027-0.123-0.064-0.032-0.032-0.149-0.096-0.261-0.144-0.181-0.075-1.259-0.085-10.203-0.091-5.499-0.005-10.069 0.011-10.16 0.032zM23.616 3.691c0.048 0.048 0.064 0.555 0.064 1.963 0 2.101 0.027 2.357 0.32 2.949 0.091 0.192 0.288 0.469 0.432 0.619 0.283 0.283 0.704 0.592 0.816 0.592 0.032 0 0.091 0.027 0.123 0.059 0.16 0.16 0.688 0.203 2.603 0.208 1.056 0 1.973 0.016 2.043 0.032l0.117 0.032v8.325c0 6.176-0.016 8.373-0.064 8.528-0.069 0.24-0.341 0.523-0.587 0.608-0.251 0.096-24.176 0.101-24.48 0.011-0.24-0.069-0.523-0.341-0.608-0.587-0.096-0.251-0.101-22.416-0.011-22.72 0.069-0.24 0.341-0.523 0.587-0.608 0.256-0.096 18.555-0.101 18.645-0.011zM27.355 6.405c1.472 1.472 2.672 2.693 2.672 2.72 0 0.096-0.325 0.112-2.171 0.091l-1.909-0.021-0.283-0.144c-0.416-0.219-0.715-0.517-0.907-0.912l-0.171-0.352v-2.027c0-1.232 0.021-2.027 0.048-2.027 0.032 0 1.253 1.205 2.72 2.672z"></path>
<path d="M6.619 6.619c-0.443 0.315-0.432 0.219-0.432 3.493 0 2.64 0.011 2.907 0.096 3.099 0.123 0.283 0.261 0.411 0.544 0.517 0.219 0.080 0.56 0.085 3.6 0.075 3.557-0.016 3.413-0.005 3.728-0.256 0.053-0.043 0.144-0.181 0.197-0.309 0.096-0.219 0.101-0.416 0.101-3.131 0-2.155-0.016-2.939-0.064-3.051-0.101-0.24-0.24-0.395-0.443-0.501-0.176-0.096-0.363-0.101-3.643-0.101h-3.461l-0.224 0.165zM12.576 8.277c0.091 0.091 0.091 3.568 0 3.659-0.085 0.085-4.315 0.091-4.475 0.011-0.096-0.053-0.101-0.133-0.101-1.829 0-1.312 0.016-1.792 0.064-1.84 0.091-0.091 4.421-0.091 4.512 0z"></path>
<path d="M16.432 7.568c-0.064 0.085-0.112 0.197-0.112 0.245s0.048 0.16 0.112 0.245l0.107 0.155h5.056l0.107-0.155c0.064-0.085 0.112-0.197 0.112-0.245s-0.048-0.16-0.112-0.245l-0.107-0.155h-5.056l-0.107 0.155z"></path>
<path d="M16.475 10.288c-0.176 0.176-0.197 0.352-0.059 0.517 0.187 0.229 0.229 0.235 2.651 0.235s2.464-0.005 2.651-0.235c0.139-0.165 0.117-0.341-0.059-0.517l-0.155-0.155h-4.875l-0.155 0.155z"></path>
<path d="M16.475 13.072c-0.085 0.091-0.155 0.197-0.155 0.24 0 0.149 0.128 0.336 0.288 0.421 0.149 0.080 0.656 0.085 5.755 0.069l5.595-0.016 0.155-0.176c0.197-0.219 0.197-0.352 0-0.549l-0.155-0.155h-11.328l-0.155 0.165z"></path>
<path d="M6.469 15.733c-0.165 0.069-0.299 0.293-0.261 0.443 0.016 0.064 0.080 0.171 0.139 0.24l0.112 0.117h21.536l0.112-0.117c0.059-0.069 0.123-0.176 0.139-0.24 0.043-0.155-0.101-0.379-0.277-0.443-0.176-0.069-21.333-0.064-21.499 0z"></path>
<path d="M6.325 18.619c-0.171 0.203-0.176 0.32-0.011 0.512l0.128 0.149h21.568l0.128-0.149c0.165-0.192 0.16-0.309-0.011-0.512l-0.139-0.165h-21.525l-0.139 0.165z"></path>
<path d="M6.341 21.381c-0.192 0.192-0.197 0.32-0.016 0.533l0.139 0.165h21.525l0.139-0.165c0.181-0.213 0.176-0.341-0.016-0.533l-0.155-0.155h-21.461l-0.155 0.155z"></path>
<path d="M6.341 24.155c-0.085 0.085-0.155 0.208-0.155 0.272s0.069 0.187 0.155 0.272l0.155 0.155h21.461l0.155-0.155c0.085-0.085 0.155-0.208 0.155-0.272s-0.069-0.187-0.155-0.272l-0.155-0.155h-21.461l-0.155 0.155z"></path>
</svg>
