<!-- Generated by IcoMoon.io -->
<svg version="1.1" xmlns="http://www.w3.org/2000/svg" width="35" height="32" viewBox="0 0 35 32">
<title>paperplane</title>
<path d="M15.777 10.288c-7.553 5.042-13.767 9.302-13.823 9.47-0.242 0.688 0.279 1.005 3.888 2.456l3.628 1.451 1.73 2.977c0.949 1.656 1.879 3.088 2.065 3.2 0.484 0.316 0.856-0.019 1.842-1.656 0.465-0.781 0.93-1.507 1.042-1.619s1.823 0.484 4.67 1.619c2.456 1.005 4.614 1.749 4.763 1.693s0.354-0.298 0.465-0.521c0.093-0.242 1.191-6.53 2.419-13.991 2.121-12.781 2.233-13.581 1.935-13.898-0.186-0.205-0.447-0.353-0.614-0.335-0.167 0-6.474 4.13-14.009 9.153zM27.609 5.34c-0.186 0.298-3.33 5.209-7.014 10.94-3.665 5.73-6.772 10.512-6.902 10.642-0.149 0.186-0.484-0.26-1.414-1.879-0.651-1.172-1.191-2.158-1.209-2.214 0-0.112 16.688-17.991 16.8-17.991 0.037 0-0.074 0.223-0.26 0.502zM24.726 6.828c-0.837 0.893-14.158 15.2-14.233 15.274-0.056 0.093-5.321-2.028-5.544-2.214-0.13-0.112 20.056-13.749 20.354-13.749 0.037 0-0.223 0.316-0.577 0.688zM26.4 17.060c-0.93 5.712-1.767 10.456-1.842 10.53s-1.823-0.521-3.888-1.34c-2.065-0.837-3.87-1.507-4.019-1.507s-0.279-0.056-0.279-0.112c0-0.223 11.591-18.121 11.684-18.047 0.037 0.056-0.707 4.763-1.656 10.474z"></path>
</svg>
