<!-- Generated by IcoMoon.io -->
<svg version="1.1" xmlns="http://www.w3.org/2000/svg" width="33" height="32" viewBox="0 0 33 32">
<title>params</title>
<path d="M5.72 2.388c-1.161 0.514-1.575 1.426-1.575 3.465 0 1.26-0.017 1.326-0.58 1.99-1.409 1.641-1.36 3.963 0.099 5.505l0.464 0.497 0.050 6.748c0.050 6.516 0.066 6.765 0.398 7.196 1.161 1.559 3.134 1.592 4.178 0.066 0.365-0.547 0.365-0.58 0.365-7.212v-6.665l0.431-0.398c1.608-1.492 1.641-4.211 0.083-5.986-0.497-0.58-0.514-0.63-0.514-2.155 0-1.36-0.050-1.658-0.365-2.122-0.713-1.028-1.956-1.409-3.034-0.929zM7.146 3.979c0.265 0.149 0.315 0.365 0.315 1.31v1.144h-1.658v-1.011c0-1.376 0.481-1.89 1.343-1.442zM8.041 8.456c2.089 1.293 1.127 4.56-1.36 4.56-1.459 0-2.454-1.011-2.454-2.487 0-1.078 0.365-1.658 1.426-2.205 0.829-0.431 1.542-0.381 2.388 0.133zM7.428 20.891l-0.050 6.218-0.448 0.149c-0.365 0.133-0.531 0.099-0.796-0.149-0.315-0.298-0.332-0.481-0.332-6.367v-6.068h1.658l-0.033 6.218z"></path>
<path d="M14.79 2.504c-0.481 0.249-0.812 0.564-1.028 0.995-0.315 0.597-0.332 1.011-0.332 7.179v6.533l-0.514 0.547c-0.713 0.763-0.995 1.376-1.094 2.404-0.133 1.21 0.199 2.238 0.962 3.117l0.647 0.73v1.509c0 1.923 0.315 2.636 1.376 3.15 0.895 0.431 1.326 0.431 2.222 0 1.061-0.514 1.376-1.227 1.376-3.15v-1.509l0.647-0.73c0.763-0.879 1.094-1.907 0.962-3.117-0.099-1.028-0.381-1.641-1.094-2.404l-0.514-0.547v-6.533c0-6.184-0.017-6.582-0.332-7.179-0.216-0.448-0.547-0.763-1.045-0.995-0.912-0.431-1.343-0.431-2.238 0zM16.481 4.079c0.232 0.216 0.265 1.028 0.265 6.334v6.085h-1.658v-6.085c0-5.306 0.033-6.118 0.265-6.334 0.133-0.149 0.398-0.265 0.564-0.265s0.431 0.116 0.564 0.265zM17.078 18.454c2.271 1.194 1.409 4.659-1.161 4.659-1.874 0-3.084-2.039-2.172-3.714 0.332-0.63 1.459-1.326 2.172-1.326 0.249 0 0.763 0.166 1.161 0.381zM16.746 25.782c0 1.111-0.249 1.575-0.829 1.575s-0.829-0.464-0.829-1.575v-1.045h1.658v1.045z"></path>
<path d="M24.041 2.454c-1.061 0.58-1.326 1.194-1.326 2.984 0 1.525-0.017 1.575-0.514 2.155-1.559 1.774-1.525 4.493 0.083 5.986l0.431 0.398v6.665c0 6.632 0 6.665 0.381 7.212 1.028 1.525 3.001 1.492 4.162-0.066 0.332-0.431 0.348-0.68 0.398-7.196l0.050-6.748 0.464-0.497c1.459-1.525 1.509-3.863 0.133-5.471-0.564-0.647-0.58-0.713-0.647-2.354-0.050-1.376-0.133-1.791-0.398-2.155-0.846-1.127-2.155-1.492-3.217-0.912zM25.733 4.095c0.232 0.199 0.298 0.514 0.298 1.293v1.045h-1.658v-1.144c0-0.895 0.066-1.161 0.298-1.293 0.415-0.249 0.713-0.216 1.061 0.099zM26.131 8.274c1.724 0.779 2.073 2.902 0.663 4.128-1.045 0.912-2.338 0.895-3.316-0.017-1.078-1.028-1.111-2.653-0.066-3.631 0.846-0.779 1.708-0.945 2.719-0.481zM26.031 20.742c0 5.886-0.017 6.068-0.332 6.367-0.265 0.249-0.431 0.282-0.796 0.149l-0.448-0.149-0.050-6.218-0.033-6.218h1.658v6.068z"></path>
</svg>
