<!-- Generated by IcoMoon.io -->
<svg version="1.1" xmlns="http://www.w3.org/2000/svg" width="32" height="32" viewBox="0 0 32 32">
<title>pen</title>
<path d="M21.525 2.783c-0.338 0.079-1.014 0.378-1.511 0.656-0.795 0.477-13.516 13.178-14.152 14.152-0.318 0.457-2.484 8.189-2.484 8.825 0 0.238 0.179 0.795 0.397 1.212 0.417 0.815 1.59 1.59 2.405 1.59 0.457 0 7.672-1.868 8.547-2.206 0.278-0.099 3.597-3.299 7.394-7.096 7.294-7.314 7.573-7.672 7.831-9.739 0.139-1.272-0.358-3.021-1.272-4.373-1.59-2.345-4.631-3.637-7.155-3.021zM25.123 4.81c1.113 0.557 2.047 1.471 2.624 2.584 1.034 2.047 0.815 3.598-0.775 5.267l-1.014 1.073-0.219-1.053c-0.576-2.902-2.882-5.207-5.824-5.824l-1.034-0.219 0.954-0.934c0.537-0.537 1.332-1.093 1.749-1.252 0.974-0.358 2.425-0.199 3.538 0.358zM19.757 8.507c0.060 0.099-1.63 1.888-3.737 3.995l-3.836 3.816-1.232-0.238-1.232-0.258 3.339-3.359c2.027-2.027 3.657-3.518 4.134-3.737 0.815-0.378 2.385-0.517 2.564-0.219zM22.062 9.58c0.457 0.358 0.994 0.934 1.212 1.252l0.358 0.616-7.911 7.911-0.875-0.994c-0.497-0.537-1.133-1.113-1.411-1.272l-0.537-0.278 3.935-3.935c2.166-2.166 4.035-3.935 4.174-3.935 0.119 0 0.596 0.298 1.053 0.636zM24.229 13.774c0.040 1.391-0.477 2.107-3.995 5.645l-3.419 3.419-0.676-2.663 3.896-3.916c4.154-4.194 4.174-4.194 4.194-2.484zM11.886 18.067c1.928 0.994 3.101 2.783 3.12 4.79 0 1.888-0.457 2.584-2.007 3.001-2.405 0.636-2.206 0.656-2.365-0.179-0.318-1.769-2.007-3.478-3.697-3.737l-0.716-0.119 0.417-1.53c0.239-0.835 0.517-1.67 0.636-1.868 0.557-0.954 3.061-1.153 4.611-0.358zM7.652 23.036c0.457 0.199 1.053 0.636 1.352 0.994 0.576 0.676 1.053 2.007 0.894 2.445-0.060 0.139-0.934 0.457-1.928 0.716-1.948 0.477-2.385 0.417-2.803-0.358-0.219-0.398-0.179-0.676 0.517-3.14 0.358-1.193 0.616-1.272 1.968-0.656z"></path>
</svg>
