<!-- Generated by IcoMoon.io -->
<svg version="1.1" xmlns="http://www.w3.org/2000/svg" width="22" height="32" viewBox="0 0 22 32">
<title>phone</title>
<path d="M3.307 2.297c-0.628 0.199-1.439 1.041-1.623 1.684-0.199 0.72-0.199 23.625 0 24.329s0.995 1.516 1.684 1.7c0.72 0.199 14.898 0.199 15.617 0 0.689-0.184 1.485-0.995 1.684-1.7s0.199-23.61 0-24.329c-0.184-0.689-0.995-1.485-1.7-1.684-0.643-0.184-15.035-0.184-15.663 0zM18.771 4.211c0.337 0.337 0.383 0.49 0.337 1.347l-0.046 0.949h-15.77l-0.046-0.949c-0.046-0.857 0-1.011 0.337-1.347l0.383-0.383h14.423l0.383 0.383zM19.062 16.153v8.727h-15.77l-0.046-8.574c-0.015-4.716 0-8.666 0.046-8.773 0.046-0.153 1.715-0.184 7.916-0.153l7.855 0.046v8.727zM19.108 26.748c0.046 0.857 0 1.011-0.337 1.347l-0.383 0.383h-14.423l-0.367-0.383c-0.322-0.306-0.383-0.521-0.383-1.271 0-0.49 0.046-0.949 0.107-0.995 0.046-0.061 3.613-0.092 7.916-0.077l7.824 0.046 0.046 0.949z"></path>
<path d="M9.554 4.976c-0.046 0.122-0.046 0.337 0 0.459 0.077 0.199 0.352 0.23 1.654 0.199 1.562-0.046 1.577-0.046 1.577-0.429s-0.015-0.383-1.577-0.429c-1.301-0.031-1.577 0-1.654 0.199z"></path>
<path d="M10.411 26.871c-0.291 0.352 0.077 0.689 0.766 0.689 0.322 0 0.658-0.107 0.766-0.23 0.291-0.352-0.077-0.689-0.766-0.689-0.322 0-0.658 0.107-0.766 0.23z"></path>
</svg>
