<!-- Generated by IcoMoon.io -->
<svg version="1.1" xmlns="http://www.w3.org/2000/svg" width="31" height="32" viewBox="0 0 31 32">
<title>photo</title>
<path d="M5.793 2.74c-0.883 0.405-1.269 0.809-1.655 1.729-0.239 0.57-0.276 2.078-0.276 10.648 0 9.287 0.037 10.041 0.349 10.722 0.405 0.883 0.809 1.269 1.729 1.655 0.57 0.239 2.005 0.276 9.913 0.276 8.588 0 9.306-0.037 9.986-0.349 0.883-0.405 1.269-0.809 1.655-1.729 0.423-1.012 0.423-20.212 0-21.223-0.386-0.92-0.772-1.324-1.655-1.729-0.68-0.313-1.398-0.349-10.023-0.349s-9.343 0.037-10.023 0.349zM25.637 4.395l0.478 0.441v20.487l-0.956 0.883h-18.685l-0.956-0.883v-20.487l0.423-0.368c0.221-0.221 0.57-0.423 0.772-0.478s4.432-0.074 9.416-0.074l9.030 0.037 0.478 0.441z"></path>
<path d="M7.356 5.885c-0.349 0.349-0.368 0.607-0.368 7.559 0 4.598 0.074 7.301 0.184 7.54 0.184 0.331 0.478 0.349 8.644 0.349s8.46-0.018 8.644-0.349c0.11-0.239 0.184-2.943 0.184-7.54 0-6.952-0.018-7.209-0.368-7.559s-0.607-0.368-8.46-0.368c-7.853 0-8.11 0.018-8.46 0.368zM23.724 11.77v5.517l-1.398-1.471c-0.772-0.809-1.563-1.471-1.747-1.471-0.166 0-0.846 0.57-1.49 1.287l-1.177 1.287-3.255-3.678c-2.097-2.372-3.384-3.678-3.605-3.678s-0.92 0.625-1.747 1.563l-1.398 1.563v-6.437h15.816v5.517zM15.136 14.933c2.17 2.464 4.175 4.745 4.451 5.057l0.497 0.607h-12.175v-6.713l1.49-1.71c0.809-0.92 1.545-1.692 1.637-1.692s1.931 2.005 4.101 4.451zM22.216 16.809l1.508 1.655v2.133l-2.667-0.037-1.269-1.471c-1.159-1.361-1.251-1.508-1.030-1.876 0.331-0.533 1.729-2.097 1.857-2.060 0.055 0 0.772 0.754 1.6 1.655z"></path>
<path d="M18.115 8.166c-1.618 0.717-1.931 2.648-0.662 3.862 1.453 1.398 3.862 0.313 3.88-1.729 0-0.717-0.533-1.71-1.048-1.986-0.625-0.349-1.6-0.405-2.17-0.147zM20.193 9.306c0.57 0.662 0.533 1.453-0.129 2.115-0.607 0.588-1.067 0.662-1.839 0.257-1.195-0.607-0.975-2.409 0.349-2.906 0.478-0.184 1.177 0.055 1.618 0.533z"></path>
</svg>
