<!-- Generated by IcoMoon.io -->
<svg version="1.1" xmlns="http://www.w3.org/2000/svg" width="34" height="32" viewBox="0 0 34 32">
<title>search</title>
<path d="M19.031 0.772c-4.179 0.696-7.981 4.329-8.979 8.565-0.452 1.939-0.282 4.819 0.395 6.645l0.508 1.374-4.235 4.273c-4.348 4.367-4.649 4.762-4.649 6.193 0 0.546 0.471 1.694 0.904 2.184 0.414 0.452 1.694 1.054 2.296 1.054 1.449 0 1.845-0.282 6.231-4.649l4.273-4.235 1.374 0.508c1.826 0.678 4.706 0.847 6.645 0.395 1.958-0.471 3.765-1.487 5.308-3.031 2.127-2.108 3.162-4.348 3.388-7.266 0.527-7.36-6.042-13.233-13.459-12.009zM23.322 2.729c5.082 1.205 8.358 6.513 7.078 11.482-0.471 1.826-1.205 3.106-2.522 4.442-1.958 1.976-4.028 2.824-6.833 2.824-2.56 0-4.725-0.866-6.532-2.635-1.92-1.864-2.824-4.028-2.842-6.72 0-2.88 0.809-4.875 2.805-6.871 2.409-2.391 5.572-3.294 8.847-2.522zM10.184 25.261c-3.802 3.821-4.122 4.104-4.762 4.104-0.904 0-1.656-0.753-1.656-1.656 0-0.621 0.301-0.979 4.066-4.762l4.085-4.085 1.186 1.148 1.167 1.167-4.085 4.085z"></path>
<path d="M19.765 5.534c-1.449 0.32-2.409 0.866-3.445 1.976-1.092 1.167-1.656 2.409-1.694 3.784-0.038 0.922 0 1.035 0.339 1.035 0.32 0 0.395-0.169 0.489-0.96 0.32-2.654 2.353-4.668 5.12-5.064 0.489-0.075 0.941-0.226 1.016-0.339 0.094-0.169-0.433-0.715-0.678-0.678-0.056 0-0.584 0.113-1.148 0.245z"></path>
</svg>
