<!-- Generated by IcoMoon.io -->
<svg version="1.1" xmlns="http://www.w3.org/2000/svg" width="34" height="32" viewBox="0 0 34 32">
<title>settings</title>
<path d="M14.086 1.486c-0.343 0.371-0.686 1.257-0.8 2.029-0.229 1.429-0.743 2.2-1.457 2.2-0.257 0-1.029-0.4-1.743-0.914-1.886-1.286-2.657-1.2-4.371 0.486-1.743 1.714-1.8 2.314-0.429 4.371 0.829 1.2 0.971 1.6 0.714 2.029-0.314 0.6-0.657 0.743-2.543 1.029-1.886 0.314-2.314 0.914-2.314 3.286s0.429 2.971 2.314 3.286c1.886 0.286 2.229 0.429 2.543 1.029 0.257 0.429 0.114 0.829-0.714 2.029-1.371 2.057-1.314 2.657 0.429 4.371 1.714 1.686 2.486 1.771 4.371 0.486 0.714-0.514 1.486-0.914 1.743-0.914 0.714 0 1.229 0.771 1.457 2.2 0.314 2.143 0.971 2.657 3.429 2.657s3.114-0.514 3.429-2.657c0.229-1.429 0.743-2.2 1.457-2.2 0.257 0 1.029 0.4 1.743 0.914 1.886 1.286 2.657 1.2 4.371-0.486 1.743-1.714 1.8-2.314 0.429-4.371-0.829-1.2-0.971-1.6-0.714-2.029 0.314-0.6 0.657-0.743 2.543-1.029 1.886-0.314 2.314-0.914 2.314-3.286s-0.429-2.971-2.314-3.286c-1.886-0.286-2.229-0.429-2.543-1.029-0.257-0.429-0.114-0.829 0.714-2.029 1.371-2.057 1.314-2.657-0.429-4.371-1.714-1.686-2.486-1.771-4.371-0.486-0.714 0.514-1.486 0.914-1.743 0.914-0.714 0-1.229-0.771-1.457-2.2-0.314-2.143-0.971-2.657-3.429-2.657-1.743 0-2.114 0.086-2.629 0.629zM18.143 3.143c0.057 0.229 0.2 0.943 0.314 1.571 0.229 1.371 0.771 2.057 2.086 2.6 1.343 0.571 1.571 0.514 3.371-0.629l1.6-1 1.857 1.8-1 1.429c-1.143 1.543-1.229 2.171-0.571 3.743 0.486 1.143 1.057 1.457 3.143 1.771l1.343 0.2v2.743l-1.343 0.2c-2.086 0.314-2.657 0.629-3.143 1.771-0.657 1.571-0.571 2.2 0.571 3.743l1 1.429-1.886 1.829-1.6-1.029c-1.8-1.143-2-1.2-3.343-0.629-1.314 0.543-1.857 1.229-2.086 2.6-0.343 2-0.343 2-1.743 2-1.371 0-1.371 0-1.714-1.857s-0.486-2.029-1.771-2.6c-1.714-0.714-1.857-0.714-3.714 0.486l-1.6 1-1.857-1.8 1-1.429c1.143-1.543 1.229-2.171 0.571-3.743-0.486-1.143-1.057-1.457-3.143-1.771l-1.343-0.2v-2.743l1.343-0.2c2.086-0.314 2.657-0.629 3.143-1.771 0.657-1.571 0.571-2.2-0.571-3.743l-1-1.429 1.857-1.8 1.6 1c1.8 1.143 2.029 1.2 3.371 0.629 1.314-0.543 1.857-1.229 2.086-2.6 0.343-2 0.343-2 1.743-2 0.914 0 1.343 0.143 1.429 0.429z"></path>
<path d="M14.429 9.743c-1.286 0.343-3.286 2.2-3.886 3.514-0.686 1.514-0.686 3.971 0 5.486 0.629 1.4 2.629 3.171 4 3.543 2.457 0.686 4.771 0.2 6.6-1.343 1.543-1.343 2.286-2.914 2.286-4.943s-0.743-3.6-2.286-4.943c-1.8-1.543-4.314-2.029-6.714-1.314zM19.086 10.714c3.8 1.6 4.714 6.686 1.714 9.486-2.114 2-6.057 2-8.171 0-2.343-2.171-2.343-6.229 0-8.4 1.571-1.457 4.371-1.943 6.457-1.086z"></path>
<path d="M14.657 12.857c-3.229 1.971-1.771 6.857 2.057 6.857 2.114 0 3.857-1.686 3.857-3.714 0-2.886-3.4-4.686-5.914-3.143zM18.829 14.143c1.029 1.029 1 2.714-0.057 3.8-1.114 1.086-3 1.086-4.114-0.029-1.4-1.371-0.914-3.714 0.914-4.514 0.914-0.4 2.486-0.057 3.257 0.743z"></path>
</svg>
