<!-- Generated by IcoMoon.io -->
<svg version="1.1" xmlns="http://www.w3.org/2000/svg" width="31" height="32" viewBox="0 0 31 32">
<title>shop</title>
<path d="M6.208 3.296c-0.728 0.439-0.851 0.948-0.851 3.282v2.060l-1.483 1.964c-0.824 1.085-1.566 2.17-1.648 2.431-0.233 0.659-0.206 1.854 0.041 2.458 0.385 0.893 1.181 1.538 1.923 1.538h0.343v5.494c0 6.084 0.014 6.221 0.851 6.73 0.439 0.261 0.673 0.275 9.93 0.275s9.49-0.014 9.93-0.275c0.838-0.508 0.852-0.645 0.852-6.73v-5.494h0.343c0.742 0 1.538-0.645 1.923-1.538 0.247-0.604 0.275-1.799 0.041-2.458-0.082-0.261-0.824-1.346-1.648-2.431l-1.483-1.964v-2.060c0-2.335-0.124-2.843-0.852-3.282-0.439-0.261-0.673-0.275-9.106-0.275s-8.666 0.014-9.106 0.275zM23.622 6.318v1.648h-16.618v-3.296h16.618v1.648zM9.339 9.71c0 0.069-0.728 1.373-1.621 2.925l-1.621 2.815-0.824 0.041c-0.673 0.027-0.893-0.014-1.195-0.247-0.316-0.247-0.371-0.398-0.371-1.016 0-0.7 0.041-0.769 1.373-2.554 0.755-1.016 1.456-1.895 1.552-1.95 0.206-0.137 2.706-0.137 2.706-0.014zM12.072 9.847c0 0.137-0.357 1.456-0.783 2.925l-0.783 2.678-1.676 0.041c-1.195 0.027-1.689-0.014-1.689-0.124 0-0.082 0.714-1.415 1.593-2.953l1.607-2.802h0.865c0.755 0 0.879 0.041 0.865 0.233zM14.901 12.567v2.884l-1.744 0.041c-1.167 0.027-1.758-0.014-1.758-0.11 0-0.165 1.511-5.507 1.607-5.672 0.041-0.055 0.481-0.096 0.975-0.069l0.92 0.041v2.884zM18.431 12.429c0.439 1.511 0.797 2.829 0.797 2.925 0 0.137-0.398 0.165-1.744 0.137l-1.758-0.041-0.041-2.747c-0.014-1.511 0-2.815 0.041-2.925 0.041-0.124 0.316-0.165 0.989-0.137l0.92 0.041 0.797 2.747zM21.878 12.429c0.879 1.552 1.607 2.87 1.607 2.953 0 0.096-0.577 0.137-1.676 0.11l-1.689-0.041-0.783-2.678c-0.426-1.47-0.783-2.788-0.783-2.925-0.014-0.192 0.11-0.233 0.852-0.233h0.865l1.607 2.815zM23.993 9.724c0.096 0.055 0.797 0.934 1.552 1.95 1.332 1.785 1.373 1.854 1.373 2.554 0 0.618-0.055 0.769-0.371 1.016-0.302 0.233-0.522 0.275-1.195 0.247l-0.824-0.041-1.621-2.815c-0.893-1.552-1.621-2.857-1.621-2.925 0-0.124 2.5-0.124 2.706 0.014zM24.446 22.455v5.425h-4.944v-4.161c0-3.063-0.055-4.244-0.179-4.491l-0.179-0.343h-7.252l-0.179 0.343c-0.124 0.247-0.179 1.428-0.179 4.491v4.161h-5.356v-10.85h18.266v5.425zM18.651 23.718l0.027 4.161h-6.318v-4.093c0-2.252 0.041-4.148 0.096-4.203 0.055-0.041 1.456-0.069 3.118-0.055l3.035 0.041 0.041 4.148z"></path>
</svg>
