<!-- Generated by IcoMoon.io -->
<svg version="1.1" xmlns="http://www.w3.org/2000/svg" width="33" height="32" viewBox="0 0 33 32">
<title>sound</title>
<path d="M6.147 4.744l-0.814 0.814v11.93l-1.684 1.768c-2.246 2.33-2.274 2.919-0.084 5.221 0.898 0.926 2.611 2.582 3.818 3.621 2.835 2.526 3.256 2.554 5.642 0.253l1.768-1.684h6.232c3.453 0 6.456-0.112 6.737-0.281 0.674-0.337 1.263-1.796 1.039-2.611-0.14-0.561-11.537-11.902-18.33-18.246-2.077-1.909-3.003-2.077-4.323-0.786zM17.797 14.849c5.193 4.997 9.432 9.263 9.432 9.432 0 0.197-0.197 0.505-0.421 0.702-0.449 0.365 0.197 0.954-15.27-13.951-3.593-3.481-4.575-4.575-4.435-4.968 0.112-0.281 0.421-0.449 0.73-0.393s4.8 4.182 9.965 9.179zM19.621 20.014l5.418 5.249h-10.498l-3.761-3.565-3.761-3.593v-10.358l3.593 3.509c1.965 1.909 6.007 5.867 9.011 8.758zM10.133 22.232l3.481 3.312-1.403 1.404c-0.758 0.758-1.544 1.404-1.768 1.404-0.533 0-6.793-5.923-6.793-6.428 0-0.449 2.526-3.172 2.835-3.060 0.084 0.056 1.74 1.572 3.649 3.368z"></path>
<path d="M16.477 4.126c-0.112 0.084-0.197 0.393-0.197 0.674 0 0.533 0.309 0.674 2.582 0.954 1.825 0.225 4.463 1.628 5.698 3.003 1.319 1.432 2.358 3.677 2.582 5.53 0.197 1.712 0.73 2.302 1.432 1.628 0.393-0.421 0.421-0.702 0.14-2.218-0.786-4.632-4.042-8.14-8.646-9.347-1.74-0.449-3.284-0.561-3.593-0.225z"></path>
<path d="M16.618 7.607c0.084 0.225 0.702 0.477 1.516 0.561 3.34 0.421 6.035 3.003 6.484 6.288 0.197 1.46 0.926 1.797 0.926 0.421 0-2.358-2.133-5.53-4.547-6.765-1.46-0.73-4.575-1.095-4.379-0.505z"></path>
</svg>
