<!-- Generated by IcoMoon.io -->
<svg version="1.1" xmlns="http://www.w3.org/2000/svg" width="37" height="32" viewBox="0 0 37 32">
<title>stack</title>
<path d="M8.074 2.344c-0.316 0.149-0.688 0.502-0.8 0.763-0.13 0.26-1.135 3.926-2.27 8.13l-2.046 7.647 0.112 8.186 0.521 0.874c0.335 0.577 0.819 1.060 1.395 1.395l0.874 0.521h26.233l0.874-0.521c0.577-0.335 1.060-0.819 1.395-1.395l0.521-0.874 0.112-8.186-2.065-7.721c-1.135-4.242-2.14-7.888-2.251-8.112-0.112-0.205-0.428-0.521-0.726-0.688-0.465-0.279-1.544-0.316-10.921-0.316-8.967 0-10.456 0.056-10.958 0.298zM29.098 4.409c0.056 0.186 0.93 3.479 1.972 7.33l1.86 6.977v8.112l-1.079 1.079h-25.749l-1.079-1.079v-8.112l1.86-6.977c1.042-3.851 1.916-7.144 1.972-7.33 0.093-0.298 0.744-0.316 10.121-0.316s10.028 0.019 10.121 0.316z"></path>
<path d="M10.456 6.456c-0.298 0.595-3.572 12.093-3.572 12.577 0 0.242 0.112 0.54 0.242 0.651 0.149 0.13 1.284 0.242 2.753 0.26l2.493 0.056 0.856 1.674c1.209 2.344 1.172 2.326 5.749 2.326s4.54 0.019 5.749-2.326l0.856-1.674 2.493-0.056c1.47-0.019 2.605-0.13 2.753-0.26 0.13-0.112 0.242-0.409 0.242-0.651 0-0.484-3.274-11.981-3.572-12.577-0.149-0.298-0.744-0.316-8.521-0.316s-8.372 0.019-8.521 0.316zM26.791 7.144c0 0.056 0.633 2.437 1.395 5.302s1.395 5.302 1.395 5.395c0 0.13-0.819 0.205-2.307 0.205-2.177 0-2.344 0.037-2.846 0.447-0.279 0.242-0.856 1.116-1.265 1.953l-0.726 1.507h-6.921l-0.726-1.507c-0.409-0.837-0.986-1.712-1.265-1.953-0.502-0.409-0.67-0.447-2.846-0.447-1.488 0-2.307-0.074-2.307-0.205 0-0.093 0.633-2.53 1.395-5.395s1.395-5.247 1.395-5.302c0-0.037 3.516-0.074 7.814-0.074s7.814 0.037 7.814 0.074z"></path>
</svg>
