<!-- Generated by IcoMoon.io -->
<svg version="1.1" xmlns="http://www.w3.org/2000/svg" width="34" height="32" viewBox="0 0 34 32">
<title>star</title>
<path d="M15.335 2.338c-0.283 0.197-1.317 1.895-2.289 3.754s-1.797 3.409-1.834 3.446c-0.025 0.037-1.957 0.32-4.271 0.628-6.302 0.849-6.966 1.76-3.557 4.923 1.046 0.972 2.486 2.326 3.2 3.003l1.292 1.231-0.738 3.902c-0.775 4.123-0.763 4.443 0.308 5.194 0.935 0.665 1.809 0.431 5.538-1.44l3.631-1.809 3.569 1.797c3.68 1.858 4.652 2.117 5.6 1.452 1.071-0.751 1.083-1.071 0.308-5.194l-0.738-3.902 1.292-1.231c0.714-0.677 2.154-2.031 3.2-3.003 3.409-3.163 2.745-4.074-3.557-4.923-2.314-0.308-4.246-0.591-4.271-0.628-0.037-0.037-0.862-1.588-1.834-3.446-1.858-3.557-2.338-4.123-3.569-4.123-0.418 0-0.985 0.16-1.28 0.369zM18.351 7.2c2.191 4.369 1.822 4.098 6.178 4.665 5.711 0.738 5.502 0.357 1.932 3.582-3.643 3.298-3.52 2.942-2.622 7.569 0.394 2.031 0.689 3.729 0.652 3.766-0.037 0.049-1.748-0.763-3.791-1.785-4.48-2.252-3.692-2.252-8.172 0-2.043 1.022-3.754 1.834-3.791 1.785-0.037-0.037 0.258-1.735 0.652-3.766 0.898-4.628 1.022-4.271-2.622-7.569-3.569-3.225-3.778-2.843 1.932-3.582 4.357-0.566 3.988-0.295 6.178-4.665 0.898-1.797 1.686-3.262 1.735-3.262s0.837 1.465 1.735 3.262z"></path>
</svg>
