<!-- Generated by IcoMoon.io -->
<svg version="1.1" xmlns="http://www.w3.org/2000/svg" width="36" height="32" viewBox="0 0 36 32">
<title>study</title>
<path d="M9.234 4.624c-5.586 1.302-6.346 1.519-6.78 1.858-0.651 0.529-0.949 1.085-1.058 1.912-0.068 0.569-0.014 0.8 0.285 1.424 0.475 0.963 0.976 1.275 2.793 1.722l1.424 0.339 0.068 4.339c0.068 4.108 0.081 4.353 0.366 4.868 0.732 1.369 2.481 2.305 5.329 2.861 1.017 0.19 1.953 0.244 4.407 0.244s3.39-0.054 4.407-0.244c2.847-0.556 4.597-1.492 5.329-2.861 0.285-0.515 0.298-0.759 0.366-4.868l0.068-4.339 1.424-0.339c1.817-0.447 2.319-0.759 2.793-1.722 0.597-1.22 0.312-2.468-0.773-3.336-0.434-0.339-1.18-0.556-6.902-1.871-3.525-0.827-6.603-1.492-6.834-1.478s-3.254 0.678-6.712 1.492zM22.441 6.386c3.349 0.773 6.075 1.464 6.21 1.586 0.285 0.258 0.298 1.017 0.014 1.302-0.108 0.122-0.339 0.244-0.502 0.285s-2.956 0.678-6.197 1.437l-5.898 1.356-5.966-1.37c-6.97-1.6-6.386-1.451-6.644-1.708-0.271-0.271-0.258-1.058 0.014-1.288s11.688-2.929 12.461-2.956c0.298-0.014 3.227 0.61 6.508 1.356zM11.729 13.22c2.075 0.488 4.027 0.881 4.339 0.881 0.325 0 2.278-0.393 4.339-0.881 2.075-0.488 3.824-0.881 3.878-0.881 0.068 0 0.122 1.668 0.122 3.715 0 4.312 0.014 4.258-1.437 5.058-3.851 2.102-13.275 1.532-14.929-0.908-0.298-0.434-0.312-0.529-0.312-4.149 0-2.088 0.054-3.715 0.122-3.715s1.817 0.393 3.878 0.881z"></path>
<path d="M28.339 12.61c-0.258 0.258-0.271 0.447-0.271 4.786 0 4.217 0.014 4.542 0.244 4.746 0.339 0.298 1.017 0.285 1.288-0.014 0.203-0.23 0.23-0.759 0.23-4.746 0-4.325-0.014-4.515-0.271-4.773-0.149-0.149-0.42-0.271-0.61-0.271s-0.461 0.122-0.61 0.271z"></path>
<path d="M28.651 23.471c-0.583 0.217-1.342 1.885-1.478 3.227-0.054 0.597-0.014 0.868 0.19 1.22 0.285 0.542 0.99 0.963 1.586 0.963 0.841 0 1.831-0.963 1.831-1.803 0-0.692-0.434-2.115-0.868-2.834-0.447-0.746-0.786-0.949-1.261-0.773z"></path>
</svg>
