<!-- Generated by IcoMoon.io -->
<svg version="1.1" xmlns="http://www.w3.org/2000/svg" width="36" height="32" viewBox="0 0 36 32">
<title>t-shirt</title>
<path d="M9.737 4.175c-0.736 0.376-5.014 3.867-5.236 4.278-0.325 0.582-0.274 0.873 0.736 3.953 1.129 3.44 1.472 3.919 2.738 3.816l0.753-0.051v11.38l0.496 0.548 0.496 0.565h17.523l0.496-0.565 0.496-0.548v-11.38l0.753 0.051c1.266 0.103 1.609-0.376 2.738-3.816 1.010-3.080 1.061-3.371 0.736-3.97-0.24-0.428-4.826-4.124-5.39-4.347-0.222-0.086-4.107-0.154-8.642-0.154-6.657 0-8.334 0.051-8.693 0.24zM14.357 6.041c0.24 0.616 1.215 1.506 2.071 1.899 0.548 0.24 1.129 0.342 2.053 0.342s1.506-0.103 2.053-0.342c0.856-0.394 1.831-1.283 2.071-1.899 0.137-0.376 0.222-0.394 1.985-0.394h1.848l2.259 1.797 2.242 1.797-0.856 2.618c-0.479 1.42-0.89 2.635-0.924 2.652-0.017 0.034-0.616-0.325-1.335-0.804l-1.301-0.89v14.22h-16.086v-14.22l-1.301 0.89c-0.719 0.479-1.318 0.838-1.335 0.804-0.034-0.017-0.445-1.232-0.924-2.652l-0.856-2.618 2.242-1.797 2.259-1.797h1.848c1.763 0 1.848 0.017 1.985 0.394zM21.733 5.835c0 0.633-2.036 1.694-3.251 1.694s-3.251-1.061-3.251-1.694c0-0.137 1.010-0.188 3.251-0.188s3.251 0.051 3.251 0.188z"></path>
</svg>
