<!-- Generated by IcoMoon.io -->
<svg version="1.1" xmlns="http://www.w3.org/2000/svg" width="37" height="32" viewBox="0 0 37 32">
<title>tag</title>
<path d="M2.541 2.761c-0.596 0.282-1.38 0.941-1.726 1.412-0.627 0.847-0.659 1.286-0.659 11.043 0 14.149-1.255 13.020 14.588 13.020 10.259 0 11.231-0.031 12.235-0.596 0.847-0.439 1.82-1.726 4.141-5.396 3.482-5.49 3.953-6.588 3.42-8.157-0.188-0.596-1.725-3.231-3.42-5.898-2.322-3.671-3.294-4.957-4.141-5.396-1.004-0.565-1.976-0.596-12.235-0.596-9.976 0-11.263 0.063-12.204 0.565zM26.478 4.988c1.129 1.255 6.149 9.6 6.149 10.227s-5.020 8.973-6.149 10.227c-0.502 0.565-1.067 0.596-11.796 0.596-10.824 0-11.263-0.031-11.859-0.627s-0.627-1.035-0.627-10.196c0-9.161 0.031-9.6 0.627-10.196s1.035-0.627 11.859-0.627c10.729 0 11.294 0.031 11.796 0.596z"></path>
<path d="M23.341 12.518c-2.102 1.286-1.976 4.392 0.188 5.522 3.137 1.6 6.18-2.29 3.859-4.863-1.129-1.255-2.698-1.506-4.047-0.659zM26.98 14.4c0.878 2.165-1.757 3.89-3.514 2.322-1.129-1.004-0.533-3.137 1.004-3.608 0.847-0.282 2.133 0.408 2.51 1.286z"></path>
</svg>
