<!-- Generated by IcoMoon.io -->
<svg version="1.1" xmlns="http://www.w3.org/2000/svg" width="28" height="32" viewBox="0 0 28 32">
<title>trash</title>
<path d="M7.959 1.203c-0.821 0.465-1.368 1.45-1.395 2.489v0.82h-1.942c-1.832 0-1.969 0.055-2.735 0.903-0.684 0.766-0.793 1.094-0.793 2.462 0 1.75 0.52 2.79 1.395 2.79 0.492 0 0.52 0.274 0.52 8.26 0 7.74 0.027 8.342 0.547 9.162 1.012 1.668 1.313 1.723 10.256 1.723s9.244-0.055 10.256-1.723c0.52-0.82 0.547-1.422 0.547-9.162 0-7.986 0.027-8.26 0.52-8.26 0.875 0 1.395-1.039 1.395-2.79 0-1.368-0.109-1.696-0.793-2.462-0.766-0.848-0.903-0.903-2.735-0.903h-1.942v-0.766c0-1.067-0.656-2.215-1.504-2.598-1.039-0.492-10.721-0.438-11.597 0.055zM19.036 3.036c0.219 0.164 0.383 0.547 0.383 0.821 0 0.492-0.301 0.52-5.607 0.52-5.361 0-5.607-0.027-5.607-0.52 0-1.094 0.738-1.258 5.744-1.203 3.091 0.027 4.841 0.164 5.087 0.383zM24.451 6.619c0.082 0.191 0.191 0.821 0.273 1.368l0.137 1.039h-22.099l0.137-1.039c0.082-0.547 0.191-1.176 0.273-1.368 0.082-0.246 2.434-0.328 10.639-0.328s10.557 0.082 10.639 0.328zM22.974 18.735c0 7.713-0.027 8.096-0.547 8.615s-0.903 0.547-8.615 0.547c-7.713 0-8.096-0.027-8.615-0.547s-0.547-0.903-0.547-8.615v-8.068h18.325v8.068z"></path>
<path d="M6.92 12.745c-0.492 0.219-0.52 12.691-0.027 13.183 0.356 0.356 2.352 0.438 2.899 0.109 0.246-0.191 0.328-1.723 0.274-6.783l-0.082-6.537-1.368-0.055c-0.738-0.027-1.532 0-1.696 0.082zM9.299 19.391v5.99h-1.915v-11.979h1.915v5.99z"></path>
<path d="M12.226 12.745c-0.356 0.356-0.219 12.827 0.137 13.183 0.438 0.438 2.544 0.41 2.927-0.055 0.219-0.246 0.301-2.27 0.246-6.756l-0.082-6.4-1.504-0.082c-0.848-0.055-1.614 0-1.723 0.109zM14.769 19.391v5.99h-1.915v-11.979h1.915v5.99z"></path>
<path d="M17.696 12.773c-0.109 0.082-0.191 3.091-0.191 6.674 0 7.193-0.109 6.81 1.887 6.81 0.547 0 1.149-0.137 1.34-0.328 0.246-0.246 0.328-2.106 0.328-6.674 0-5.525-0.055-6.373-0.438-6.509-0.574-0.219-2.708-0.219-2.927 0.027zM20.239 19.391v5.99h-1.915v-11.979h1.915v5.99z"></path>
</svg>
