<!-- Generated by IcoMoon.io -->
<svg version="1.1" xmlns="http://www.w3.org/2000/svg" width="36" height="32" viewBox="0 0 36 32">
<title>truck</title>
<path d="M3.337 4.432c-0.821 0.376-1.181 0.753-1.54 1.609-0.222 0.513-0.257 1.626-0.257 6.828 0 5.681 0.034 6.28 0.325 6.913 0.394 0.856 1.044 1.403 2.019 1.66l0.736 0.188v1.814c0.017 2.498 0.428 3.388 1.934 4.021 0.342 0.137 0.992 0.257 1.455 0.257 0.787 0 0.856 0.034 1.078 0.548 0.616 1.506 2.053 2.43 3.748 2.43s3.132-0.924 3.748-2.43l0.222-0.548h5.407l0.222 0.548c0.616 1.506 2.053 2.43 3.748 2.43s3.132-0.924 3.748-2.43c0.222-0.513 0.291-0.548 1.112-0.548 0.941 0 2.053-0.428 2.533-0.958 0.719-0.821 0.821-1.437 0.821-5.253 0-4.329 0.205-3.748-2.96-8.419-2.635-3.885-2.567-3.85-5.972-3.85h-2.361v-1.283c0-1.951-0.496-2.926-1.797-3.525-0.633-0.291-1.301-0.325-8.984-0.325s-8.351 0.034-8.984 0.325zM20.74 6.451c0.291 0.257 0.308 0.684 0.308 6.349 0 5.425-0.034 6.109-0.291 6.4s-0.753 0.308-8.402 0.308c-7.324 0-8.163-0.034-8.453-0.291s-0.308-0.684-0.308-6.349c0-5.425 0.034-6.109 0.291-6.4s0.753-0.308 8.402-0.308c7.324 0 8.163 0.034 8.453 0.291zM27.636 11.397c0.154 0.068 1.283 1.609 2.498 3.422l2.207 3.32v3.457c0 4.004-0.017 4.073-1.369 4.073-0.753 0-0.838-0.034-1.044-0.548-0.616-1.506-2.053-2.43-3.748-2.43s-3.132 0.924-3.748 2.43l-0.222 0.548h-5.407l-0.222-0.548c-0.616-1.506-2.053-2.43-3.748-2.43s-3.132 0.924-3.748 2.43c-0.205 0.496-0.291 0.548-1.010 0.548-1.249 0-1.403-0.24-1.403-2.344v-1.763h6.93c5.852 0 7.033-0.034 7.564-0.257 0.856-0.359 1.232-0.719 1.609-1.54 0.274-0.599 0.325-1.164 0.325-4.586v-3.884h2.122c1.164 0 2.259 0.051 2.413 0.103zM13.861 24.916c1.352 0.804 1.352 2.755 0 3.559-1.763 1.044-3.85-1.027-2.806-2.789 0.582-0.992 1.848-1.335 2.806-0.77zM27.209 24.916c1.352 0.804 1.352 2.755 0 3.559-1.335 0.77-3.080-0.24-3.080-1.78 0-1.557 1.745-2.55 3.080-1.78z"></path>
<path d="M24.471 12.663c-0.325 0.325-0.342 0.565-0.342 3.765 0 4.381-0.205 4.107 3.080 4.107 2.943 0 3.080-0.086 3.080-1.763 0-1.061 0-1.078-1.643-3.542-0.907-1.369-1.763-2.584-1.917-2.704-0.445-0.342-1.865-0.257-2.259 0.137zM27.722 15.658c1.369 2.053 1.54 2.379 1.54 3.080v0.77h-4.107v-6.16h0.513c0.462 0 0.65 0.205 2.053 2.31z"></path>
</svg>
