<!-- Generated by IcoMoon.io -->
<svg version="1.1" xmlns="http://www.w3.org/2000/svg" width="49" height="32" viewBox="0 0 49 32">
<title>tv</title>
<path d="M19.048 2.696c-1.032 0.047-3.083 0.152-4.56 0.223-1.465 0.070-2.719 0.152-2.766 0.188-0.059 0.035-0.891 0.117-1.875 0.176-3.727 0.258-4.114 0.539-4.7 3.458-0.047 0.258-0.141 0.68-0.199 0.938-0.492 1.957-0.785 4.864-0.785 7.736 0 3.446 0.434 6.927 1.184 9.459 0.094 0.305 0.164 0.656 0.164 0.785s0.246 0.504 0.563 0.832c0.504 0.551 0.621 0.621 1.348 0.774 0.445 0.094 1.571 0.211 2.52 0.281 0.949 0.059 2.227 0.164 2.837 0.234 0.61 0.059 1.442 0.117 1.852 0.117 0.399 0 0.727 0.047 0.727 0.094 0 0.258 0.363 0.516 0.996 0.68 0.727 0.188 1.606 0.293 4.806 0.527 2.813 0.199 7.842 0.012 9.905-0.387 0.352-0.070 0.82-0.152 1.031-0.176 0.246-0.047 0.481-0.188 0.633-0.399 0.234-0.305 0.316-0.34 0.961-0.34 0.399 0 1.219-0.059 1.829-0.117 0.61-0.070 1.852-0.176 2.743-0.234 2.368-0.164 3.048-0.305 3.61-0.75 0.668-0.516 0.926-1.067 1.278-2.825 0.047-0.258 0.141-0.703 0.199-0.996 0.926-4.29 1.032-8.92 0.305-13.48-0.094-0.61-0.234-1.348-0.305-1.641s-0.164-0.774-0.223-1.078c-0.047-0.305-0.141-0.656-0.211-0.785s-0.129-0.375-0.129-0.551c0-0.387-0.34-0.938-0.832-1.383-0.469-0.422-1.325-0.621-3.306-0.774-3.739-0.27-4.958-0.352-6.939-0.469-2.755-0.176-10.28-0.234-12.659-0.117zM32.176 4.864c1.747 0.106 3.903 0.258 4.806 0.363 0.903 0.094 1.958 0.164 2.344 0.164s0.762 0.047 0.832 0.094c0.258 0.176 0.645 1.524 0.856 2.966 0.059 0.363 0.152 0.926 0.223 1.231 0.586 2.673 0.586 8.815 0 11.464-0.070 0.305-0.164 0.867-0.223 1.231-0.164 1.102-0.457 2.274-0.68 2.649-0.199 0.352-0.199 0.352-1.606 0.434-0.762 0.035-1.735 0.129-2.157 0.199s-1.207 0.129-1.758 0.129c-0.551 0-2.098 0.082-3.458 0.176-3.294 0.234-11.264 0.234-14.476 0-1.325-0.094-2.825-0.176-3.341-0.176s-1.512-0.082-2.227-0.176c-0.703-0.094-1.688-0.176-2.168-0.176s-0.938-0.047-1.008-0.094c-0.211-0.129-0.434-0.633-0.527-1.137-0.035-0.258-0.129-0.703-0.199-0.996-0.586-2.426-0.844-4.771-0.844-7.795s0.258-5.369 0.844-7.795c0.070-0.293 0.164-0.738 0.211-0.996 0.035-0.258 0.164-0.645 0.27-0.856 0.199-0.375 0.211-0.375 1.114-0.375 0.492 0 1.489-0.082 2.192-0.176 0.715-0.094 1.735-0.176 2.286-0.188 0.551 0 1.817-0.082 2.813-0.164 2.755-0.223 12.038-0.223 15.883 0z"></path>
<path d="M18.462 6.799c-2.075 0.070-3.106 0.164-5.157 0.492-0.445 0.070-1.125 0.164-1.5 0.211-0.516 0.070-0.774 0.176-1.031 0.422-0.188 0.176-0.34 0.387-0.34 0.481 0 0.082-0.070 0.316-0.164 0.527-0.645 1.524-1.125 4.278-1.125 6.365s0.481 4.841 1.125 6.365c0.094 0.211 0.164 0.445 0.164 0.527 0 0.094 0.141 0.293 0.328 0.457 0.246 0.223 0.563 0.328 1.43 0.481 2.966 0.504 4.396 0.633 8.322 0.75 3.329 0.094 7.326-0.188 10.596-0.762 1.36-0.234 1.524-0.375 1.934-1.618 0.809-2.544 0.973-3.563 0.973-6.189s-0.164-3.716-0.985-6.212c-0.129-0.387-0.281-0.797-0.34-0.914-0.188-0.34-0.82-0.68-1.278-0.68-0.223 0-0.598-0.059-0.82-0.117-0.223-0.070-0.938-0.176-1.582-0.234s-1.571-0.164-2.051-0.223c-1.219-0.152-5.826-0.223-8.498-0.129zM25.026 7.795c2.954 0.188 4.349 0.328 5.673 0.598 0.867 0.176 1.172 0.375 1.184 0.774 0 0.117 0.070 0.375 0.164 0.586 0.211 0.516 0.387 1.219 0.633 2.497 0.457 2.473 0.141 6.74-0.633 8.592-0.094 0.211-0.164 0.481-0.164 0.598 0 0.363-0.492 0.703-1.125 0.774-0.316 0.035-1.102 0.141-1.747 0.234-2.45 0.352-5.814 0.551-8.217 0.492-2.473-0.059-5.966-0.34-6.845-0.539-0.293-0.070-0.762-0.129-1.055-0.141-0.949-0.012-1.289-0.211-1.524-0.867-0.844-2.462-0.985-3.341-0.985-6.095 0-2.766 0.141-3.681 0.985-6.095l0.211-0.586 0.797-0.188c1.125-0.258 2.989-0.469 5.732-0.633 3.2-0.188 3.81-0.188 6.916 0z"></path>
<path d="M18.93 11.077c-0.059 0.023-0.903 0.094-1.875 0.176-2.239 0.176-2.227 0.176-2.38 0.551-0.234 0.598-0.457 2.38-0.387 3.212 0.012 0.27 0.481 0.363 0.785 0.164 0.211-0.129 0.258-0.316 0.316-1.137 0.082-1.149 0.223-1.536 0.645-1.735 0.188-0.082 1.325-0.176 2.708-0.234 2.192-0.094 2.415-0.117 2.637-0.34 0.188-0.199 0.211-0.293 0.117-0.457-0.105-0.164-0.328-0.199-1.289-0.223-0.633-0.012-1.207 0-1.278 0.023z"></path>
<path d="M36.489 8.158c-0.387 0.164-0.891 0.75-1.020 1.184-0.117 0.375 0.246 1.055 0.738 1.395 0.328 0.223 0.574 0.281 1.090 0.281 0.844 0 1.395-0.328 1.688-0.973 0.176-0.387 0.188-0.504 0.047-0.879-0.34-0.996-1.524-1.453-2.544-1.008zM37.662 9.073c0.105 0.082 0.199 0.305 0.199 0.516 0 0.305-0.059 0.363-0.34 0.434-0.692 0.152-1.090-0.41-0.633-0.903 0.223-0.246 0.481-0.27 0.774-0.047z"></path>
<path d="M35.622 15.707l-0.281 0.234 0.281 0.234c0.246 0.211 0.445 0.234 2.262 0.234 2.051 0 2.438-0.070 2.438-0.469s-0.387-0.469-2.438-0.469c-1.817 0-2.016 0.023-2.262 0.234z"></path>
<path d="M35.599 18.825c-0.047 0.047-0.082 0.199-0.082 0.34 0 0.434 0.445 0.527 2.438 0.527 2.016 0 2.415-0.105 2.344-0.621-0.035-0.258-0.082-0.258-2.333-0.293-1.254-0.012-2.321 0.012-2.368 0.047z"></path>
<path d="M34.344 22.166c-0.105 0.188-0.094 0.293 0.070 0.469 0.188 0.199 0.375 0.223 2.274 0.223s2.086-0.023 2.274-0.223c0.164-0.176 0.176-0.281 0.070-0.469-0.117-0.234-0.211-0.246-2.344-0.246s-2.227 0.012-2.344 0.246z"></path>
</svg>
