<!-- Generated by IcoMoon.io -->
<svg version="1.1" xmlns="http://www.w3.org/2000/svg" width="30" height="32" viewBox="0 0 30 32">
<title>user</title>
<path d="M12.373 1.387c-6.578 2.347-8.225 13.843-2.975 20.836 0.427 0.557 0.498 0.806 0.273 0.877-0.166 0.047-1.102 0.32-2.074 0.604-5.191 1.517-7.692 3.721-6.068 5.345l0.581 0.581h25.884l0.581-0.581c1.624-1.624-0.877-3.828-6.068-5.345-0.972-0.284-1.908-0.557-2.074-0.604-0.225-0.071-0.142-0.32 0.284-0.889 7.135-9.339 1.161-24.225-8.344-20.824zM17.671 3.401c4.433 2.074 5.736 9.813 2.679 15.976-3.105 6.281-7.49 6.281-10.596 0-3.781-7.621-0.924-16.533 5.298-16.533 0.996 0 1.778 0.166 2.619 0.557zM13.357 24.77c1.102 0.462 2.276 0.45 3.484-0.036 1.079-0.427 2.169-0.284 5.203 0.676 1.766 0.557 5.215 2.086 5.215 2.299 0 0.083-5.487 0.142-12.207 0.142-6.708 0-12.207-0.059-12.207-0.142 0-0.225 3.461-1.742 5.215-2.299 3.366-1.055 4.089-1.15 5.298-0.64z"></path>
</svg>
