<!-- Generated by IcoMoon.io -->
<svg version="1.1" xmlns="http://www.w3.org/2000/svg" width="50" height="32" viewBox="0 0 50 32">
<title>video</title>
<path d="M4.614 3.349c-2.307 0.912-2.381 1.358-2.381 12.874v10.549l1.079 1.228 1.098 1.209 29.879 0.205 1.265-1.265c0.912-0.912 1.284-1.619 1.284-2.437 0-1.488 0.316-1.451 1.879 0.186 2.4 2.493 4.93 3.088 6.809 1.619l0.986-0.781v-21.098l-0.986-0.781c-1.972-1.544-4.019-0.986-7.107 1.972l-1.581 1.507v-1.414c0-1.116-0.26-1.674-1.265-2.679l-1.265-1.265-14.456 0.019c-7.944 0.019-14.809 0.167-15.237 0.353zM33.823 5.879c0.298 0.502 0.26 20.447-0.056 20.763-0.521 0.521-28.26 0.26-28.595-0.279-0.558-0.874-0.409-19.907 0.149-20.484 0.614-0.614 28.112-0.614 28.502 0zM43.814 16.279c-0.112 11.423 0.186 11.033-4.837 6.605l-3.628-3.2v-6.977l3.442-3.014c2.14-1.879 3.74-2.995 4.279-2.995h0.856l-0.112 9.581z"></path>
</svg>
