<!-- Generated by IcoMoon.io -->
<svg version="1.1" xmlns="http://www.w3.org/2000/svg" width="33" height="32" viewBox="0 0 33 32">
<title>vinyl</title>
<path d="M14.763 3.076c-9.245 1.485-14.491 11.373-10.383 19.571 6.499 12.948 25.856 8.47 25.872-5.988 0.017-8.289-7.497-14.87-15.489-13.584zM19.629 5.056c8.907 2.235 11.975 13.501 5.452 20.025-7.522 7.522-20.346 2.219-20.346-8.421 0-7.786 7.34-13.509 14.895-11.604z"></path>
<path d="M11.885 7.596c-2.639 1.443-5.724 5.369-4.569 5.814 0.346 0.132 0.52-0.058 1.031-1.122 0.643-1.336 2.474-3.175 3.819-3.86 0.718-0.355 1.031-0.61 1.031-0.825 0-0.511-0.388-0.511-1.311-0.008z"></path>
<path d="M12.371 9.27c-2.161 1.262-4.594 4.751-3.307 4.751 0.223 0 0.478-0.297 0.85-0.99 0.66-1.237 1.872-2.466 3.043-3.076 0.693-0.355 0.899-0.553 0.866-0.8-0.074-0.495-0.454-0.462-1.452 0.115z"></path>
<path d="M12.94 10.953c-1.864 1.254-3.357 3.728-2.252 3.728 0.206 0 0.421-0.231 0.619-0.685 0.396-0.874 1.625-2.144 2.524-2.598 0.454-0.239 0.685-0.462 0.685-0.676 0-0.503-0.627-0.412-1.575 0.231z"></path>
<path d="M15.34 11.695c-5.715 1.872-4.643 9.979 1.32 9.988 5.41 0.008 7.076-7.299 2.194-9.658-0.817-0.396-2.763-0.577-3.513-0.33zM17.979 13.542c3.299 1.493 2.515 6.111-1.105 6.515-1.996 0.223-3.942-1.864-3.596-3.876 0.379-2.243 2.697-3.555 4.701-2.639z"></path>
<path d="M15.489 15.489c-1.056 1.064-0.33 2.821 1.171 2.821 0.965 0 1.649-0.685 1.649-1.649 0-1.501-1.757-2.227-2.821-1.171zM17.287 16.033c0.107 0.107 0.198 0.388 0.198 0.627s-0.091 0.52-0.198 0.627c-0.107 0.107-0.388 0.198-0.627 0.198-0.742 0-1.146-0.932-0.627-1.452 0.256-0.256 0.998-0.256 1.254 0z"></path>
<path d="M22.012 19.324c-0.396 0.874-1.625 2.144-2.524 2.598-0.767 0.396-0.965 1.006-0.33 1.006 1.163 0 4.206-3.175 3.876-4.041-0.19-0.495-0.709-0.264-1.023 0.437z"></path>
<path d="M23.406 20.289c-0.66 1.237-1.872 2.466-3.043 3.076-0.899 0.47-1.171 0.948-0.66 1.146 1.031 0.396 4.866-3.414 4.874-4.841 0-0.759-0.61-0.437-1.171 0.619z"></path>
<path d="M25.616 19.934c-0.091 0.058-0.379 0.553-0.643 1.097-0.643 1.336-2.474 3.175-3.819 3.86-1.014 0.511-1.353 1.014-0.808 1.221 0.569 0.214 3.225-1.649 4.297-3.019 1.468-1.864 2.087-3.876 0.973-3.159z"></path>
</svg>
