<!-- Generated by IcoMoon.io -->
<svg version="1.1" xmlns="http://www.w3.org/2000/svg" width="31" height="32" viewBox="0 0 31 32">
<title>wallet</title>
<path d="M5.512 2.358c-1.378 0.367-2.496 1.332-3.123 2.679-0.322 0.689-0.322 0.857-0.322 10.58 0 9.768 0 9.891 0.322 10.58 0.475 1.026 1.332 1.899 2.327 2.389l0.873 0.429h18.067l0.873-0.429c1.669-0.827 2.542-2.22 2.679-4.302 0.092-1.24 0.092-1.24 0.842-2.036 2.373-2.542 2.358-6.4-0.031-8.942l-0.766-0.811v-4.011c0-2.572-0.061-4.18-0.168-4.517-0.245-0.72-1.011-1.485-1.669-1.669-0.827-0.23-19.032-0.184-19.904 0.061zM25.248 4.226c0.291 0.383 0.322 0.612 0.322 3.139 0 1.516-0.046 2.741-0.107 2.741-0.077 0-0.276-0.046-0.459-0.092-0.352-0.092-0.352-0.138-0.352-2.373 0-2.082-0.031-2.312-0.306-2.588-0.306-0.306-0.505-0.306-9.723-0.306s-9.416 0-9.723 0.306c-0.276 0.276-0.306 0.521-0.306 2.174l-0.015 1.883-0.367-0.597c-0.75-1.24-0.628-2.588 0.352-3.644 0.995-1.056 0.735-1.026 11.085-1.041h9.294l0.306 0.398zM23.732 6.124v0.459h-18.22v-0.919h18.22v0.459zM23.732 7.809v0.459h-18.22v-0.919h18.22v0.459zM23.732 9.493v0.459h-8.758c-4.823 0-8.926-0.046-9.11-0.092-0.245-0.061-0.352-0.214-0.352-0.459v-0.367h18.22v0.459zM4.609 11.131l0.811 0.429 19.567 0.153 0.291 0.367c0.245 0.291 0.291 0.566 0.26 1.301l-0.046 0.934-4.593 0.077c-5.236 0.092-5.282 0.092-6.492 1.47-1.562 1.776-1.347 4.532 0.459 6.078 1.118 0.965 1.5 1.026 6.369 1.026h4.333v0.735c0 1.761-0.888 3.169-2.251 3.537-0.827 0.23-16.597 0.23-17.424 0-0.796-0.23-1.822-1.256-2.052-2.052-0.153-0.582-0.26-14.469-0.107-14.469 0.031 0 0.429 0.184 0.873 0.413zM27.82 16.046c0.597 1.531 0.214 3.721-0.827 4.808l-0.413 0.429h-4.716c-5.053 0-5.359-0.046-6.048-0.781-0.949-1.026-1.011-2.48-0.168-3.445 0.26-0.291 0.612-0.612 0.796-0.72 0.23-0.122 1.745-0.214 5.022-0.26l4.716-0.077 0.49-0.49c0.582-0.582 0.75-0.505 1.148 0.536z"></path>
<path d="M16.551 17.393c-1.531 1.286 0.153 3.69 1.945 2.756 1.056-0.551 1.148-2.22 0.168-2.909-0.567-0.383-1.562-0.322-2.113 0.153z"></path>
</svg>
