<!-- Generated by IcoMoon.io -->
<svg version="1.1" xmlns="http://www.w3.org/2000/svg" width="25" height="32" viewBox="0 0 25 32">
<title>watch</title>
<path d="M7.57 1.876c-0.632 0.39-0.686 0.558-1.392 4.309l-0.645 3.455-0.652 0.861c-2.373 3.146-2.36 7.395 0.040 10.534 0.497 0.652 0.524 0.739 1.15 4.128 0.679 3.684 0.699 3.765 1.257 4.282l0.356 0.336 4.128 0.034c5.58 0.054 5.096 0.424 6.024-4.605l0.645-3.496 0.699-0.975c0.659-0.921 1.183-2.037 1.351-2.884 0.061-0.296 0.148-0.376 0.43-0.376 0.827 0 1.627-0.874 1.627-1.775 0-0.854-0.827-1.721-1.64-1.721-0.269 0-0.35-0.141-0.612-1.008-0.202-0.645-0.565-1.385-1.029-2.064l-0.719-1.055-0.639-3.482c-0.692-3.765-0.8-4.101-1.452-4.497-0.659-0.403-8.269-0.403-8.928 0zM15.657 3.664c0.034 0.168 0.222 1.15 0.41 2.185 0.195 1.035 0.376 1.983 0.417 2.111 0.054 0.188-0.074 0.155-0.713-0.161-2.225-1.116-5.183-1.143-7.294-0.067-0.37 0.181-0.719 0.336-0.78 0.336-0.054 0 0.101-1.062 0.356-2.353l0.457-2.353h7.079l0.067 0.303zM13.714 8.901c3.045 0.719 5.284 3.603 5.284 6.83 0.013 6.945-9.069 9.681-12.928 3.899-3.576-5.358 1.311-12.215 7.644-10.729zM9.815 24.282c1.882 0.497 4.672 0.161 6.151-0.746 0.242-0.148 0.437-0.242 0.437-0.208s-0.181 0.982-0.403 2.104c-0.222 1.123-0.403 2.185-0.403 2.353v0.316h-7.193l-0.383-2.050c-0.208-1.129-0.41-2.212-0.45-2.413l-0.067-0.37 0.719 0.39c0.397 0.215 1.116 0.491 1.593 0.625z"></path>
<path d="M11.301 9.903c-0.491 0.625-0.128 1.392 0.659 1.392s1.17-0.867 0.618-1.418c-0.437-0.43-0.921-0.424-1.277 0.027z"></path>
<path d="M7.63 11.328c-0.605 0.457-0.195 1.58 0.571 1.58 0.464 0 0.982-0.619 0.881-1.049-0.155-0.645-0.934-0.928-1.452-0.531z"></path>
<path d="M13.593 13.23c-2.817 2.326-3.025 2.642-2.111 3.247 0.605 0.39 0.894 0.161 2.958-2.366 2.891-3.529 2.662-3.771-0.847-0.881z"></path>
<path d="M6.138 15.066c-0.612 0.484-0.249 1.607 0.518 1.607 0.356 0 0.874-0.558 0.874-0.941s-0.518-0.941-0.874-0.941c-0.094 0-0.323 0.128-0.518 0.276z"></path>
<path d="M16.76 15.066c-0.612 0.484-0.249 1.607 0.518 1.607 0.356 0 0.874-0.558 0.874-0.941s-0.518-0.941-0.874-0.941c-0.094 0-0.323 0.128-0.518 0.276z"></path>
<path d="M7.576 18.897c-0.565 0.565-0.188 1.405 0.625 1.405s1.19-0.84 0.625-1.405c-0.188-0.188-0.471-0.343-0.625-0.343s-0.437 0.155-0.625 0.343z"></path>
<path d="M15.119 18.884c-0.585 0.585-0.276 1.419 0.518 1.419 0.719-0.007 1.136-0.518 0.908-1.123-0.249-0.666-0.921-0.8-1.425-0.296z"></path>
<path d="M11.382 20.37c-0.538 0.538-0.249 1.432 0.497 1.519 0.376 0.047 1.029-0.471 1.029-0.82 0-0.679-1.062-1.163-1.526-0.699z"></path>
</svg>
