<!-- Generated by IcoMoon.io -->
<svg version="1.1" xmlns="http://www.w3.org/2000/svg" width="32" height="32" viewBox="0 0 32 32">
<title>world</title>
<path d="M13.537 1.34c-5.629 1.022-9.902 5.16-11.058 10.655-1.424 6.903 2.781 13.705 9.701 15.682 1.86 0.536 5.11 0.536 6.97 0 4.658-1.324 8.209-4.875 9.533-9.533 0.536-1.86 0.536-5.11 0-6.97-1.324-4.624-4.892-8.209-9.449-9.499-1.374-0.402-4.423-0.57-5.696-0.335zM15.246 6.048v3.016l-0.787-0.101c-1.324-0.168-3.066-0.62-3.066-0.771 0-0.302 0.988-2.111 1.592-2.932 0.737-0.972 1.943-2.245 2.128-2.245 0.067 0 0.134 1.357 0.134 3.032zM17.039 3.719c0.369 0.402 0.955 1.089 1.307 1.541 0.603 0.821 1.592 2.63 1.592 2.932 0 0.151-1.742 0.603-3.049 0.771l-0.804 0.101v-3.016c0-1.675 0.067-3.032 0.134-3.032s0.436 0.318 0.821 0.704zM12.917 4.004c-0.72 0.854-1.943 2.781-2.195 3.468-0.084 0.218-0.251 0.402-0.352 0.402-0.235 0-1.943-0.905-2.496-1.324l-0.402-0.318 0.402-0.352c1.558-1.34 4.172-2.647 5.328-2.681 0.369-0.017 0.352 0.034-0.285 0.804zM19.786 3.669c1.039 0.402 2.681 1.357 3.518 2.077l0.553 0.486-0.419 0.318c-0.536 0.419-2.245 1.324-2.48 1.324-0.101 0-0.268-0.184-0.352-0.402-0.268-0.704-1.474-2.614-2.228-3.502l-0.704-0.838 0.586 0.084c0.318 0.067 1.005 0.268 1.525 0.452zM9.198 8.276c0.737 0.385 0.871 0.519 0.804 0.821-0.469 1.943-0.787 3.686-0.787 4.339v0.804h-5.294l0.134-1.123c0.235-1.927 1.19-4.239 2.329-5.629l0.503-0.62 0.704 0.486c0.385 0.251 1.106 0.67 1.608 0.921zM26.153 9.466c0.737 1.508 1.156 2.982 1.156 4.054v0.72h-5.194v-0.804c0-0.653-0.318-2.379-0.787-4.339-0.067-0.302 0.067-0.436 0.888-0.871 0.553-0.268 1.257-0.687 1.575-0.921l0.586-0.419 0.553 0.62c0.318 0.335 0.854 1.223 1.223 1.96zM12.565 9.466c0.603 0.134 1.441 0.285 1.893 0.335l0.787 0.101v4.339h-5.194v-0.637c0-0.771 0.268-2.279 0.62-3.602 0.218-0.771 0.318-0.955 0.536-0.871 0.151 0.067 0.754 0.218 1.357 0.335zM20.658 10.002c0.352 1.324 0.62 2.831 0.62 3.602v0.637h-5.194v-4.339l0.804-0.101c0.436-0.050 1.357-0.235 2.044-0.402s1.307-0.318 1.357-0.335c0.067 0 0.218 0.419 0.369 0.938zM9.215 15.782c0.017 1.005 0.402 3.049 0.821 4.272 0.436 1.29 0.436 1.34-0.017 1.474-0.218 0.067-0.888 0.402-1.508 0.771-0.603 0.352-1.156 0.653-1.19 0.653-0.050 0-0.436-0.469-0.871-1.039-1.374-1.843-2.161-3.686-2.396-5.713l-0.134-1.123h5.294v0.704zM15.213 17.709l-0.050 2.647-1.106 0.101c-0.603 0.067-1.391 0.201-1.759 0.302-0.352 0.101-0.737 0.184-0.854 0.184-0.419 0-1.391-3.602-1.391-5.21v-0.653h5.21l-0.050 2.63zM21.277 15.732c0 1.24-0.787 4.691-1.173 5.093-0.067 0.084-0.687 0.034-1.357-0.117-0.687-0.151-1.541-0.285-1.91-0.302l-0.67-0.050-0.050-2.647-0.050-2.63h5.21v0.653zM27.275 16.201c-0.235 2.027-1.022 3.87-2.396 5.713-0.436 0.57-0.821 1.039-0.871 1.039-0.034 0-0.586-0.302-1.19-0.653-0.62-0.369-1.29-0.704-1.491-0.771-0.469-0.134-0.469-0.184-0.034-1.474 0.419-1.223 0.804-3.267 0.821-4.272v-0.704h5.294l-0.134 1.123zM15.246 23.791c0 1.374-0.067 2.513-0.134 2.513-0.201 0-1.407-1.307-2.161-2.346-0.871-1.173-1.29-2.010-1.106-2.178 0.218-0.218 1.541-0.469 2.53-0.486l0.871-0.017v2.513zM18.664 21.495c0.452 0.117 0.854 0.285 0.888 0.369 0.151 0.452-2.831 4.44-3.317 4.44-0.084 0-0.151-1.055-0.151-2.513v-2.513l0.888 0.017c0.469 0 1.24 0.101 1.692 0.201zM11.426 23.187c0.335 0.57 0.972 1.474 1.391 1.994 0.637 0.771 0.72 0.955 0.452 0.955-0.871 0-3.669-1.273-4.725-2.161l-0.553-0.452 1.324-0.704c0.72-0.385 1.357-0.687 1.407-0.687 0.050-0.017 0.369 0.469 0.704 1.055zM21.981 22.819l1.357 0.704-0.553 0.452c-1.055 0.888-3.853 2.161-4.725 2.161-0.268 0-0.184-0.184 0.452-0.955 0.419-0.519 1.055-1.424 1.391-1.994 0.335-0.586 0.653-1.072 0.67-1.072 0.034 0 0.67 0.318 1.407 0.704z"></path>
</svg>
